<?xml version="1.0" encoding="UTF-8"?>
<svg id="Livello_1" data-name="Livello 1" xmlns="http://www.w3.org/2000/svg" viewBox="0 0 178 118">
  <defs>
    <style>
      .cls-1 {
        fill: #fff;
      }
    </style>
  </defs>
  <path class="cls-1" d="M90.05,48.39v-9.13c-2.9,0-5.25,2.35-5.25,5.25s2.35,5.25,5.25,5.25l-.03,9.16c2.9,0,5.25-2.35,5.25-5.25s-2.35-5.25-5.25-5.25v-8.96"/>
  <path class="cls-1" d="M163.48,80.12l3-7.87,3.13,7.87h-6.14ZM174.25,83.1l-6.11-15.02h-.28l-5.46,14.04c-1.19,3.06-1.61,3.94-3.86,4.09v.26h5.93v-.26c-3.19-.16-2.87-1.14-1.73-4.12l.65-1.68h6.37l1.06,2.69c.78,1.97,1.09,2.95-1.68,3.11v.26h8.34v-.26c-1.79-.16-2.33-.98-3.21-3.11M158.6,68.6v-.26h-5.88l-4.84,13.6-5.41-13.6h-5.8v.26c2.85.08,3,1.53,3,3.19v10.31c0,2.51.03,4.01-2.9,4.12v.26h6.47v-.26c-3.26-.1-3.26-1.61-3.26-4.12l-.03-11.37,6.32,15.75h.31l6.19-17.43v13.7c0,2.77,0,3.37-2.51,3.47v.26h8.34v-.26c-2.51-.1-2.49-.7-2.49-3.47v-10.67c0-2.77-.03-3.39,2.49-3.47M128.13,86.47h7.54v-.26c-2.1-.1-2.1-.7-2.1-2.46v-12.69c0-1.76,0-2.38,2.1-2.46v-.26h-7.54v.26c2.12.08,2.12.7,2.12,2.46v12.69c0,1.76,0,2.36-2.12,2.46v.26ZM119.71,86.7c2.15,0,3.6-.62,4.82-1.61,1.22-1.01,1.89-2.41,1.89-4.14,0-3.47-3.11-4.51-6.4-5.67-2.82-1.01-4.97-1.81-4.97-3.94,0-.83.34-1.55.96-2.05.75-.62,1.94-.88,3.08-.88,4.27,0,6.11,4.04,6.34,6.89h.26l-.1-7.2h-.26c-.05,1.79-.34,2.12-.75,2.12s-.88-.44-1.81-1.01c-.72-.47-1.92-1.11-3.68-1.11s-3.39.47-4.53,1.5c-1.04.85-1.66,2.1-1.66,3.68,0,3.34,3.19,4.35,5.85,5.31,3.08,1.09,5.59,2.1,5.59,4.3,0,.8-.16,1.55-.7,2.12-.98,1.11-2.51,1.37-3.94,1.37-4.56,0-6.58-4.25-6.79-7.33h-.26l.1,7.64h.26c.08-1.79.36-2.1.78-2.1.44,0,1.09.49,1.99.98.85.52,2.12,1.11,3.91,1.11M103.54,86.7c2.15,0,3.6-.62,4.82-1.61,1.22-1.01,1.89-2.41,1.89-4.14,0-3.47-3.11-4.51-6.4-5.67-2.82-1.01-4.97-1.81-4.97-3.94,0-.83.34-1.55.96-2.05.75-.62,1.94-.88,3.08-.88,4.27,0,6.11,4.04,6.35,6.89h.26l-.1-7.2h-.26c-.05,1.79-.34,2.12-.75,2.12s-.88-.44-1.81-1.01c-.72-.47-1.92-1.11-3.68-1.11s-3.39.47-4.53,1.5c-1.04.85-1.66,2.1-1.66,3.68,0,3.34,3.19,4.35,5.85,5.31,3.08,1.09,5.59,2.1,5.59,4.3,0,.8-.16,1.55-.7,2.12-.98,1.11-2.51,1.37-3.94,1.37-4.56,0-6.58-4.25-6.79-7.33h-.26l.1,7.64h.26c.08-1.79.36-2.1.78-2.1.44,0,1.09.49,1.99.98.85.52,2.12,1.11,3.91,1.11M86.98,86.47h7.54v-.26c-2.1-.1-2.1-.7-2.1-2.46v-12.69c0-1.76,0-2.38,2.1-2.46v-.26h-7.54v.26c2.12.08,2.12.7,2.12,2.46v12.69c0,1.76,0,2.36-2.12,2.46v.26ZM79.36,68.34v.26c3.55.08,3.52,1.61,3.52,4.12v8.52l-9.19-12.9h-5.72v.26c2.98.08,3.13,1.53,3.13,3.19v10.31c0,2.51,0,4.01-3.06,4.12v.26h6.94v-.26c-3.57-.1-3.57-1.61-3.57-4.12v-11.34l11.47,15.82h.31v-13.86c0-2.51,0-4.04,3.08-4.12v-.26h-6.91ZM65.8,78.86c-.21,4.84-1.53,7.3-5.46,7.3h-2.07c-1.76,0-1.76-.52-1.76-2.18v-6.94h1.66c3.37,0,3.88.83,4.04,3.96h.26v-8.16h-.26c-.15,3.11-.67,3.94-4.04,3.94h-1.66v-5.96c0-1.76.03-2.18,1.76-2.18h2.59c2.77,0,4.43,1.92,4.66,6.37h.26l-.1-6.68h-14.5v.26c2.02.08,2.02.67,2.02,2.46v12.69c0,1.79,0,2.36-2.02,2.46v.26h14.76l.13-7.61h-.26ZM38.68,77.61v-6.79c0-1.66,0-2.18,1.76-2.18h.83c2.56,0,3.57.93,3.57,4.45s-1.01,4.51-3.57,4.51h-2.59ZM49.61,81.58v2.02c0,.65-.05,1.06-.18,1.32-.1.26-.31.49-.73.49-.36,0-.6-.21-.72-.49-.1-.26-.16-.72-.16-1.29v-1.5c0-2.28-2.02-3.78-5.1-4.27,3.44-.31,5.7-1.63,5.7-4.74,0-3.63-3.11-4.77-7.15-4.77h-7.92v.26c2.02.08,2.02.67,2.02,2.46v12.69c0,1.79,0,2.36-2.02,2.46v.26h7.82v-.26c-2.49-.1-2.49-.67-2.49-2.46v-5.83h2.25c2.25,0,3.47.88,3.47,3.55v2.18c0,.96.08,1.66.47,2.18.39.52,1.04.91,2.18.91s1.92-.49,2.3-.96c.41-.49.52-1.06.52-2.18v-2.02h-.26ZM30.75,78.86c-.21,4.84-1.53,7.3-5.46,7.3h-2.07c-1.76,0-1.76-.52-1.76-2.18v-6.94h1.66c3.37,0,3.88.83,4.04,3.96h.26v-8.16h-.26c-.15,3.11-.67,3.94-4.04,3.94h-1.66v-5.96c0-1.76.03-2.18,1.76-2.18h2.59c2.77,0,4.43,1.92,4.66,6.37h.26l-.1-6.68h-14.5v.26c2.02.08,2.02.67,2.02,2.46v12.69c0,1.79,0,2.36-2.02,2.46v.26h14.76l.13-7.61h-.26ZM7.58,86.7c2.15,0,3.6-.62,4.82-1.61,1.22-1.01,1.89-2.41,1.89-4.14,0-3.47-3.11-4.51-6.4-5.67-2.82-1.01-4.97-1.81-4.97-3.94,0-.83.34-1.55.96-2.05.75-.62,1.94-.88,3.08-.88,4.27,0,6.11,4.04,6.35,6.89h.26l-.1-7.2h-.26c-.05,1.79-.34,2.12-.75,2.12s-.88-.44-1.81-1.01c-.73-.47-1.92-1.11-3.68-1.11s-3.39.47-4.53,1.5c-1.04.85-1.66,2.1-1.66,3.68,0,3.34,3.19,4.35,5.85,5.31,3.08,1.09,5.59,2.1,5.59,4.3,0,.8-.16,1.55-.7,2.12-.98,1.11-2.51,1.37-3.94,1.37-4.56,0-6.58-4.25-6.79-7.33h-.26l.1,7.64h.26c.08-1.79.36-2.1.78-2.1.44,0,1.09.49,1.99.98.85.52,2.12,1.11,3.91,1.11"/>
</svg>