<?xml version="1.0" encoding="UTF-8"?>
<svg id="Livello_1" data-name="Livello 1" xmlns="http://www.w3.org/2000/svg" viewBox="0 0 96 118">
  <defs>
    <style>
      .cls-1 {
        fill: #fff;
      }
    </style>
  </defs>
  <path class="cls-1" d="M83.07,66.24l.94-1.03-.08-.09c-.9.52-1.59.31-2.33-.3l-.7-.59c-.23-.2-.26-.44-.06-.67l1.85-2.22.7.59c.9.75,1.01,1.14.8,1.62l.1.09,1.03-1.23-.1-.09c-.44.28-.84.25-1.73-.5l-.7-.59,1.83-2.2.86.72c.82.69,1.1,1.29.79,2.25l.11.06.78-1.1-3.52-2.94-.09.1c.17.28.04.55-.4,1.07l-2.73,3.27c-.44.53-.68.71-.98.58l-.09.1,3.71,3.09ZM76.4,57.35l-.54-.29,1.38-2.58c.14.05.27.11.38.17,1.05.56,1.1,1.53.73,2.21-.35.65-1,.99-1.96.48M77.2,61.91c.14.08.42.21.64.27l.06-.12s-.09-.04-.13-.06c-.31-.17-.3-.42-.14-1.78.15-1.36.18-1.85-.71-2.47,1.19.47,2.03.17,2.45-.6.37-.68.34-1.55-1.49-2.53l-1.77-.95-.06.12c.23.24.15.53-.17,1.13l-2.01,3.75c-.33.61-.52.83-.85.77l-.06.12,1.57.84.06-.12c-.23-.24-.15-.53.17-1.13l1.05-1.95.5.27c.74.4.56.83.41,2.33-.12,1.2-.2,1.75.5,2.12M68.27,58c1.32.44,2.52.02,3.13-1.8l.91-2.73c.22-.65.37-.9.7-.9l.04-.13-1.21-.4-.04.13c.42.3.53.69.17,1.8l-.73,2.2c-.59,1.76-1.76,1.99-2.52,1.74-1.23-.41-1.84-1.3-1.29-2.95l.93-2.8c.22-.65.37-.9.7-.9l.04-.13-1.69-.56-.04.13c.27.2.24.49.02,1.14l-.91,2.73c-.65,1.95.49,3,1.79,3.44M60.04,55.85l1.75.35.03-.13c-.29-.16-.3-.46-.16-1.13l1.04-5.2.27.05c.83.17,1.21.48,1.41,1.3h.12s.17-1.14.17-1.14l-4.88-.97-.28,1.12.11.04c.5-.68.96-.83,1.8-.66l.29.06-1.04,5.2c-.13.67-.26.94-.59.98l-.03.13ZM53.31,55.02l1.78.17v-.13c-.29-.13-.33-.43-.26-1.11l.51-5.28.28.03c.85.08,1.25.36,1.53,1.15h.12s.05-1.16.05-1.16l-4.95-.47-.17,1.15.11.03c.42-.73.88-.92,1.72-.84l.29.03-.5,5.28c-.07.68-.16.96-.48,1.04v.13ZM46.11,52.2l1.2-2.95,1.22,2.96h-2.43ZM44.51,54.84h1.11s0-.13,0-.13c-.32-.08-.38-.35-.12-.99l.56-1.36h2.55s.57,1.39.57,1.39c.27.63.4.88.08.98v.13s1.74,0,1.74,0v-.13c-.22-.11-.47-.36-.73-.99l-2.35-5.65-.94.42.12.27c.09.17.09.33.02.52l-1.8,4.43c-.26.64-.52.89-.81.99v.13ZM39.42,55.34l1.77-.16v-.13c-.33-.08-.43-.36-.49-1.04l-.21-2.35.77-.07c1.16-.1,1.51.1,1.71.58h.13s-.14-1.63-.14-1.63h-.13c-.11.52-.42.78-1.58.88l-.77.07-.24-2.76,1.43-.13c.94-.08,1.39.13,1.8.76l.12-.04-.16-1.05-4.6.41v.13c.33.08.43.36.49,1.04l.38,4.24c.06.69.02.98-.29,1.11v.13ZM35.36,55.99l1.75-.28-.02-.13c-.33-.05-.44-.33-.55-1l-.68-4.21c-.11-.68-.09-.97.2-1.13l-.02-.13-1.75.28.02.13c.33.05.44.33.55,1l.68,4.21c.11.68.09.97-.21,1.13l.02.13ZM32.71,56.62l.12-.03-1.42-5.37c-.18-.66-.18-.96.09-1.14l-.03-.13-1.25.33.03.13c.52.02.83.29,1.12,1.41l.83,3.13-5.16-3.84-1.04.28.03.13c.42,0,.58.25.76.92l1.09,4.12c.18.66.18.96-.09,1.14l.03.13,1.24-.33-.03-.13c-.52-.02-.83-.29-1.12-1.41l-.97-3.67,5.77,4.33ZM20.65,57.93l-.07-3.18,2.3,2.22-2.23.96ZM20.23,61l1.02-.44-.05-.12c-.33.06-.49-.17-.51-.86l-.03-1.47,2.34-1.01,1.07,1.04c.5.47.72.65.47.87l.05.12,1.6-.69-.05-.12c-.24,0-.57-.14-1.06-.61l-4.41-4.24-.69.76.22.2c.15.12.22.26.22.47l.12,4.78c.02.69-.12,1.02-.34,1.23l.05.12ZM13.02,66.08l1.03-.76-.08-.11c-.49.17-.87.04-1.56-.9l-2.35-3.2,4.26,1.75.18-.13-.53-4.6,2.74,3.73c.41.55.52.83.33,1.1l.08.11,1.43-1.05-.08-.11c-.32.1-.54-.09-.95-.64l-2.18-2.97c-.69-.94-.72-1.33-.45-1.72l-.08-.11-1.09.8.51,4.49-4.22-1.76-1.15.85.08.11c.44-.14.81,0,1.5.95l2.18,2.97c.41.55.52.83.33,1.1l.08.11Z"/>
  <path class="cls-1" d="M87.02,84.98l-.91-1.06-.1.07c.41.96.13,1.62-.57,2.28l-.66.63c-.22.21-.46.21-.68-.02l-1.99-2.09.66-.63c.84-.8,1.24-.87,1.7-.61l.1-.09-1.11-1.16-.1.09c.23.46.15.86-.7,1.67l-.66.63-1.98-2.07.81-.77c.77-.74,1.41-.95,2.33-.53l.07-.11-1.01-.9-3.32,3.16.09.1c.3-.14.55.02,1.02.52l2.94,3.08c.47.5.62.75.47,1.04l.09.1,3.5-3.34ZM74.11,94.11l1.55-.87-.07-.12c-.33.06-.53-.15-.86-.75l-1.1-1.96,2.9-1.63,1.1,1.96c.34.6.42.88.2,1.13l.07.12,1.55-.87-.07-.12c-.33.06-.52-.15-.86-.75l-2.09-3.71c-.34-.6-.42-.88-.2-1.13l-.07-.12-1.55.87.07.12c.33-.06.53.15.86.75l.9,1.61-2.9,1.63-.9-1.61c-.34-.6-.42-.88-.2-1.13l-.07-.12-1.55.87.07.12c.33-.06.53.15.86.75l2.09,3.71c.34.6.42.88.2,1.13l.07.12ZM67.09,96.43c1.12-.33,1.75-.76,2.17-1.12l-.24-1.35-.12.02c-.05,1.05-.57,1.88-1.59,2.19-1.79.53-3.32-.8-3.84-2.56-.54-1.82.2-3.1,1.67-3.54.94-.28,2.05,0,2.71.84l.1-.06-.4-1.2c-.57-.18-1.55-.03-2.23.18-2.24.67-3.25,2.63-2.7,4.48.61,2.05,2.29,2.79,4.48,2.13M57.28,98.34l1.75-.28-.02-.13c-.33-.05-.44-.33-.55-1l-.68-4.21c-.11-.68-.09-.97.2-1.13l-.02-.13-1.75.28.02.13c.33.05.44.33.55,1l.68,4.21c.11.68.09.97-.21,1.13l.02.13ZM45.73,99.01l1.28-.05v-.13c-.51-.13-.75-.46-.79-1.62l-.15-3.96,2.55,3.84h.22s2.14-4.12,2.14-4.12l.18,4.62c.03.69-.03.98-.34,1.09v.13s1.78-.07,1.78-.07v-.13c-.32-.09-.4-.38-.43-1.06l-.14-3.68c-.04-1.16.15-1.51.59-1.68v-.13s-1.36.05-1.36.05l-2.09,4-2.51-3.82-1.43.06v.13c.45.14.67.46.72,1.63l.14,3.68c.03.69-.03.98-.34,1.09v.13ZM37.27,95.51l1.49-2.81.92,3.06-2.41-.25ZM35.41,97.98l1.1.11v-.13c-.3-.11-.33-.39,0-1l.69-1.3,2.54.26.43,1.43c.2.65.31.92-.02.99v.13s1.72.18,1.72.18v-.13c-.19-.13-.42-.4-.62-1.05l-1.78-5.86-.97.32.1.28c.07.18.06.33-.03.52l-2.23,4.23c-.32.61-.6.83-.9.91v.13ZM29.6,92.85l-.59-.15.7-2.84c.14.02.29.04.41.07,1.16.29,1.44,1.21,1.26,1.96-.18.71-.72,1.21-1.78.95M31.49,97.08c.16.04.46.1.68.1l.03-.13s-.09-.01-.14-.03c-.34-.08-.39-.33-.58-1.69s-.28-1.84-1.3-2.22c1.27.16,2.01-.34,2.22-1.19.19-.75-.05-1.59-2.07-2.09l-1.95-.48-.03.13c.28.18.28.47.11,1.14l-1.02,4.14c-.17.67-.3.93-.63.96l-.03.13,1.72.43.03-.13c-.28-.18-.28-.47-.11-1.14l.53-2.15.55.14c.82.2.75.67.97,2.16.18,1.19.24,1.74,1.01,1.93M22.51,94.13l.63-1.25-.11-.07c-.73.74-1.44.74-2.33.35l-.84-.37c-.28-.12-.37-.35-.24-.63l1.17-2.64.84.37c1.07.47,1.28.82,1.22,1.33l.12.05.65-1.47-.12-.05c-.34.39-.74.47-1.8,0l-.84-.37,1.16-2.62,1.02.45c.98.43,1.41.94,1.38,1.95l.13.02.45-1.27-4.19-1.85-.05.12c.25.22.19.51-.09,1.14l-1.72,3.9c-.28.63-.46.86-.79.83l-.05.12,4.42,1.95ZM11.89,87.87c.9.73,1.61,1.01,2.15,1.16l.98-.96-.08-.09c-.89.55-1.87.59-2.7-.08-1.45-1.17-1.21-3.19-.05-4.62,1.2-1.48,2.67-1.58,3.86-.62.76.62,1.15,1.7.84,2.71l.11.05.77-1c-.17-.57-.85-1.3-1.4-1.74-1.82-1.48-4.01-1.2-5.22.3-1.35,1.66-1.01,3.47.77,4.9"/>
  <path class="cls-1" d="M66.72,77.86c1.03-.17,1.96-.56,2.78-1.15.82-.59,1.46-1.35,1.94-2.26.47-.91.71-1.9.71-2.97,0-1.19-.29-2.27-.87-3.26-.58-.98-1.36-1.76-2.34-2.34-.98-.58-2.07-.87-3.26-.87h-14.42v18.09h2.58v-15.51h11.84c.72,0,1.38.17,1.96.52.59.34,1.05.81,1.4,1.4.34.59.52,1.24.52,1.96s-.17,1.36-.52,1.95c-.34.59-.81,1.07-1.4,1.42-.59.35-1.24.53-1.96.53h-10.39v2.56h7.93l5.43,5.17h3.49l-5.43-5.25ZM48.73,65.02h-2.58v18.09h2.58v-18.09ZM43.8,80.52h-11.66c-1.19,0-2.21-.29-3.06-.88-.85-.59-1.51-1.37-1.98-2.34-.47-.97-.7-2.05-.7-3.24s.23-2.27.7-3.26c.47-.98,1.12-1.76,1.98-2.34.85-.58,1.87-.87,3.06-.87h11.66v-2.58h-11.66c-1.26,0-2.4.23-3.41.7-1.02.47-1.89,1.12-2.62,1.95-.73.84-1.3,1.8-1.69,2.89-.4,1.09-.59,2.26-.59,3.5s.2,2.43.59,3.53c.4,1.09.96,2.05,1.69,2.88.73.83,1.61,1.47,2.62,1.94,1.02.47,2.15.7,3.41.7h11.66v-2.58Z"/>
</svg>