<svg xmlns="http://www.w3.org/2000/svg" xmlns:xlink="http://www.w3.org/1999/xlink" xmlns:serif="http://www.serif.com/" width="100%" height="100%" viewBox="0 0 250 67" xml:space="preserve" style="fill-rule:evenodd;clip-rule:evenodd;stroke-linejoin:round;stroke-miterlimit:2;">
    <g transform="matrix(1,0,0,1,-3318,-55)">
        <g id="tagina-logo-h-bianco-oro" transform="matrix(0.965251,0,0,1.01515,2853.71,179.864)">
            <rect x="481" y="-123" width="259" height="66" style="fill:none;"></rect>
            <g transform="matrix(1.21443e-16,-1.88583,1.98332,1.15474e-16,510.926,311.506)">
                <rect x="199.209" y="60.368" width="3.214" height="0.43" style="fill:white;"></rect>
            </g>
            <g transform="matrix(1.21443e-16,-1.88583,1.98332,1.15474e-16,634.773,-69.4528)">
                <path d="M0,0.432L-2.802,0.432L-2.802,-0L0,-0L0,-1.126L0.412,-1.126L0.412,1.558L0,1.558L0,0.432Z" style="fill:white;fill-rule:nonzero;"></path>
            </g>
            <g transform="matrix(1.21443e-16,-1.88583,1.98332,1.15474e-16,637.602,-64.1684)">
                <path d="M0,2.899L0,2.453L0.843,2.148L0.843,0.755L0,0.452L0,0L3.214,1.208L3.214,1.707L0,2.899ZM2.762,1.455L1.239,0.899L1.239,2.004L2.762,1.455Z" style="fill:white;fill-rule:nonzero;"></path>
            </g>
            <g transform="matrix(1.21443e-16,-1.88583,1.98332,1.15474e-16,648.157,-64.1684)">
                <path d="M0,-1.99L3.214,-1.99L3.214,-1.553L0.411,-1.553L0.411,0L0,0L0,-1.99Z" style="fill:white;fill-rule:nonzero;"></path>
            </g>
            <g transform="matrix(1.21443e-16,-1.88583,1.98332,1.15474e-16,650.097,-66.5726)">
                <path d="M0,0.442L-1.275,0.442L-1.275,0.005L0.005,0.005L1.939,-1.116L1.939,-0.623L0.437,0.231L1.939,1.075L1.939,1.558L0,0.442Z" style="fill:white;fill-rule:nonzero;"></path>
            </g>
            <g transform="matrix(1.21443e-16,-1.88583,1.98332,1.15474e-16,654.269,-70.6362)">
                <path d="M0,0.067C0,0.278 -0.195,0.504 -0.468,0.504C-0.895,0.504 -1.219,0.123 -1.471,-0.257L-1.296,-0.437C-1.039,-0.081 -0.823,0.088 -0.643,0.088C-0.514,0.088 -0.432,-0.005 -0.303,-0.283C-0.139,-0.262 0,-0.149 0,0.067" style="fill:white;fill-rule:nonzero;"></path>
            </g>
            <g transform="matrix(1.21443e-16,-1.88583,1.98332,1.15474e-16,656.738,-65.7779)">
                <path d="M0,1.363C0.329,1.363 0.452,1.116 0.592,0.592C0.715,0.134 0.91,-0.37 1.532,-0.37C2.073,-0.37 2.438,0.067 2.438,0.705C2.438,1.075 2.345,1.409 2.155,1.717L1.774,1.564C1.939,1.317 2.042,0.998 2.042,0.71C2.042,0.247 1.831,0.056 1.564,0.056C1.239,0.056 1.126,0.329 0.988,0.838C0.864,1.305 0.638,1.785 0.031,1.785C-0.525,1.785 -0.931,1.327 -0.931,0.653C-0.931,0.278 -0.823,-0.114 -0.627,-0.422L-0.232,-0.279C-0.411,-0.005 -0.54,0.288 -0.54,0.663C-0.54,1.07 -0.319,1.363 0,1.363" style="fill:white;fill-rule:nonzero;"></path>
            </g>
            <g transform="matrix(1.21443e-16,-1.88583,1.98332,1.15474e-16,664.624,-65.8839)">
                <path d="M0,2.289C-0.545,2.289 -0.91,1.924 -0.91,1.097L-0.91,0L2.304,0L2.304,1.065C2.304,1.843 1.955,2.186 1.45,2.186C1.121,2.186 0.88,1.996 0.746,1.637C0.638,2.063 0.36,2.289 0,2.289M1.903,1.102L1.903,0.438L0.895,0.438L0.895,1.034C0.895,1.497 1.101,1.749 1.414,1.749C1.723,1.749 1.903,1.523 1.903,1.102M0.499,1.07L0.499,0.438L-0.509,0.438L-0.509,1.138C-0.509,1.615 -0.339,1.852 -0.005,1.852C0.365,1.852 0.499,1.523 0.499,1.07" style="fill:white;fill-rule:nonzero;"></path>
            </g>
            <g transform="matrix(1.21443e-16,-1.88583,1.98332,1.15474e-16,674.44,-64.1684)">
                <path d="M0,-2.037L3.214,-2.037L3.214,0L2.807,0L2.807,-1.6L1.815,-1.6L1.815,-0.268L1.409,-0.268L1.409,-1.6L0.406,-1.6L0.406,0L0,0L0,-2.037Z" style="fill:white;fill-rule:nonzero;"></path>
            </g>
            <g transform="matrix(1.21443e-16,-1.88583,1.98332,1.15474e-16,676.134,-65.7779)">
                <path d="M0,1.363C0.329,1.363 0.452,1.116 0.592,0.592C0.715,0.134 0.91,-0.37 1.532,-0.37C2.073,-0.37 2.438,0.067 2.438,0.705C2.438,1.075 2.345,1.409 2.155,1.717L1.774,1.564C1.939,1.317 2.042,0.998 2.042,0.71C2.042,0.247 1.831,0.056 1.564,0.056C1.239,0.056 1.126,0.329 0.988,0.838C0.864,1.305 0.638,1.785 0.031,1.785C-0.525,1.785 -0.931,1.327 -0.931,0.653C-0.931,0.278 -0.823,-0.114 -0.627,-0.422L-0.232,-0.279C-0.411,-0.005 -0.54,0.288 -0.54,0.663C-0.54,1.07 -0.319,1.363 0,1.363" style="fill:white;fill-rule:nonzero;"></path>
            </g>
            <g transform="matrix(1.21443e-16,-1.88583,1.98332,1.15474e-16,682.446,-69.4528)">
                <path d="M0,0.432L-2.802,0.432L-2.802,-0L0,-0L0,-1.126L0.412,-1.126L0.412,1.558L0,1.558L0,0.432Z" style="fill:white;fill-rule:nonzero;"></path>
            </g>
            <g transform="matrix(1.21443e-16,-1.88583,1.98332,1.15474e-16,690.03,-65.7779)">
                <path d="M0,1.363C0.329,1.363 0.452,1.116 0.592,0.591C0.715,0.134 0.91,-0.37 1.532,-0.37C2.073,-0.37 2.438,0.066 2.438,0.705C2.438,1.075 2.345,1.409 2.155,1.717L1.774,1.562C1.939,1.316 2.042,0.998 2.042,0.71C2.042,0.247 1.831,0.056 1.564,0.056C1.239,0.056 1.126,0.329 0.988,0.838C0.864,1.305 0.638,1.785 0.031,1.785C-0.525,1.785 -0.931,1.327 -0.931,0.653C-0.931,0.278 -0.823,-0.114 -0.627,-0.422L-0.232,-0.279C-0.411,-0.005 -0.54,0.288 -0.54,0.663C-0.54,1.07 -0.319,1.363 0,1.363" style="fill:white;fill-rule:nonzero;"></path>
            </g>
            <g transform="matrix(1.21443e-16,-1.88583,1.98332,1.15474e-16,697.324,-64.0228)">
                <path d="M0,-0.011C0,-0.819 0.499,-1.266 1.27,-1.266L3.291,-1.266L3.291,-0.834L1.337,-0.834C0.756,-0.834 0.411,-0.556 0.411,0.015C0.411,0.514 0.705,0.822 1.306,0.822L3.291,0.822L3.291,1.255L1.316,1.255C0.504,1.255 0,0.832 0,-0.011" style="fill:white;fill-rule:nonzero;"></path>
            </g>
            <g transform="matrix(1.21443e-16,-1.88583,1.98332,1.15474e-16,705.086,-64.1684)">
                <path d="M0,-1.414L0,-1.851L3.214,-1.851L3.214,-0.89C3.214,-0.113 2.844,0.293 2.273,0.293C1.79,0.293 1.491,0.01 1.347,-0.433L0,0.437L0,-0.082L1.275,-0.864L1.239,-1.414L0,-1.414ZM1.64,-0.885C1.656,-0.463 1.856,-0.144 2.252,-0.144C2.633,-0.144 2.813,-0.452 2.813,-0.941L2.813,-1.414L1.625,-1.414L1.64,-0.885Z" style="fill:white;fill-rule:nonzero;"></path>
            </g>
            <g transform="matrix(1.21443e-16,-1.88583,1.98332,1.15474e-16,710.91,-70.2292)">
                <path d="M0,-1.984L0,0L-0.412,0L-0.412,-1.547L-1.455,-1.547L-1.455,-0.267L-1.862,-0.267L-1.862,-1.547L-3.214,-1.547L-3.214,-1.984L0,-1.984Z" style="fill:white;fill-rule:nonzero;"></path>
            </g>
            <g transform="matrix(1.21443e-16,-1.88583,1.98332,1.15474e-16,710.964,-64.1684)">
                <path d="M0,2.9L0,2.453L0.843,2.149L0.843,0.755L0,0.452L0,0L3.214,1.208L3.214,1.707L0,2.9ZM2.762,1.455L1.239,0.9L1.239,2.004L2.762,1.455Z" style="fill:white;fill-rule:nonzero;"></path>
            </g>
            <g transform="matrix(1.21443e-16,-1.88583,1.98332,1.15474e-16,717.462,-69.1241)">
                <path d="M0,2.35C0.185,2.067 0.272,1.805 0.272,1.471C0.272,0.771 -0.211,0.303 -1.008,0.303C-1.805,0.303 -2.314,0.777 -2.314,1.481C-2.314,1.825 -2.175,2.164 -2,2.391L-2.438,2.463C-2.602,2.201 -2.705,1.83 -2.705,1.471C-2.705,0.53 -2.052,-0.139 -1.029,-0.139C-0.006,-0.139 0.663,0.535 0.663,1.471C0.663,1.835 0.56,2.227 0.396,2.489L0,2.35Z" style="fill:white;fill-rule:nonzero;"></path>
            </g>
            <g transform="matrix(1.21443e-16,-1.88583,1.98332,1.15474e-16,727.693,-64.1684)">
                <path d="M0,-2.037L3.214,-2.037L3.214,0L2.807,0L2.807,-1.6L1.815,-1.6L1.815,-0.267L1.409,-0.267L1.409,-1.6L0.406,-1.6L0.406,0L0,0L0,-2.037Z" style="fill:white;fill-rule:nonzero;"></path>
            </g>
            <g transform="matrix(1.21443e-16,-1.88583,1.98332,1.15474e-16,729.387,-65.7779)">
                <path d="M0,1.363C0.329,1.363 0.452,1.116 0.592,0.592C0.715,0.134 0.91,-0.37 1.532,-0.37C2.073,-0.37 2.438,0.067 2.438,0.705C2.438,1.075 2.345,1.409 2.155,1.717L1.774,1.563C1.939,1.317 2.042,0.998 2.042,0.71C2.042,0.247 1.831,0.057 1.564,0.057C1.239,0.057 1.126,0.329 0.988,0.838C0.864,1.306 0.638,1.785 0.031,1.785C-0.525,1.785 -0.931,1.327 -0.931,0.653C-0.931,0.278 -0.823,-0.114 -0.627,-0.422L-0.232,-0.278C-0.411,-0.005 -0.54,0.288 -0.54,0.663C-0.54,1.07 -0.319,1.363 0,1.363" style="fill:white;fill-rule:nonzero;"></path>
            </g>
            <g transform="matrix(1.21443e-16,-1.88583,1.98332,1.15474e-16,614.47,-103.268)">
                <path d="M0,16.958L2.007,17.352L1.103,12.354C1.928,11.135 2.557,9.6 2.557,7.751C2.557,3.936 0,0.905 -3.305,0.905C-5.744,0.905 -7.476,2.519 -8.184,4.486L-8.254,4.486C-8.694,2.361 -10.05,-0.039 -12.03,-0.039C-12.5,-0.039 -12.995,0.035 -13.429,0.287C-14.416,0.859 -15.194,2.106 -15.427,3.741C-16.331,1.746 -17.877,-0.394 -19.949,-0.394C-22.658,-0.394 -24.2,1.928 -24.2,6.295C-24.2,8.605 -23.691,10.636 -22.812,12.271L-22.531,11.865L-22.812,11.243C-23.19,10.425 -23.408,9.471 -23.408,8.42C-23.408,5.036 -21.574,2.636 -18.949,2.636C-17.803,2.636 -16.716,3.102 -15.972,3.839C-15.635,4.175 -14.683,5.272 -14.683,9.158L-14.683,16.514C-12.625,16.085 -11.207,14.077 -11.207,10.781C-11.207,9.364 -11.313,7.2 -11.313,6.099C-11.313,3.936 -11.239,2.833 -10.185,2.833C-9.272,2.833 -8.64,3.738 -8.394,5.115C-8.513,5.666 -8.695,6.729 -8.695,7.633C-8.695,11.607 -6.177,14.636 -2.99,14.636C-1.652,14.636 -0.354,13.968 0.472,13.063L0.551,13.103L0,16.958ZM-8.38,7.751C-8.38,5.862 -6.413,4.8 -2.99,4.8C0.275,4.8 2.203,5.862 2.203,7.712C2.203,10.151 -0.118,10.899 -3.384,10.899C-6.531,10.899 -8.38,9.64 -8.38,7.751" style="fill:white;fill-rule:nonzero;"></path>
            </g>
            <g transform="matrix(1.21443e-16,-1.88583,1.98332,1.15474e-16,575.711,-76.0155)">
                <path d="M0,-11.768L0.157,-9.918C0.275,-8.541 0.551,-8.029 0.787,-8.029L24.009,-8.029L24.009,-8.979C23.772,-12.678 20.349,-15.237 17.673,-16.614L17.161,-16.89L17.161,-17.166L24.363,-15.866L24.363,4.493L17.161,5.398L17.161,5.162L17.673,4.925C21.058,3.39 23.891,0.911 24.009,-2.632L24.009,-3.621L0.669,-3.621C0.394,-3.621 0.315,-3.385 0.118,-1.338L0,0.079L-0.236,0.197L-0.236,-11.886L0,-11.768Z" style="fill:white;fill-rule:nonzero;"></path>
            </g>
            <g transform="matrix(1.21443e-16,-1.88583,1.98332,1.15474e-16,596.315,-81.5819)">
                <path d="M0,1.835L6.14,2.071C5.077,-2.573 3.503,-3.557 1.535,-3.557C-0.158,-3.557 -1.378,-2.416 -1.378,-1.078C-1.378,-0.054 -1.024,0.812 0,1.835M-0.472,1.875L-0.394,1.835C-2.047,0.3 -3.543,-1.353 -3.543,-3.36C-3.543,-5.643 -1.811,-7.414 0.157,-7.414C2.795,-7.414 4.762,-5.446 6.534,2.071L7.833,2.111C11.455,2.229 13.107,0.654 13.107,-1.825C13.107,-3.242 12.438,-4.502 12.005,-4.502C11.729,-4.502 10.824,-3.4 9.761,-3.4C8.777,-3.4 7.873,-4.266 7.873,-5.486C7.873,-6.667 8.581,-7.532 9.643,-7.532C11.965,-7.532 14.091,-2.494 14.091,0.694C14.091,4.708 12.674,6.283 7.951,6.047L0.512,5.653C-0.905,5.574 -1.614,6.165 -1.614,7.07C-1.614,7.7 -0.951,8.495 0.551,9.367L-0.359,9.14C-1.344,8.352 -3.582,6.716 -3.582,4.827C-3.582,3.095 -2.44,2.111 -0.472,1.875" style="fill:white;fill-rule:nonzero;"></path>
            </g>
            <g transform="matrix(1.21443e-16,-1.88583,1.98332,1.15474e-16,664.2,-118.25)">
                <path d="M0,-5.706C1.102,-5.706 2.519,-4.919 2.519,-3.187C2.519,-1.494 1.102,-0.668 0,-0.668C-1.023,-0.668 -2.44,-1.494 -2.44,-3.187C-2.44,-4.919 -1.023,-5.706 0,-5.706M-22.396,-7.123L-22.356,-6.494C-22.278,-5.273 -22.238,-4.84 -21.766,-4.84L-10.588,-4.84C-8.188,-4.84 -7.833,-5.116 -7.518,-6.454L-7.321,-7.36L-7.163,-7.32L-5.432,-0.944L-21.845,-0.944C-22.159,-0.944 -22.199,-0.708 -22.356,1.024L-22.396,1.536L-22.632,1.654L-22.632,-7.241L-22.396,-7.123Z" style="fill:white;fill-rule:nonzero;"></path>
            </g>
            <g transform="matrix(1.21443e-16,-1.88583,1.98332,1.15474e-16,707.214,-76.0155)">
                <path d="M0,-19.601L0.039,-18.971C0.118,-17.751 0.157,-17.319 0.63,-17.319L11.769,-17.319C14.209,-17.319 14.563,-17.594 14.878,-18.932L15.075,-19.837L15.231,-19.798L16.964,-13.382L13.619,-13.5L13.579,-13.382C14.957,-11.768 17.043,-9.447 17.043,-6.692C17.043,-5.431 16.648,-4.409 15.823,-3.622C14.957,-2.716 13.422,-2.402 11.689,-2.402L0.59,-2.402C0.354,-2.402 0.236,-2.323 0.039,-0.354L0,0.118L-0.236,0.236L-0.236,-8.62L0,-8.501L0.039,-7.793C0.118,-6.415 0.315,-6.298 0.63,-6.298L11.139,-6.298C13.5,-6.298 14.483,-7.439 14.483,-9.643C14.483,-11.296 13.854,-12.516 13.066,-13.422L0.551,-13.422C0.236,-13.422 0.157,-13.225 0.039,-11.612L0,-11.02L-0.236,-10.943L-0.236,-19.719L0,-19.601Z" style="fill:white;fill-rule:nonzero;"></path>
            </g>
            <g transform="matrix(1.21443e-16,-1.88583,1.98332,1.15474e-16,721.422,-81.5819)">
                <path d="M0,2.243L6.14,2.479C5.077,-2.164 3.503,-3.149 1.535,-3.149C-0.158,-3.149 -1.378,-2.008 -1.378,-0.669C-1.378,0.354 -1.024,1.22 0,2.243M-0.472,2.282L-0.394,2.243C-2.047,0.709 -3.543,-0.945 -3.543,-2.952C-3.543,-5.236 -1.811,-7.007 0.157,-7.007C2.795,-7.007 4.762,-5.038 6.534,2.479L7.833,2.519C11.455,2.638 13.107,1.062 13.107,-1.417C13.107,-2.834 12.438,-4.094 12.005,-4.094C11.729,-4.094 10.824,-2.991 9.761,-2.991C8.777,-2.991 7.873,-3.858 7.873,-5.077C7.873,-6.259 8.581,-7.124 9.643,-7.124C11.965,-7.124 14.091,-2.086 14.091,1.101C14.091,5.116 12.674,6.691 7.951,6.455L0.512,6.061C-0.905,5.982 -1.614,6.573 -1.614,7.478C-1.614,8.108 -1.063,8.658 -0.551,9.132L-0.669,9.367C-1.653,8.581 -3.582,7.124 -3.582,5.234C-3.582,3.504 -2.44,2.519 -0.472,2.282" style="fill:white;fill-rule:nonzero;"></path>
            </g>
            <g transform="matrix(1.21443e-16,-1.88583,1.98332,1.15474e-16,470.137,311.506)">
                <g transform="matrix(1,0,0,1,0,-106.09)">
                    <rect x="205.641" y="123.425" width="23.717" height="0.972" style="fill:rgb(198,146,20);"></rect>
                </g>
                <g transform="matrix(1,0,0,1,0,-106.09)">
                    <rect x="217.014" y="112.052" width="0.972" height="23.718" style="fill:rgb(198,146,20);"></rect>
                </g>
                <g transform="matrix(1,0,0,1,211.093,24.2633)">
                    <path d="M0,-4.476L0.972,-4.476C0.972,-2.544 2.544,-0.972 4.477,-0.972L4.477,0C2.008,0 0,-2.008 0,-4.476" style="fill:rgb(198,146,20);fill-rule:nonzero;"></path>
                </g>
                <g transform="matrix(0.616446,0.787397,0.787397,-0.616446,210.189,25.1468)">
                    <path d="M2.621,-0.904C0.677,0.617 0.334,3.436 1.856,5.38L2.621,4.782C1.429,3.26 1.699,1.052 3.22,-0.139L2.621,-0.904Z" style="fill:rgb(198,146,20);fill-rule:nonzero;"></path>
                </g>
                <g transform="matrix(0,-1,-1,0,208.56,27.7679)">
                    <path d="M3.505,0.972L4.477,0.972C4.477,-1.496 2.469,-3.505 -0,-3.505L-0,-2.532C1.933,-2.532 3.505,-0.96 3.505,0.972" style="fill:rgb(198,146,20);fill-rule:nonzero;"></path>
                </g>
                <g transform="matrix(0,-1,-1,0,212.064,24.2634)">
                    <path d="M0,4.476L0.972,4.476C0.972,2.544 2.544,0.972 4.476,0.972L4.476,0C2.008,0 0,2.008 0,4.476" style="fill:rgb(198,146,20);fill-rule:nonzero;"></path>
                </g>
                <g transform="matrix(1,0,0,1,0,-106.089)">
                    <path d="M205.155,111.566L229.844,111.566L229.844,136.255L205.155,136.255L205.155,111.566ZM206.125,135.283L228.872,135.283L228.872,112.537L206.125,112.537L206.125,135.283Z" style="fill:rgb(198,146,20);fill-rule:nonzero;"></path>
                </g>
                <g transform="matrix(1,0,0,1,0,-94.176)">
                    <path d="M219.383,113.989L227.313,113.989L227.313,121.919L219.383,121.919L219.383,113.989ZM220.354,120.947L226.34,120.947L226.34,114.961L220.354,114.961L220.354,120.947Z" style="fill:rgb(198,146,20);fill-rule:nonzero;"></path>
                </g>
                <g transform="matrix(1,0,0,1,219.383,25.4036)">
                    <path d="M0,-3.252L0,-5.105L0.486,-5.591L2.339,-5.591L2.682,-5.448L7.787,-0.343L7.93,-0L7.93,1.853L7.444,2.339L5.591,2.339L5.248,2.197L0.142,-2.909L0,-3.252ZM0.972,-4.619L0.972,-3.453L5.792,1.367L6.958,1.367L6.958,0.201L2.137,-4.619L0.972,-4.619Z" style="fill:rgb(198,146,20);fill-rule:nonzero;"></path>
                </g>
                <g transform="matrix(1,0,0,1,219.11,11.9221)">
                    <path d="M0,0C0,-1.102 0.896,-1.999 1.999,-1.999L2.171,-1.999C2.192,-2.021 2.215,-2.043 2.238,-2.063L2.238,-2.238C2.238,-3.34 3.135,-4.237 4.237,-4.237C5.34,-4.237 6.235,-3.34 6.235,-2.238L6.235,-2.067C6.261,-2.045 6.285,-2.023 6.309,-1.999L6.476,-1.999C7.578,-1.999 8.475,-1.102 8.475,0C8.475,1.102 7.578,1.999 6.476,1.999L6.337,1.999C6.304,2.033 6.271,2.065 6.235,2.096L6.235,2.238C6.235,3.34 5.34,4.237 4.237,4.237C3.135,4.237 2.238,3.34 2.238,2.238L2.238,2.092C2.205,2.062 2.173,2.031 2.143,1.999L1.999,1.999C0.896,1.999 0,1.102 0,0M5.265,-2.238C5.265,-2.805 4.804,-3.266 4.237,-3.266C3.671,-3.266 3.21,-2.805 3.21,-2.238L3.21,-1.573L2.998,-1.429C2.913,-1.371 2.837,-1.298 2.77,-1.214L2.625,-1.028L1.999,-1.028C1.432,-1.028 0.972,-0.567 0.972,0C0.972,0.567 1.432,1.028 1.999,1.028L2.61,1.028L2.756,1.223C2.826,1.316 2.907,1.395 2.998,1.458L3.21,1.602L3.21,2.238C3.21,2.805 3.671,3.266 4.237,3.266C4.804,3.266 5.265,2.805 5.265,2.238L5.265,1.604L5.478,1.46C5.57,1.397 5.652,1.318 5.723,1.223L5.868,1.028L6.476,1.028C7.042,1.028 7.503,0.567 7.503,0C7.503,-0.567 7.042,-1.028 6.476,-1.028L5.854,-1.028L5.709,-1.214C5.641,-1.3 5.563,-1.373 5.478,-1.431L5.265,-1.575L5.265,-2.238Z" style="fill:rgb(198,146,20);fill-rule:nonzero;"></path>
                </g>
                <g transform="matrix(0.707107,-0.707107,-0.707107,-0.707107,222.862,14.3172)">
                    <rect x="-0.358" y="0.864" width="4.79" height="0.972" style="fill:rgb(198,146,20);"></rect>
                </g>
                <g transform="matrix(0.707107,-0.707107,-0.707107,-0.707107,220.953,12.4081)">
                    <rect x="1.551" y="-3.744" width="0.972" height="4.789" style="fill:rgb(198,146,20);"></rect>
                </g>
                <g transform="matrix(1,0,0,1,207.54,11.9221)">
                    <path d="M0,0C0,-2.186 1.779,-3.965 3.965,-3.965C6.151,-3.965 7.929,-2.186 7.929,0C7.929,2.186 6.151,3.965 3.965,3.965C1.779,3.965 0,2.186 0,0M6.958,0C6.958,-1.65 5.615,-2.993 3.965,-2.993C2.314,-2.993 0.972,-1.65 0.972,0C0.972,1.65 2.314,2.993 3.965,2.993C5.615,2.993 6.958,1.65 6.958,0" style="fill:rgb(198,146,20);fill-rule:nonzero;"></path>
                </g>
                <g transform="matrix(1,0,0,1,208.956,11.9221)">
                    <path d="M0,0C0,-0.268 0.217,-0.486 0.486,-0.486L4.611,-0.486C4.879,-0.486 5.096,-0.268 5.096,0C5.096,0.268 4.879,0.486 4.611,0.486L0.486,0.486C0.217,0.486 0,0.268 0,0" style="fill:rgb(198,146,20);fill-rule:nonzero;"></path>
                </g>
                <g transform="matrix(1,0,0,1,211.019,9.8596)">
                    <path d="M0,4.125L0,0C0,-0.268 0.217,-0.486 0.486,-0.486C0.754,-0.486 0.972,-0.268 0.972,0L0.972,4.125C0.972,4.393 0.754,4.611 0.486,4.611C0.217,4.611 0,4.393 0,4.125" style="fill:rgb(198,146,20);fill-rule:nonzero;"></path>
                </g>
                <g transform="matrix(1,0,0,1,209.56,13.3806)">
                    <path d="M0,-2.917C0,-3.041 0.047,-3.166 0.142,-3.26C0.332,-3.45 0.639,-3.45 0.829,-3.26L3.746,-0.344C3.936,-0.154 3.936,0.154 3.746,0.343C3.557,0.533 3.249,0.533 3.059,0.343L0.142,-2.574C0.047,-2.668 0,-2.793 0,-2.917" style="fill:rgb(198,146,20);fill-rule:nonzero;"></path>
                </g>
                <g transform="matrix(1,0,0,1,209.56,10.4636)">
                    <path d="M0,2.917C0,2.793 0.047,2.668 0.142,2.574L3.059,-0.343C3.249,-0.533 3.557,-0.533 3.746,-0.343C3.936,-0.154 3.936,0.154 3.746,0.344L0.829,3.26C0.639,3.45 0.332,3.45 0.142,3.26C0.047,3.166 0,3.041 0,2.917" style="fill:rgb(198,146,20);fill-rule:nonzero;"></path>
                </g>
            </g>
        </g>
    </g>
</svg>