<?xml version="1.0" encoding="utf-8"?>
<!-- Generator: Adobe Illustrator 22.1.0, SVG Export Plug-In . SVG Version: 6.00 Build 0)  -->
<svg version="1.1" id="Livello_1" xmlns="http://www.w3.org/2000/svg" xmlns:xlink="http://www.w3.org/1999/xlink" x="0px" y="0px"
	 width="418.4px" height="106.7px" viewBox="0 0 418.4 106.7" style="enable-background:new 0 0 418.4 106.7;" xml:space="preserve"
	>
<style type="text/css">
	.st0{fill:#FFFFFF;}
	.st1{fill-rule:evenodd;clip-rule:evenodd;}
	.st2{fill:none;}
	.st3{fill:url(#SVGID_1_);}
</style>
<g>
	<path class="st0" d="M34.3,72.6"/>
	<path d="M0,0.5v98.8h100.6V0.5H0z M29.9,78.9h-20v-10c0-30.1,24.4-54.6,54.6-54.6l0,20c-19.1,0-34.5,15.5-34.5,34.5V78.9z
		 M64.4,78.9c-5.5,0-10-4.5-10-10c0-5.5,4.5-10,10-10c5.5,0,10,4.5,10,10C74.4,74.5,69.9,78.9,64.4,78.9z M75.7,63.9
		c-1.9-4.3-6.3-7.3-11.3-7.3s-9.4,3-11.3,7.3l-15-13.2c5.8-8.3,15.4-13.8,26.3-13.8s20.5,5.4,26.3,13.8L75.7,63.9z"/>
</g>
<path class="st1" d="M223.4,21.6c0.6-0.9,0.8-1.8,0.8-2.7c0-1.5-0.5-2.5-1.5-3.4c-0.8-0.7-2.6-1.5-6.1-1.5l-13.1,0v10l11.4,0
	c3,0,5-0.3,6.3-0.8C222.2,22.8,222.9,22.3,223.4,21.6z M233.5,41l13,20.4h-17.9l-8.2-12.9c-2-3.1-3.6-5.4-4.9-7.1
	c-1.2-1.6-2.1-2.4-2.7-2.7c-0.7-0.5-1.4-0.8-2-0.9c-0.5-0.1-1.4-0.1-3-0.1l-4.4,0v23.7h-14.7v-61h27.5c4.9,0,9.1,0.5,12.2,1.7
	c3.3,1.3,5.9,3.5,7.8,6.6c1.9,3,2.8,6.4,2.8,10c0,7.7-4.1,13.2-10.3,16.1C230.5,36.7,232.1,38.8,233.5,41z M177.5,61.5h-14.7v-61
	h14.7V61.5z M154.9,14.4l-28.9,0v8.9l25.1,0v13.9l-25.1,0l0,24.3h-14.7v-61h43.6V14.4z"/>
<g>
	<rect x="111.2" y="68.2" class="st1" width="4.1" height="31.1"/>
	<polygon class="st1" points="131.8,99.3 131.8,71.9 121.6,71.9 121.6,68.2 146.2,68.2 146.2,71.9 135.9,71.9 135.9,99.3 	"/>
	<path class="st1" d="M148.3,99.3l11.9-31.1h4.4l12.7,31.1h-4.7l-3.6-9.4h-13l-3.4,9.4H148.3z M157.3,86.5h10.5l-3.2-8.6
		c-1-2.6-1.7-4.8-2.2-6.4c-0.4,2-1,4-1.7,5.9L157.3,86.5z"/>
	<polygon class="st1" points="181.9,99.3 181.9,68.2 186,68.2 186,95.6 201.3,95.6 201.3,99.3 	"/>
	<rect x="208.2" y="68.2" class="st1" width="4.1" height="31.1"/>
	<path class="st1" d="M217.4,99.3l11.9-31.1h4.4l12.7,31.1h-4.7l-3.6-9.4h-13l-3.4,9.4H217.4z M226.4,86.5H237l-3.2-8.6
		c-1-2.6-1.7-4.8-2.2-6.4c-0.4,2-1,4-1.7,5.9L226.4,86.5z"/>
</g>
<g>
	<g>
		<path d="M300.8,9.8c0,1.8-0.2,3.5-0.7,5.3c-0.4,1.8-1.1,3.3-1.9,4.8c-0.8,1.4-1.8,2.6-3,3.4c-1.2,0.9-2.5,1.3-3.9,1.3
			c-1,0-1.9-0.2-2.6-0.6c-0.8-0.4-1.4-0.9-1.9-1.6c-0.5-0.7-0.9-1.5-1.2-2.5c-0.3-1-0.4-2.1-0.4-3.3c0-1.8,0.2-3.5,0.7-5.3
			c0.4-1.8,1.1-3.4,1.9-4.8c0.8-1.4,1.8-2.6,3-3.5c1.2-0.9,2.5-1.3,4-1.3c1,0,1.9,0.2,2.7,0.6c0.8,0.4,1.4,1,1.9,1.7
			c0.5,0.7,0.9,1.6,1.2,2.6C300.6,7.5,300.8,8.6,300.8,9.8z M297.9,10.2c0-0.7,0-1.5-0.1-2.2c-0.1-0.7-0.2-1.4-0.5-2
			c-0.2-0.6-0.6-1.1-1-1.4c-0.4-0.4-1-0.5-1.8-0.5c-0.7,0-1.3,0.2-1.9,0.6c-0.6,0.4-1.1,0.9-1.6,1.6c-0.5,0.7-0.9,1.4-1.3,2.3
			c-0.4,0.9-0.7,1.8-0.9,2.7c-0.2,0.9-0.4,1.9-0.6,2.9c-0.1,1-0.2,1.9-0.2,2.7c0,0.7,0.1,1.5,0.2,2.1c0.1,0.7,0.3,1.2,0.6,1.7
			c0.3,0.5,0.6,0.9,1.1,1.2c0.4,0.3,1,0.4,1.6,0.4c1,0,1.9-0.4,2.7-1.1c0.8-0.8,1.5-1.7,2-2.9c0.5-1.2,1-2.5,1.3-3.9
			C297.7,12.9,297.9,11.5,297.9,10.2z"/>
		<path d="M314.9,13.4c0,1.3-0.2,2.6-0.5,3.9c-0.3,1.3-0.8,2.5-1.3,3.6s-1.3,2-2.1,2.7c-0.8,0.7-1.7,1-2.7,1c-1.1,0-1.8-0.3-2.3-0.9
			c-0.5-0.6-0.8-1.3-0.9-2.2H305l-0.4,2.5h-2.5l4.1-23.5h2.5L307,10.9h0.1c0.4-0.8,0.9-1.5,1.6-2.1C309.3,8.3,310,8,311,8
			c1.3,0,2.3,0.5,2.9,1.5C314.6,10.5,314.9,11.8,314.9,13.4z M312.3,13.7c0-1.1-0.2-1.9-0.5-2.5c-0.3-0.6-0.9-1-1.7-1
			c-0.7,0-1.3,0.3-1.8,0.9c-0.5,0.6-1,1.3-1.4,2.1c-0.4,0.8-0.7,1.8-0.9,2.8c-0.2,1-0.3,1.9-0.3,2.8c0,1.1,0.2,2,0.5,2.7
			c0.3,0.7,0.9,1,1.7,1c0.7,0,1.3-0.3,1.9-0.9c0.5-0.6,1-1.3,1.3-2.2c0.4-0.9,0.6-1.8,0.8-2.8C312.2,15.5,312.3,14.6,312.3,13.7z"/>
		<path d="M325.4,11.1c-0.5-0.7-1.4-1.1-2.5-1.1c-0.7,0-1.3,0.2-1.8,0.7c-0.5,0.5-0.8,1.1-0.8,1.9c0,0.7,0.2,1.2,0.5,1.5
			c0.3,0.3,0.8,0.7,1.5,1c0.8,0.5,1.6,1,2.1,1.7c0.6,0.6,0.8,1.5,0.8,2.5c0,0.9-0.2,1.7-0.5,2.3c-0.3,0.7-0.7,1.2-1.2,1.6
			s-1.1,0.8-1.7,1c-0.7,0.2-1.3,0.3-2.1,0.3c-0.9,0-1.7-0.2-2.5-0.6c-0.8-0.4-1.3-0.8-1.8-1.4l1.7-1.6c0.3,0.4,0.7,0.7,1.1,1
			s1,0.5,1.7,0.5c0.7,0,1.4-0.2,1.9-0.7c0.5-0.5,0.8-1.1,0.8-2c0-0.7-0.2-1.3-0.7-1.8c-0.5-0.5-1-0.8-1.6-1.1
			c-0.7-0.4-1.3-0.9-1.8-1.5c-0.5-0.6-0.7-1.4-0.7-2.4c0-0.8,0.1-1.5,0.4-2.1c0.3-0.6,0.7-1.1,1.1-1.6c0.5-0.4,1-0.7,1.7-1
			c0.6-0.2,1.3-0.3,2-0.3c0.9,0,1.6,0.1,2.2,0.4c0.6,0.3,1.1,0.6,1.4,1L325.4,11.1z"/>
		<path d="M339.2,13.1c0,0.2,0,0.4,0,0.7c0,0.2,0,0.5,0,0.8c0,0.3-0.1,0.6-0.1,1c-0.1,0.4-0.1,0.9-0.2,1.4h-8.1
			c0,0.3-0.1,0.6-0.1,0.9c0,0.3,0,0.6,0,0.9c0,1,0.2,1.9,0.6,2.5c0.4,0.6,1,1,1.8,1c0.7,0,1.3-0.2,1.8-0.7c0.5-0.4,0.9-1,1.3-1.6
			l1.8,1.1c-0.6,1-1.3,1.8-2.1,2.5c-0.8,0.6-1.8,1-3,1c-1.4,0-2.6-0.5-3.4-1.5c-0.8-1-1.3-2.4-1.3-4.2c0-1.3,0.2-2.6,0.5-4
			c0.3-1.3,0.8-2.5,1.4-3.5s1.3-1.9,2.2-2.5c0.9-0.6,1.8-1,2.9-1c0.7,0,1.4,0.1,1.9,0.4c0.5,0.2,1,0.6,1.3,1c0.3,0.4,0.6,1,0.7,1.6
			C339.1,11.7,339.2,12.3,339.2,13.1z M336.8,13.2c0-0.9-0.2-1.6-0.5-2.1c-0.3-0.5-0.8-0.8-1.5-0.8c-0.5,0-1,0.2-1.4,0.5
			c-0.4,0.3-0.8,0.7-1.1,1.2c-0.3,0.5-0.6,1-0.8,1.5c-0.2,0.5-0.3,1-0.4,1.5h5.5C336.7,14.2,336.8,13.7,336.8,13.2z"/>
		<path d="M349.5,11.1c-0.5-0.7-1.4-1.1-2.5-1.1c-0.7,0-1.3,0.2-1.8,0.7c-0.5,0.5-0.8,1.1-0.8,1.9c0,0.7,0.2,1.2,0.5,1.5
			c0.3,0.3,0.8,0.7,1.5,1c0.8,0.5,1.6,1,2.1,1.7c0.6,0.6,0.8,1.5,0.8,2.5c0,0.9-0.2,1.7-0.5,2.3c-0.3,0.7-0.7,1.2-1.2,1.6
			c-0.5,0.4-1.1,0.8-1.7,1c-0.7,0.2-1.3,0.3-2.1,0.3c-0.9,0-1.7-0.2-2.5-0.6c-0.8-0.4-1.3-0.8-1.8-1.4l1.7-1.6
			c0.3,0.4,0.7,0.7,1.1,1s1,0.5,1.7,0.5c0.7,0,1.4-0.2,1.9-0.7c0.5-0.5,0.8-1.1,0.8-2c0-0.7-0.2-1.3-0.7-1.8c-0.5-0.5-1-0.8-1.6-1.1
			c-0.7-0.4-1.3-0.9-1.8-1.5c-0.5-0.6-0.7-1.4-0.7-2.4c0-0.8,0.1-1.5,0.4-2.1c0.3-0.6,0.7-1.1,1.1-1.6c0.5-0.4,1-0.7,1.7-1
			c0.6-0.2,1.3-0.3,2-0.3c0.9,0,1.6,0.1,2.2,0.4c0.6,0.3,1.1,0.6,1.4,1L349.5,11.1z"/>
		<path d="M360.3,11.1c-0.5-0.7-1.4-1.1-2.5-1.1c-0.7,0-1.3,0.2-1.8,0.7c-0.5,0.5-0.8,1.1-0.8,1.9c0,0.7,0.2,1.2,0.5,1.5
			c0.3,0.3,0.8,0.7,1.5,1c0.8,0.5,1.6,1,2.1,1.7c0.6,0.6,0.8,1.5,0.8,2.5c0,0.9-0.2,1.7-0.5,2.3c-0.3,0.7-0.7,1.2-1.2,1.6
			c-0.5,0.4-1.1,0.8-1.7,1c-0.7,0.2-1.3,0.3-2.1,0.3c-0.9,0-1.7-0.2-2.5-0.6c-0.8-0.4-1.3-0.8-1.8-1.4l1.7-1.6
			c0.3,0.4,0.7,0.7,1.1,1s1,0.5,1.7,0.5c0.7,0,1.4-0.2,1.9-0.7c0.5-0.5,0.8-1.1,0.8-2c0-0.7-0.2-1.3-0.7-1.8c-0.5-0.5-1-0.8-1.6-1.1
			c-0.7-0.4-1.3-0.9-1.8-1.5c-0.5-0.6-0.7-1.4-0.7-2.4c0-0.8,0.1-1.5,0.4-2.1c0.3-0.6,0.7-1.1,1.1-1.6c0.5-0.4,1-0.7,1.7-1
			c0.6-0.2,1.3-0.3,2-0.3c0.9,0,1.6,0.1,2.2,0.4c0.6,0.3,1.1,0.6,1.4,1L360.3,11.1z"/>
		<path d="M365.2,24.1h-2.5l2.7-15.5h2.5L365.2,24.1z M369,3.7c0,0.5-0.2,1-0.5,1.4c-0.3,0.4-0.8,0.6-1.3,0.6
			c-0.5,0-0.8-0.1-1.1-0.4c-0.2-0.3-0.4-0.6-0.4-1c0-0.5,0.2-0.9,0.5-1.3c0.3-0.4,0.8-0.6,1.3-0.6c0.5,0,0.8,0.1,1.1,0.4
			S369,3.3,369,3.7z"/>
		<path d="M374.9,24.1h-3l-1.3-15.5h2.6l0.7,12.9h0.1l5.2-12.9h2.7L374.9,24.1z"/>
		<path d="M393.2,13.1c0,0.2,0,0.4,0,0.7c0,0.2,0,0.5,0,0.8c0,0.3-0.1,0.6-0.1,1c-0.1,0.4-0.1,0.9-0.2,1.4h-8.1
			c0,0.3-0.1,0.6-0.1,0.9c0,0.3,0,0.6,0,0.9c0,1,0.2,1.9,0.6,2.5c0.4,0.6,1,1,1.8,1c0.7,0,1.3-0.2,1.8-0.7c0.5-0.4,0.9-1,1.3-1.6
			l1.8,1.1c-0.6,1-1.3,1.8-2.1,2.5c-0.8,0.6-1.8,1-3,1c-1.4,0-2.6-0.5-3.4-1.5c-0.8-1-1.3-2.4-1.3-4.2c0-1.3,0.2-2.6,0.5-4
			c0.3-1.3,0.8-2.5,1.4-3.5c0.6-1,1.3-1.9,2.2-2.5c0.9-0.6,1.8-1,2.9-1c0.7,0,1.4,0.1,1.9,0.4s1,0.6,1.3,1c0.3,0.4,0.6,1,0.7,1.6
			C393.1,11.7,393.2,12.3,393.2,13.1z M390.8,13.2c0-0.9-0.2-1.6-0.5-2.1c-0.3-0.5-0.8-0.8-1.5-0.8c-0.5,0-1,0.2-1.4,0.5
			c-0.4,0.3-0.8,0.7-1.1,1.2c-0.3,0.5-0.6,1-0.8,1.5c-0.2,0.5-0.3,1-0.4,1.5h5.5C390.8,14.2,390.8,13.7,390.8,13.2z"/>
	</g>
	<g>
		<path d="M299.9,48.2c0,1.9-0.2,3.6-0.7,5.3c-0.5,1.7-1.1,3.1-2,4.3c-0.9,1.2-2,2.2-3.3,2.9c-1.3,0.7-2.8,1.1-4.4,1.1h-5l3.8-22h5
			c1.1,0,2.1,0.2,2.9,0.6c0.8,0.4,1.5,1,2,1.7c0.5,0.7,0.9,1.6,1.2,2.7C299.8,45.8,299.9,46.9,299.9,48.2z M297.2,48.3
			c0-1.9-0.4-3.5-1.1-4.5c-0.7-1.1-1.8-1.6-3.2-1.6h-2.3l-3,17.3h2.3c1.1,0,2.1-0.3,3-0.9c0.9-0.6,1.7-1.4,2.3-2.4
			c0.6-1,1.1-2.2,1.5-3.5C297,51.3,297.2,49.8,297.2,48.3z"/>
		<path d="M312.7,50.7c0,0.2,0,0.4,0,0.7c0,0.2,0,0.5,0,0.8c0,0.3-0.1,0.6-0.1,1c-0.1,0.4-0.1,0.9-0.2,1.4h-8.1
			c0,0.3-0.1,0.6-0.1,0.9c0,0.3,0,0.6,0,0.9c0,1,0.2,1.9,0.6,2.5c0.4,0.6,1,1,1.8,1c0.7,0,1.3-0.2,1.8-0.7c0.5-0.4,0.9-1,1.3-1.6
			l1.8,1.1c-0.6,1-1.3,1.8-2.1,2.5c-0.8,0.6-1.8,1-3,1c-1.4,0-2.6-0.5-3.4-1.5c-0.8-1-1.3-2.4-1.3-4.2c0-1.3,0.2-2.6,0.5-4
			c0.3-1.3,0.8-2.5,1.4-3.5c0.6-1,1.3-1.9,2.2-2.5c0.9-0.6,1.8-1,2.9-1c0.7,0,1.4,0.1,1.9,0.4c0.5,0.2,1,0.6,1.3,1
			c0.3,0.4,0.6,1,0.7,1.6C312.6,49.3,312.7,50,312.7,50.7z M310.3,50.8c0-0.9-0.2-1.6-0.5-2.1c-0.3-0.5-0.8-0.8-1.5-0.8
			c-0.5,0-1,0.2-1.4,0.5c-0.4,0.3-0.8,0.7-1.1,1.2c-0.3,0.5-0.6,1-0.8,1.5c-0.2,0.5-0.3,1-0.4,1.5h5.5
			C310.2,51.9,310.3,51.3,310.3,50.8z"/>
		<path d="M323,48.8c-0.5-0.7-1.4-1.1-2.5-1.1c-0.7,0-1.3,0.2-1.8,0.7c-0.5,0.5-0.8,1.1-0.8,1.9c0,0.7,0.2,1.2,0.5,1.5
			c0.3,0.3,0.8,0.7,1.5,1c0.8,0.5,1.6,1,2.1,1.7c0.6,0.6,0.8,1.5,0.8,2.5c0,0.9-0.2,1.7-0.5,2.3c-0.3,0.7-0.7,1.2-1.2,1.6
			c-0.5,0.4-1.1,0.8-1.7,1c-0.7,0.2-1.3,0.3-2.1,0.3c-0.9,0-1.7-0.2-2.5-0.6c-0.8-0.4-1.3-0.8-1.8-1.4l1.7-1.6
			c0.3,0.4,0.7,0.7,1.1,1s1,0.5,1.7,0.5c0.7,0,1.4-0.2,1.9-0.7c0.5-0.5,0.8-1.1,0.8-2c0-0.7-0.2-1.3-0.7-1.8c-0.5-0.5-1-0.8-1.6-1.1
			c-0.7-0.4-1.3-0.9-1.8-1.5c-0.5-0.6-0.7-1.4-0.7-2.4c0-0.8,0.1-1.5,0.4-2.1c0.3-0.6,0.7-1.1,1.1-1.6c0.5-0.4,1-0.7,1.7-1
			c0.6-0.2,1.3-0.3,2-0.3c0.9,0,1.6,0.1,2.2,0.4c0.6,0.3,1.1,0.6,1.4,1L323,48.8z"/>
		<path d="M327.9,61.8h-2.5l2.7-15.5h2.5L327.9,61.8z M331.7,41.3c0,0.5-0.2,1-0.5,1.4c-0.3,0.4-0.8,0.6-1.3,0.6
			c-0.5,0-0.8-0.1-1.1-0.4c-0.2-0.3-0.4-0.6-0.4-1c0-0.5,0.2-0.9,0.5-1.3c0.3-0.4,0.8-0.6,1.3-0.6c0.5,0,0.8,0.1,1.1,0.4
			C331.6,40.5,331.7,40.9,331.7,41.3z"/>
		<path d="M342.5,61.7c-0.2,1.1-0.4,2-0.8,2.9c-0.3,0.9-0.8,1.7-1.3,2.4c-0.5,0.7-1.2,1.2-2,1.6c-0.8,0.4-1.7,0.6-2.8,0.6
			c-1,0-2-0.2-2.9-0.7c-0.9-0.4-1.6-1-2.1-1.7l1.7-1.8c0.4,0.5,0.9,0.9,1.5,1.3c0.6,0.4,1.3,0.5,2,0.5c0.6,0,1.2-0.1,1.7-0.4
			s0.9-0.6,1.2-1.1c0.3-0.5,0.6-1,0.8-1.6c0.2-0.6,0.4-1.3,0.5-2l0.5-2.5h-0.1c-0.2,0.4-0.4,0.8-0.7,1.2c-0.2,0.4-0.5,0.7-0.8,1
			c-0.3,0.3-0.7,0.5-1.1,0.7c-0.4,0.2-0.9,0.2-1.4,0.2c-1.3,0-2.2-0.5-2.9-1.5s-1-2.4-1-4c0-1.3,0.1-2.6,0.5-3.9
			c0.3-1.3,0.7-2.5,1.3-3.6c0.6-1.1,1.2-1.9,2-2.6c0.8-0.7,1.7-1,2.8-1c0.9,0,1.6,0.3,2.2,0.8c0.6,0.5,0.9,1.2,1,2.1h0.1l0.4-2.3
			h2.5L342.5,61.7z M341.6,51.6c0-1.1-0.2-2-0.5-2.7c-0.4-0.7-0.9-1-1.7-1c-0.7,0-1.3,0.3-1.9,0.9c-0.5,0.6-1,1.3-1.3,2.2
			c-0.4,0.9-0.6,1.8-0.8,2.8c-0.2,1-0.3,1.9-0.3,2.8c0,1.1,0.2,1.9,0.5,2.5c0.3,0.6,0.9,1,1.7,1c0.7,0,1.3-0.3,1.8-0.8
			c0.5-0.6,1-1.3,1.4-2.1c0.4-0.8,0.7-1.8,0.9-2.7C341.5,53.4,341.6,52.5,341.6,51.6z"/>
		<path d="M349.5,61.8H347l2-11.6c0-0.2,0.1-0.4,0.1-0.8c0.1-0.4,0.1-0.8,0.2-1.2c0.1-0.4,0.1-0.8,0.2-1.2c0.1-0.4,0.1-0.6,0.1-0.8
			h2.5c0,0.3-0.1,0.7-0.2,1.2c-0.1,0.5-0.2,1-0.2,1.5h0.1c0.4-0.9,1-1.7,1.7-2.3c0.7-0.6,1.6-0.9,2.6-0.9c0.6,0,1.1,0.1,1.5,0.3
			c0.4,0.2,0.7,0.5,1,0.9c0.3,0.4,0.4,0.8,0.6,1.2c0.1,0.5,0.2,0.9,0.2,1.4c0,0.3,0,0.7-0.1,1.1c0,0.4-0.1,0.9-0.2,1.3l-1.7,9.9
			h-2.5l1.7-9.9c0-0.3,0.1-0.6,0.1-0.9c0-0.3,0.1-0.6,0.1-0.9c0-0.6-0.1-1.1-0.4-1.5c-0.2-0.4-0.7-0.6-1.4-0.6
			c-0.5,0-0.9,0.1-1.3,0.4c-0.4,0.2-0.8,0.6-1.1,1c-0.3,0.4-0.6,0.9-0.9,1.5c-0.2,0.6-0.4,1.2-0.6,1.9L349.5,61.8z"/>
	</g>
	<g>
		<path d="M296.9,79.6h-6.4l-1.2,7.1h6.1l-0.4,2.2h-6.1l-1.4,7.9h6.9l-0.4,2.4h-9.5l3.8-22h8.9L296.9,79.6z"/>
		<path d="M299.7,99.3h-2.5l2-11.6c0-0.2,0.1-0.4,0.1-0.8c0.1-0.4,0.1-0.8,0.2-1.2c0.1-0.4,0.1-0.8,0.2-1.2c0.1-0.4,0.1-0.6,0.1-0.8
			h2.5c0,0.3-0.1,0.7-0.2,1.2c-0.1,0.5-0.2,1-0.2,1.5h0.1c0.4-0.9,1-1.7,1.7-2.3c0.7-0.6,1.6-0.9,2.6-0.9c0.6,0,1.1,0.1,1.5,0.3
			c0.4,0.2,0.7,0.5,1,0.9c0.3,0.4,0.4,0.8,0.6,1.2c0.1,0.5,0.2,0.9,0.2,1.4c0,0.3,0,0.7-0.1,1.1c0,0.4-0.1,0.9-0.2,1.3l-1.7,9.9H305
			l1.7-9.9c0-0.3,0.1-0.6,0.1-0.9c0-0.3,0.1-0.6,0.1-0.9c0-0.6-0.1-1.1-0.4-1.5c-0.2-0.4-0.7-0.6-1.4-0.6c-0.5,0-0.9,0.1-1.3,0.4
			c-0.4,0.2-0.8,0.6-1.1,1c-0.3,0.4-0.6,0.9-0.9,1.5c-0.2,0.6-0.4,1.2-0.6,1.9L299.7,99.3z"/>
		<path d="M322.1,99.2c-0.2,1.1-0.4,2-0.8,2.9c-0.3,0.9-0.8,1.7-1.3,2.4c-0.5,0.7-1.2,1.2-2,1.6c-0.8,0.4-1.7,0.6-2.8,0.6
			c-1,0-2-0.2-2.9-0.7c-0.9-0.4-1.6-1-2.1-1.7l1.7-1.8c0.4,0.5,0.9,0.9,1.5,1.3c0.6,0.4,1.3,0.5,2,0.5c0.6,0,1.2-0.1,1.7-0.4
			c0.5-0.3,0.9-0.6,1.2-1.1c0.3-0.5,0.6-1,0.8-1.6c0.2-0.6,0.4-1.3,0.5-2l0.5-2.5H320c-0.2,0.4-0.4,0.8-0.7,1.2
			c-0.2,0.4-0.5,0.7-0.8,1c-0.3,0.3-0.7,0.5-1.1,0.7c-0.4,0.2-0.9,0.2-1.4,0.2c-1.3,0-2.2-0.5-2.9-1.5s-1-2.4-1-4
			c0-1.3,0.1-2.6,0.5-3.9c0.3-1.3,0.7-2.5,1.3-3.6c0.6-1.1,1.2-1.9,2-2.6c0.8-0.7,1.7-1,2.8-1c0.9,0,1.6,0.3,2.2,0.8
			c0.6,0.5,0.9,1.2,1,2.1h0.1l0.4-2.3h2.5L322.1,99.2z M321.2,89.1c0-1.1-0.2-2-0.5-2.7c-0.4-0.7-0.9-1-1.7-1
			c-0.7,0-1.3,0.3-1.9,0.9c-0.5,0.6-1,1.3-1.3,2.2c-0.4,0.9-0.6,1.8-0.8,2.8c-0.2,1-0.3,1.9-0.3,2.8c0,1.1,0.2,1.9,0.5,2.5
			c0.3,0.6,0.9,1,1.7,1c0.7,0,1.3-0.3,1.8-0.8c0.5-0.6,1-1.3,1.4-2.1c0.4-0.8,0.7-1.8,0.9-2.7C321.1,90.9,321.2,90,321.2,89.1z"/>
		<path d="M329.2,99.3h-2.5l2.7-15.5h2.5L329.2,99.3z M333,78.8c0,0.5-0.2,1-0.5,1.4c-0.3,0.4-0.8,0.6-1.3,0.6
			c-0.5,0-0.8-0.1-1.1-0.4c-0.2-0.3-0.4-0.6-0.4-1c0-0.5,0.2-0.9,0.5-1.3c0.3-0.4,0.8-0.6,1.3-0.6c0.5,0,0.8,0.1,1.1,0.4
			C332.9,78,333,78.4,333,78.8z"/>
		<path d="M336.2,99.3h-2.5l2-11.6c0-0.2,0.1-0.4,0.1-0.8c0.1-0.4,0.1-0.8,0.2-1.2c0.1-0.4,0.1-0.8,0.2-1.2c0.1-0.4,0.1-0.6,0.1-0.8
			h2.5c0,0.3-0.1,0.7-0.2,1.2c-0.1,0.5-0.2,1-0.2,1.5h0.1c0.4-0.9,1-1.7,1.7-2.3c0.7-0.6,1.6-0.9,2.6-0.9c0.6,0,1.1,0.1,1.5,0.3
			c0.4,0.2,0.7,0.5,1,0.9c0.3,0.4,0.4,0.8,0.6,1.2c0.1,0.5,0.2,0.9,0.2,1.4c0,0.3,0,0.7-0.1,1.1c0,0.4-0.1,0.9-0.2,1.3l-1.7,9.9
			h-2.5l1.7-9.9c0-0.3,0.1-0.6,0.1-0.9c0-0.3,0.1-0.6,0.1-0.9c0-0.6-0.1-1.1-0.4-1.5c-0.2-0.4-0.7-0.6-1.4-0.6
			c-0.5,0-0.9,0.1-1.3,0.4c-0.4,0.2-0.8,0.6-1.1,1c-0.3,0.4-0.6,0.9-0.9,1.5c-0.2,0.6-0.4,1.2-0.6,1.9L336.2,99.3z"/>
		<path d="M360,88.2c0,0.2,0,0.4,0,0.7c0,0.2,0,0.5,0,0.8c0,0.3-0.1,0.6-0.1,1c-0.1,0.4-0.1,0.9-0.2,1.4h-8.1c0,0.3-0.1,0.6-0.1,0.9
			c0,0.3,0,0.6,0,0.9c0,1,0.2,1.9,0.6,2.5c0.4,0.6,1,1,1.8,1c0.7,0,1.3-0.2,1.8-0.7c0.5-0.4,0.9-1,1.3-1.6l1.8,1.1
			c-0.6,1-1.3,1.8-2.1,2.5c-0.8,0.6-1.8,1-3,1c-1.4,0-2.6-0.5-3.4-1.5c-0.8-1-1.3-2.4-1.3-4.2c0-1.3,0.2-2.6,0.5-4
			c0.3-1.3,0.8-2.5,1.4-3.5c0.6-1,1.3-1.9,2.2-2.5c0.9-0.6,1.8-1,2.9-1c0.7,0,1.4,0.1,1.9,0.4c0.5,0.2,1,0.6,1.3,1
			c0.3,0.4,0.6,1,0.7,1.6C359.9,86.8,360,87.5,360,88.2z M357.6,88.3c0-0.9-0.2-1.6-0.5-2.1c-0.3-0.5-0.8-0.8-1.5-0.8
			c-0.5,0-1,0.2-1.4,0.5c-0.4,0.3-0.8,0.7-1.1,1.2c-0.3,0.5-0.6,1-0.8,1.5c-0.2,0.5-0.3,1-0.4,1.5h5.5
			C357.5,89.4,357.6,88.8,357.6,88.3z"/>
		<path d="M373.3,88.2c0,0.2,0,0.4,0,0.7c0,0.2,0,0.5,0,0.8c0,0.3-0.1,0.6-0.1,1c-0.1,0.4-0.1,0.9-0.2,1.4h-8.1
			c0,0.3-0.1,0.6-0.1,0.9c0,0.3,0,0.6,0,0.9c0,1,0.2,1.9,0.6,2.5c0.4,0.6,1,1,1.8,1c0.7,0,1.3-0.2,1.8-0.7c0.5-0.4,0.9-1,1.3-1.6
			l1.8,1.1c-0.6,1-1.3,1.8-2.1,2.5c-0.8,0.6-1.8,1-3,1c-1.4,0-2.6-0.5-3.4-1.5c-0.8-1-1.3-2.4-1.3-4.2c0-1.3,0.2-2.6,0.5-4
			c0.3-1.3,0.8-2.5,1.4-3.5c0.6-1,1.3-1.9,2.2-2.5c0.9-0.6,1.8-1,2.9-1c0.7,0,1.4,0.1,1.9,0.4c0.5,0.2,1,0.6,1.3,1
			c0.3,0.4,0.6,1,0.7,1.6C373.3,86.8,373.3,87.5,373.3,88.2z M370.9,88.3c0-0.9-0.2-1.6-0.5-2.1c-0.3-0.5-0.8-0.8-1.5-0.8
			c-0.5,0-1,0.2-1.4,0.5c-0.4,0.3-0.8,0.7-1.1,1.2c-0.3,0.5-0.6,1-0.8,1.5c-0.2,0.5-0.3,1-0.4,1.5h5.5
			C370.9,89.4,370.9,88.8,370.9,88.3z"/>
		<path d="M383.7,85.9c-0.1,0-0.2,0-0.2,0c-0.1,0-0.2,0-0.3,0c-0.5,0-1,0.2-1.4,0.5c-0.4,0.3-0.8,0.7-1.2,1.2
			c-0.4,0.5-0.7,1.1-0.9,1.8c-0.2,0.7-0.4,1.3-0.6,2l-1.4,7.9h-2.5l2-11.6c0-0.2,0.1-0.4,0.1-0.8c0.1-0.4,0.1-0.8,0.2-1.2
			c0.1-0.4,0.1-0.8,0.2-1.2c0.1-0.4,0.1-0.6,0.1-0.8h2.5c0,0.1-0.1,0.4-0.1,0.7c0,0.3-0.1,0.6-0.1,0.9c-0.1,0.3-0.1,0.7-0.2,1
			c-0.1,0.3-0.1,0.5-0.1,0.7h0.1c0.5-1.3,1.1-2.2,1.8-2.8c0.7-0.6,1.5-0.9,2.3-0.9c0.2,0,0.3,0,0.3,0L383.7,85.9z"/>
		<path d="M386.4,99.3h-2.5l2.7-15.5h2.5L386.4,99.3z M390.2,78.8c0,0.5-0.2,1-0.5,1.4c-0.3,0.4-0.8,0.6-1.3,0.6
			c-0.5,0-0.8-0.1-1.1-0.4c-0.2-0.3-0.4-0.6-0.4-1c0-0.5,0.2-0.9,0.5-1.3c0.3-0.4,0.8-0.6,1.3-0.6c0.5,0,0.8,0.1,1.1,0.4
			S390.2,78.4,390.2,78.8z"/>
		<path d="M393.3,99.3h-2.5l2-11.6c0-0.2,0.1-0.4,0.1-0.8c0.1-0.4,0.1-0.8,0.2-1.2c0.1-0.4,0.1-0.8,0.2-1.2c0.1-0.4,0.1-0.6,0.1-0.8
			h2.5c0,0.3-0.1,0.7-0.2,1.2c-0.1,0.5-0.2,1-0.2,1.5h0.1c0.4-0.9,1-1.7,1.7-2.3c0.7-0.6,1.6-0.9,2.6-0.9c0.6,0,1.1,0.1,1.5,0.3
			c0.4,0.2,0.7,0.5,1,0.9c0.3,0.4,0.4,0.8,0.6,1.2c0.1,0.5,0.2,0.9,0.2,1.4c0,0.3,0,0.7-0.1,1.1c0,0.4-0.1,0.9-0.2,1.3l-1.7,9.9
			h-2.5l1.7-9.9c0-0.3,0.1-0.6,0.1-0.9c0-0.3,0.1-0.6,0.1-0.9c0-0.6-0.1-1.1-0.4-1.5c-0.2-0.4-0.7-0.6-1.4-0.6
			c-0.5,0-0.9,0.1-1.3,0.4c-0.4,0.2-0.8,0.6-1.1,1c-0.3,0.4-0.6,0.9-0.9,1.5c-0.2,0.6-0.4,1.2-0.6,1.9L393.3,99.3z"/>
		<path d="M415.7,99.2c-0.2,1.1-0.4,2-0.8,2.9c-0.3,0.9-0.8,1.7-1.3,2.4c-0.5,0.7-1.2,1.2-2,1.6c-0.8,0.4-1.7,0.6-2.8,0.6
			c-1,0-2-0.2-2.9-0.7c-0.9-0.4-1.6-1-2.1-1.7l1.7-1.8c0.4,0.5,0.9,0.9,1.5,1.3c0.6,0.4,1.3,0.5,2,0.5c0.6,0,1.2-0.1,1.7-0.4
			c0.5-0.3,0.9-0.6,1.2-1.1c0.3-0.5,0.6-1,0.8-1.6c0.2-0.6,0.4-1.3,0.5-2l0.5-2.5h-0.1c-0.2,0.4-0.4,0.8-0.7,1.2
			c-0.2,0.4-0.5,0.7-0.8,1c-0.3,0.3-0.7,0.5-1.1,0.7c-0.4,0.2-0.9,0.2-1.4,0.2c-1.3,0-2.2-0.5-2.9-1.5s-1-2.4-1-4
			c0-1.3,0.1-2.6,0.5-3.9c0.3-1.3,0.7-2.5,1.3-3.6c0.6-1.1,1.2-1.9,2-2.6c0.8-0.7,1.7-1,2.8-1c0.9,0,1.6,0.3,2.2,0.8
			c0.6,0.5,0.9,1.2,1,2.1h0.1l0.4-2.3h2.5L415.7,99.2z M414.8,89.1c0-1.1-0.2-2-0.5-2.7c-0.4-0.7-0.9-1-1.7-1
			c-0.7,0-1.3,0.3-1.9,0.9c-0.5,0.6-1,1.3-1.3,2.2c-0.4,0.9-0.6,1.8-0.8,2.8c-0.2,1-0.3,1.9-0.3,2.8c0,1.1,0.2,1.9,0.5,2.5
			c0.3,0.6,0.9,1,1.7,1c0.7,0,1.3-0.3,1.8-0.8c0.5-0.6,1-1.3,1.4-2.1c0.4-0.8,0.7-1.8,0.9-2.7C414.7,90.9,414.8,90,414.8,89.1z"/>
	</g>
</g>
<g>
	<rect x="258.2" class="st2" width="6.3" height="98.8"/>
	<rect x="266" class="st2" width="7.8" height="98.8"/>
	
		<linearGradient id="SVGID_1_" gradientUnits="userSpaceOnUse" x1="61.6286" y1="36.784" x2="162.1916" y2="36.784" gradientTransform="matrix(-1.000000e-15 1 -1 0 302.0215 -62.3604)">
		<stop  offset="0" style="stop-color:#FFFFFF;stop-opacity:0"/>
		<stop  offset="4.330362e-02" style="stop-color:#C7C7C7;stop-opacity:0.1155"/>
		<stop  offset="9.505299e-02" style="stop-color:#8B8B8B;stop-opacity:0.2535"/>
		<stop  offset="0.145" style="stop-color:#595959;stop-opacity:0.3866"/>
		<stop  offset="0.1917" style="stop-color:#333333;stop-opacity:0.5111"/>
		<stop  offset="0.2344" style="stop-color:#171717;stop-opacity:0.6251"/>
		<stop  offset="0.2719" style="stop-color:#060606;stop-opacity:0.7251"/>
		<stop  offset="0.3" style="stop-color:#000000;stop-opacity:0.8"/>
		<stop  offset="0.3283" style="stop-color:#000000;stop-opacity:0.8283"/>
		<stop  offset="0.5" style="stop-color:#000000"/>
		<stop  offset="0.6153" style="stop-color:#020202;stop-opacity:0.8847"/>
		<stop  offset="0.6569" style="stop-color:#090908;stop-opacity:0.8431"/>
		<stop  offset="0.6864" style="stop-color:#141413;stop-opacity:0.8136"/>
		<stop  offset="0.7" style="stop-color:#1D1D1B;stop-opacity:0.8"/>
		<stop  offset="0.7285" style="stop-color:#242422;stop-opacity:0.7241"/>
		<stop  offset="0.77" style="stop-color:#373736;stop-opacity:0.6133"/>
		<stop  offset="0.8196" style="stop-color:#575756;stop-opacity:0.481"/>
		<stop  offset="0.8754" style="stop-color:#838382;stop-opacity:0.3323"/>
		<stop  offset="0.9363" style="stop-color:#BCBCBB;stop-opacity:0.1698"/>
		<stop  offset="1" style="stop-color:#FFFFFF;stop-opacity:0"/>
	</linearGradient>
	<rect x="264.5" class="st3" width="1.5" height="98.8"/>
</g>
</svg>
