<svg width="617" height="233" viewBox="0 0 617 233" fill="none" xmlns="http://www.w3.org/2000/svg">
<rect width="616.295" height="232.856" rx="30" fill="white"/>
<path fill-rule="evenodd" clip-rule="evenodd" d="M148.798 10C144.231 23.0141 141.541 38.5309 141.541 55.2365C141.541 71.8796 144.231 87.3964 148.798 100.41C153.365 87.3964 156.055 71.8796 156.055 55.2365C156.055 38.5309 153.365 23.0141 148.798 10ZM40 120.87C53.0132 125.438 68.529 128.128 85.2335 128.128C101.875 128.128 117.391 125.438 130.404 120.87C117.391 116.303 101.875 113.612 85.2335 113.612C68.529 113.612 53.0132 116.303 40 120.87Z" fill="#BCA70D"/>
<path d="M68.9668 41.0337C74.9103 53.4847 83.9821 66.3111 95.744 78.1364C107.569 89.8992 120.394 98.9715 132.844 104.915C126.901 92.4644 117.829 79.638 106.067 67.8127C94.2425 56.05 81.4169 46.9776 68.9668 41.0337Z" fill="#BCA70D"/>
<path d="M107.568 19.5103C108.194 33.3377 111.51 48.6669 117.766 64.1211C124.085 79.5754 132.406 92.9649 141.54 103.289C140.915 89.5236 137.536 74.132 131.28 58.6777C125.024 43.2234 116.703 29.8339 107.568 19.5103Z" fill="#BCA70D"/>
<path fill-rule="evenodd" clip-rule="evenodd" d="M91.7398 89.0233C107.068 95.6555 120.269 104.227 130.404 113.612C116.64 112.674 101.312 109.045 85.984 102.413C70.6559 95.8432 57.5176 87.2088 47.3823 77.8862C61.1462 78.8247 76.4118 82.4537 91.7398 89.0233ZM84.6076 142.206C99.8731 135.574 115.201 131.882 128.965 130.881C118.83 140.266 105.692 148.901 90.3634 155.533C75.0979 162.165 59.7698 165.857 46.0059 166.795C56.1412 157.41 69.2795 148.776 84.6076 142.206Z" fill="#BCA70D"/>
<path d="M109.07 220.603C117.704 211.218 125.399 199.017 131.03 184.877C136.598 170.674 139.351 156.471 139.413 143.77C130.779 153.093 123.084 165.293 117.453 179.496C111.885 193.699 109.132 207.839 109.07 220.603Z" fill="#BCA70D"/>
<path fill-rule="evenodd" clip-rule="evenodd" d="M97.6211 163.542C109.321 151.654 122.083 142.519 134.471 136.45C128.653 148.963 119.706 161.852 108.007 173.74C96.3073 185.691 83.5443 194.826 71.1567 200.895C76.9752 188.381 85.9217 175.43 97.6211 163.542ZM227.816 120.87C219.307 123.874 209.109 125.626 198.223 125.626C187.275 125.626 177.077 123.874 168.568 120.87C177.077 117.867 187.275 116.115 198.223 116.115C209.109 116.115 219.307 117.867 227.816 120.87Z" fill="#BCA70D"/>
<path d="M230.005 156.847C220.058 156.158 208.984 153.531 197.91 148.713C186.836 143.958 177.327 137.701 170.007 130.881C179.954 131.569 191.028 134.26 202.102 139.077C213.176 143.833 222.685 150.089 230.005 156.847Z" fill="#BCA70D"/>
<path d="M186.148 211.03C178.578 202.834 171.821 192.198 166.879 179.747C161.999 167.358 159.621 154.907 159.496 143.77C167.066 151.966 173.823 162.665 178.766 175.054C183.646 187.505 186.023 199.893 186.148 211.03Z" fill="#BCA70D"/>
<path fill-rule="evenodd" clip-rule="evenodd" d="M194.532 158.536C185.022 148.838 174.574 141.393 164.501 136.45C169.256 146.648 176.513 157.16 186.086 166.858C195.595 176.556 206.043 184.064 216.116 189.007C211.361 178.808 204.041 168.234 194.532 158.536ZM148.548 222.856C153.115 211.281 155.805 197.516 155.742 182.687C155.742 167.859 152.99 154.094 148.36 142.581C143.793 154.156 141.165 167.921 141.165 182.75C141.228 197.578 143.918 211.343 148.548 222.856Z" fill="#BCA70D"/>
<path fill-rule="evenodd" clip-rule="evenodd" d="M263.477 122.747V158.161H250.276V70.8784H265.229C272.528 70.8784 278.033 71.379 281.745 72.3801C285.541 73.3811 288.878 75.2999 291.756 78.1363C296.761 83.0583 299.263 89.2525 299.263 96.7189C299.263 104.686 296.573 111.005 291.192 115.677C285.854 120.39 278.638 122.747 269.545 122.747H263.477ZM263.477 110.484H268.419C280.515 110.484 286.563 105.833 286.563 96.5312C286.563 87.5215 280.327 83.0166 267.856 83.0166H263.477V110.484ZM323.162 158.161H310.399V103.038H323.162V158.161ZM308.523 80.201C308.523 77.9903 309.336 76.0716 310.963 74.4448C312.547 72.818 314.487 72.0046 316.781 72.0046C319.075 72.0046 321.035 72.818 322.662 74.4448C324.289 76.0298 325.102 77.9694 325.102 80.2636C325.102 82.5577 324.289 84.5182 322.662 86.145C321.077 87.7717 319.138 88.5851 316.844 88.5851C314.508 88.5851 312.547 87.7717 310.963 86.145C309.336 84.5182 308.523 82.5369 308.523 80.201ZM339.241 103.101H352.004V108.044C354.34 105.583 356.405 103.893 358.198 102.976C360.075 102.058 362.265 101.599 364.767 101.599C368.146 101.599 371.649 102.684 375.278 104.853L369.46 116.49C367.04 114.78 364.684 113.925 362.39 113.925C355.466 113.925 352.004 119.16 352.004 129.63V158.223H339.241V103.101ZM422.388 103.038H435.214V158.161H422.388V152.404C417.175 157.285 411.544 159.725 405.496 159.725C397.863 159.725 391.565 156.972 386.602 151.466C381.68 145.876 379.219 138.869 379.219 130.443C379.219 122.184 381.68 115.302 386.602 109.796C391.524 104.29 397.717 101.537 405.183 101.537C411.565 101.537 417.3 104.185 422.388 109.483V103.038ZM392.233 130.38C392.233 135.678 393.63 139.974 396.424 143.269C399.344 146.648 403.014 148.337 407.436 148.337C412.149 148.337 415.944 146.711 418.822 143.457C421.742 140.12 423.202 135.866 423.202 130.693C423.202 125.521 421.742 121.246 418.822 117.867C415.944 114.613 412.19 112.987 407.561 112.987C403.181 112.987 399.511 114.634 396.55 117.929C393.672 121.308 392.233 125.458 392.233 130.38ZM494.086 105.416V122.309C491.208 118.764 488.622 116.324 486.328 114.989C484.076 113.654 481.407 112.987 478.32 112.987C473.524 112.987 469.561 114.655 466.433 117.992C463.263 121.371 461.678 125.584 461.678 130.631C461.678 135.803 463.201 140.037 466.245 143.332C469.332 146.669 473.273 148.337 478.07 148.337C481.115 148.337 483.805 147.67 486.141 146.335C488.393 145.042 491.041 142.56 494.086 138.89V155.658C488.956 158.327 483.805 159.662 478.633 159.662C470.124 159.662 462.992 156.909 457.236 151.403C451.522 145.897 448.665 139.036 448.665 130.818C448.665 122.559 451.564 115.614 457.361 109.983C463.159 104.31 470.291 101.474 478.758 101.474C484.18 101.474 489.29 102.788 494.086 105.416ZM549.33 105.416V122.309C546.41 118.764 543.803 116.324 541.509 114.989C539.257 113.654 536.609 112.987 533.564 112.987C528.767 112.987 524.784 114.655 521.614 117.992C518.444 121.371 516.859 125.584 516.859 130.631C516.859 135.803 518.382 140.037 521.426 143.332C524.513 146.669 528.454 148.337 533.251 148.337C536.296 148.337 538.986 147.67 541.322 146.335C543.616 145.042 546.285 142.56 549.33 138.89V155.658C544.158 158.327 538.986 159.662 533.814 159.662C525.305 159.662 518.173 156.909 512.417 151.403C506.703 145.897 503.846 139.036 503.846 130.818C503.846 122.559 506.745 115.614 512.542 109.983C518.34 104.31 525.472 101.474 533.939 101.474C539.361 101.474 544.492 102.788 549.33 105.416ZM574.355 158.098H561.655V103.038H574.355V158.098ZM559.715 80.0759C559.715 77.8652 560.529 75.9464 562.155 74.3196C563.782 72.6929 565.721 71.8795 567.974 71.8795C570.268 71.8795 572.228 72.6929 573.855 74.3196C575.481 75.9047 576.295 77.8443 576.295 80.1385C576.295 82.4326 575.481 84.3931 573.855 86.0198C572.27 87.6466 570.33 88.46 568.036 88.46C565.742 88.46 563.782 87.6466 562.155 86.0198C560.529 84.3931 559.715 82.4118 559.715 80.0759Z" fill="#2F6D93"/>
</svg>
