<svg width="184" height="185" viewBox="0 0 184 185" fill="none" xmlns="http://www.w3.org/2000/svg">
<path fill-rule="evenodd" clip-rule="evenodd" d="M105.36 0C100.937 11.432 98.3315 25.0624 98.3315 39.7371C98.3315 54.3568 100.937 67.9872 105.36 79.4192C109.782 67.9872 112.388 54.3568 112.388 39.7371C112.388 25.0624 109.782 11.432 105.36 0Z" fill="#BCA70D"/>
<path fill-rule="evenodd" clip-rule="evenodd" d="M0 97.3915C12.6019 101.404 27.6273 103.767 43.8038 103.767C59.9198 103.767 74.9451 101.404 87.5471 97.3915C74.9451 93.3793 59.9198 91.016 43.8038 91.016C27.6273 91.016 12.6019 93.3793 0 97.3915Z" fill="#BCA70D"/>
<path d="M28.0513 27.2609C33.807 38.1982 42.592 49.4653 53.9822 59.853C65.4329 70.1857 77.8531 78.1551 89.9098 83.3764C84.1541 72.4391 75.3691 61.172 63.9789 50.7843C52.5281 40.4516 40.1079 32.4822 28.0513 27.2609Z" fill="#BCA70D"/>
<path d="M65.4326 8.35406C66.0385 20.5005 69.2495 33.9661 75.3082 47.5415C81.4274 61.117 89.4853 72.8787 98.3309 81.9473C97.7251 69.8558 94.4534 56.3353 88.3948 42.7599C82.3362 29.1844 74.2782 17.4227 65.4326 8.35406Z" fill="#BCA70D"/>
<path fill-rule="evenodd" clip-rule="evenodd" d="M43.1976 116.133C57.9806 110.308 72.8243 107.065 86.1532 106.185C76.3383 114.43 63.6152 122.014 48.7715 127.84C33.9885 133.666 19.1449 136.909 5.81592 137.733C15.6309 129.489 28.354 121.904 43.1976 116.133Z" fill="#BCA70D"/>
<path fill-rule="evenodd" clip-rule="evenodd" d="M50.1045 69.4164C64.9482 75.2423 77.7318 82.772 87.5468 91.0162C74.2178 90.1918 59.3742 87.004 44.5306 81.1781C29.687 75.4072 16.9639 67.8225 7.14893 59.6332C20.4779 60.4577 35.2609 63.6454 50.1045 69.4164Z" fill="#BCA70D"/>
<path d="M66.8867 185C75.2476 176.756 82.6997 166.038 88.1525 153.617C93.5446 141.141 96.2104 128.665 96.271 117.507C87.9101 125.697 80.458 136.414 75.0053 148.89C69.6131 161.367 66.9473 173.788 66.8867 185Z" fill="#BCA70D"/>
<path fill-rule="evenodd" clip-rule="evenodd" d="M55.7998 134.875C67.1295 124.433 79.489 116.408 91.4851 111.077C85.8506 122.069 77.1868 133.391 65.8571 143.834C54.5275 154.332 42.1679 162.356 30.1719 167.687C35.8064 156.695 44.4702 145.318 55.7998 134.875Z" fill="#BCA70D"/>
<path fill-rule="evenodd" clip-rule="evenodd" d="M181.88 97.3917C173.64 100.03 163.765 101.569 153.223 101.569C142.62 101.569 132.745 100.03 124.505 97.3917C132.745 94.7536 142.62 93.2147 153.223 93.2147C163.765 93.2147 173.64 94.7536 181.88 97.3917Z" fill="#BCA70D"/>
<path d="M184 126.729C174.367 126.125 163.643 123.817 152.919 119.585C142.196 115.407 132.987 109.911 125.898 103.921C135.531 104.525 146.255 106.888 156.979 111.12C167.702 115.298 176.912 120.794 184 126.729Z" fill="#BCA70D"/>
<path d="M141.529 174.326C134.198 167.126 127.655 157.783 122.868 146.845C118.143 135.963 115.84 125.026 115.719 115.243C123.05 122.442 129.593 131.841 134.38 142.723C139.106 153.661 141.408 164.543 141.529 174.326Z" fill="#BCA70D"/>
<path fill-rule="evenodd" clip-rule="evenodd" d="M105.117 184.714C109.54 174.546 112.145 162.454 112.084 149.429C112.084 136.403 109.419 124.311 104.935 114.198C100.512 124.366 97.9678 136.458 97.9678 149.484C98.0284 162.509 100.634 174.601 105.117 184.714Z" fill="#BCA70D"/>
<path fill-rule="evenodd" clip-rule="evenodd" d="M149.648 128.213C140.439 119.694 130.321 113.154 120.566 108.812C125.171 117.771 132.199 127.004 141.469 135.523C150.678 144.042 160.796 150.638 170.55 154.98C165.945 146.021 158.857 136.733 149.648 128.213Z" fill="#BCA70D"/>
</svg>
