<svg width="1440" height="441" viewBox="0 0 1440 441" fill="none" xmlns="http://www.w3.org/2000/svg">
<g filter="url(#filter0_f_125_3144)">
<path fill-rule="evenodd" clip-rule="evenodd" d="M21.0204 254.943V418.764H-40V15H29.1178C62.8573 15 88.3067 17.3155 105.466 21.9465C123.01 26.5775 138.434 35.4535 151.737 48.5747C174.873 71.3437 186.44 99.9979 186.44 134.537C186.44 171.392 174.005 200.625 149.134 222.237C124.456 244.041 91.1022 254.943 49.0724 254.943H21.0204ZM21.0204 198.213H43.8668C99.778 198.213 127.734 176.699 127.734 133.669C127.734 91.9901 98.9105 71.1507 41.2641 71.1507H21.0204V198.213ZM296.913 418.764H237.917V163.77H296.913V418.764ZM229.241 58.1261C229.241 47.8993 233.001 39.0233 240.52 31.4979C247.846 23.9726 256.811 20.2099 267.415 20.2099C278.019 20.2099 287.081 23.9726 294.6 31.4979C302.119 38.8303 305.878 47.8028 305.878 58.4155C305.878 69.0282 302.119 78.0972 294.6 85.6226C287.273 93.1479 278.308 96.9106 267.704 96.9106C256.908 96.9106 247.846 93.1479 240.52 85.6226C233.001 78.0972 229.241 68.9317 229.241 58.1261ZM371.237 164.06H430.233V186.925C441.029 175.541 450.573 167.726 458.863 163.481C467.539 159.236 477.661 157.113 489.229 157.113C504.845 157.113 521.04 162.13 537.814 172.164L510.918 225.999C499.736 218.088 488.843 214.132 478.239 214.132C446.235 214.132 430.233 238.349 430.233 286.781V419.054H371.237V164.06ZM755.578 163.77H814.863V418.764H755.578V392.136C731.478 414.712 705.451 426 677.495 426C642.213 426 613.101 413.265 590.158 387.794C567.408 361.938 556.033 329.521 556.033 290.544C556.033 252.338 567.408 220.5 590.158 195.03C612.908 169.559 641.538 156.824 676.049 156.824C705.547 156.824 732.057 169.077 755.578 193.582V163.77ZM616.186 290.254C616.186 314.76 622.644 334.635 635.562 349.878C649.058 365.508 666.024 373.323 686.46 373.323C708.246 373.323 725.791 365.797 739.094 350.746C752.59 335.31 759.338 315.628 759.338 291.701C759.338 267.775 752.59 247.997 739.094 232.367C725.791 217.316 708.439 209.791 687.039 209.791C666.795 209.791 649.829 217.413 636.14 232.656C622.837 248.286 616.186 267.485 616.186 290.254ZM1087 174.769V252.917C1073.69 236.516 1061.74 225.227 1051.14 219.053C1040.73 212.878 1028.39 209.791 1014.12 209.791C991.948 209.791 973.632 217.509 959.172 232.946C944.519 248.575 937.193 268.064 937.193 291.412C937.193 315.339 944.23 334.924 958.304 350.168C972.571 365.604 990.791 373.323 1012.96 373.323C1027.04 373.323 1039.47 370.235 1050.27 364.061C1060.68 358.079 1072.92 346.598 1087 329.618V407.187C1063.28 419.536 1039.47 425.711 1015.57 425.711C976.235 425.711 943.266 412.975 916.66 387.505C890.247 362.035 877.04 330.293 877.04 292.28C877.04 254.075 890.44 221.947 917.239 195.898C944.037 169.656 977.006 156.535 1016.14 156.535C1041.21 156.535 1064.82 162.613 1087 174.769ZM1342.36 174.769V252.917C1328.86 236.516 1316.81 225.227 1306.21 219.053C1295.8 212.878 1283.55 209.791 1269.48 209.791C1247.31 209.791 1228.9 217.509 1214.24 232.946C1199.59 248.575 1192.26 268.064 1192.26 291.412C1192.26 315.339 1199.3 334.924 1213.38 350.168C1227.64 365.604 1245.86 373.323 1268.03 373.323C1282.11 373.323 1294.54 370.235 1305.34 364.061C1315.94 358.079 1328.28 346.598 1342.36 329.618V407.187C1318.45 419.536 1294.54 425.711 1270.64 425.711C1231.31 425.711 1198.34 412.975 1171.73 387.505C1145.32 362.035 1132.11 330.293 1132.11 292.28C1132.11 254.075 1145.51 221.947 1172.31 195.898C1199.11 169.656 1232.08 156.535 1271.21 156.535C1296.28 156.535 1319.99 162.613 1342.36 174.769ZM1458.04 418.475H1399.33V163.77H1458.04V418.475ZM1390.36 57.5472C1390.36 47.3205 1394.12 38.4444 1401.64 30.919C1409.16 23.3937 1418.13 19.631 1428.54 19.631C1439.14 19.631 1448.2 23.3937 1455.72 30.919C1463.24 38.2514 1467 47.224 1467 57.8366C1467 68.4493 1463.24 77.5183 1455.72 85.0437C1448.4 92.5691 1439.43 96.3317 1428.83 96.3317C1418.22 96.3317 1409.16 92.5691 1401.64 85.0437C1394.12 77.5183 1390.36 68.3529 1390.36 57.5472Z" fill="#2F6D93" fill-opacity="0.1"/>
</g>
<defs>
<filter id="filter0_f_125_3144" x="-55" y="0" width="1537" height="441" filterUnits="userSpaceOnUse" color-interpolation-filters="sRGB">
<feFlood flood-opacity="0" result="BackgroundImageFix"/>
<feBlend mode="normal" in="SourceGraphic" in2="BackgroundImageFix" result="shape"/>
<feGaussianBlur stdDeviation="7.5" result="effect1_foregroundBlur_125_3144"/>
</filter>
</defs>
</svg>
