<?xml version="1.0" encoding="utf-8"?>
<!-- Generator: Adobe Illustrator 25.3.0, SVG Export Plug-In . SVG Version: 6.00 Build 0)  -->
<svg version="1.1" id="Livello_1" xmlns="http://www.w3.org/2000/svg" xmlns:xlink="http://www.w3.org/1999/xlink" x="0px" y="0px"
	 viewBox="0 0 107 70" style="enable-background:new 0 0 107 70;" xml:space="preserve">
<style type="text/css">
	.st0{fill:#7D7773;}
</style>
<path class="st0" d="M94.2,51.4h1v-15l10.3,15h1.2V35.2h-1v14.9L95.5,35.2h-1.3L94.2,51.4z M84.4,45.4l3.6-9.2l3.5,9.2H84.4z
	 M87.4,35.2l-6.5,16.2H82l2.1-5.2h7.8l2,5.2h1.1l-6.4-16.2H87.4z M74.9,43.5v0.9h6c0.2,4-2.3,6.6-6.1,6.6c-4.4,0-6.7-3.4-6.7-7.5
	c0-4.1,2.3-7.7,6.7-7.7c1.3,0,2.7,0.4,3.7,1.2c1.1,0.8,1.8,2,2.1,3.3h1c-0.3-1.6-1.1-3-2.3-4c-1.2-1-2.8-1.5-4.4-1.4
	c-4.9,0-7.7,4-7.7,8.6c0,4.6,2.7,8.4,7.6,8.4c1.3,0.1,2.6-0.2,3.7-0.9c1.1-0.7,2-1.7,2.5-2.9v3.5h0.9v-7.9L74.9,43.5z M56.8,50.5
	v-7.1h9.3v-0.9h-9.3V36h9.8v-0.9H55.8v16.2h11v-0.9H56.8z M41.6,51.4h5.3c5.2,0,7.5-3.5,7.5-8.1c0-4.1-1.7-8.1-7.5-8.1h-5.3V51.4z
	 M42.6,36h4.2c2.4,0,6.6,0.6,6.6,7.2c0,5.6-3.4,7.3-6.4,7.3h-4.3L42.6,36z M28.2,51.4h1V44h5.7c2.8,0,3.6,1.3,3.8,2.8
	c0.2,1.5-0.2,3.4,0.4,4.5h1.1c-0.7-0.9-0.4-2.7-0.5-4.4c0-0.4,0-0.9-0.2-1.3c-0.1-0.4-0.4-0.8-0.7-1.1c-0.3-0.3-0.6-0.6-1-0.8
	c-0.4-0.2-0.8-0.3-1.3-0.3l0,0c1-0.1,1.9-0.6,2.6-1.4c0.6-0.8,1-1.8,0.9-2.8c0-3.1-2.3-4.2-5.1-4.2h-6.8L28.2,51.4z M29.2,43.2v-7
	h5.7c2.2,0,4.1,0.9,4.1,3.4c0,2.4-1.8,3.7-4.1,3.7L29.2,43.2z M18.3,45.3l3.6-9.2l3.5,9.2H18.3z M21.4,35.2l-6.5,16.2h1.1l2.1-5.2
	h7.8l2.1,5.2h1.1l-6.4-16.2L21.4,35.2z M0,51.4h1V36.5l6.2,15h1l6.2-15v15h1V35.2H14L7.8,50.3L1.4,35.2H0L0,51.4z"/>
<path class="st0" d="M68.1,60.1c-1.1,0.4-2.3,0.6-3.5,0.6c-0.6,0-1.1-0.1-1.7-0.3c-0.5-0.2-1-0.6-1.4-1c0.7-1,1.7-1.9,2.8-2.4
	c1.1-0.6,2.3-0.9,3.5-0.9c0.6,0,1.2,0.1,1.8,0.4c0.3,0.1,0.5,0.3,0.7,0.6c0.2,0.3,0.3,0.5,0.3,0.9C70.6,58.9,69.8,59.6,68.1,60.1
	L68.1,60.1z M70.4,55.7c-0.8-0.5-1.7-0.8-2.6-0.7c-1.6,0.1-3.1,0.6-4.4,1.3c-2,1-2.9,2-2.9,3.1c0,1.5,1.5,2.2,4.5,2.2
	c1.4,0,2.8-0.3,4.1-0.8c1.7-0.7,2.6-1.6,2.6-2.8c0-0.5-0.1-0.9-0.3-1.3C71.1,56.3,70.8,55.9,70.4,55.7L70.4,55.7z M61,55.6
	c-0.1-0.2-0.3-0.3-0.5-0.4c-0.2-0.1-0.4-0.2-0.6-0.2c-0.7,0.1-1.3,0.3-1.9,0.6l-1.9,1c0.3-0.6,0.4-1,0.4-1c0.1-0.2,0.1-0.4,0.1-0.6
	c0-0.4-0.2-0.5-0.5-0.5c-0.2,0-0.4,0-0.5,0.2c-0.1,0.2-0.3,0.3-0.3,0.5c-0.1,0.3-0.3,0.6-0.4,1c-0.4,0.7-0.9,1.3-1.4,1.8
	c-0.9,0.9-1.6,2-1.9,3.2l0.2,0.2v0.3c1-0.2,1.9-0.8,2.5-1.5c1.1-1.1,1.9-1.9,2.3-2.3c0.3-0.4,0.7-0.7,1.1-0.9
	c0.4-0.2,0.9-0.3,1.4-0.4c0.1,0,0.3,0,0.4,0c0.1,0,0.2,0.1,0.3,0.2c0.1,0.1,0.2,0.2,0.2,0.3c0,0.1,0.1,0.3,0,0.4
	c-0.2,0.7-0.5,1.3-1,1.8c-0.5,0.5-0.8,1.2-1,1.9c0,0.1,0,0.2,0.1,0.3c0,0.1,0.1,0.2,0.2,0.2c0.2,0.1,0.4,0.2,0.6,0.2
	c0.2,0,0.3,0,0.5-0.1c0.1-0.1,0.2-0.3,0.3-0.4c-0.1-0.1-0.1-0.2-0.1-0.3c0-0.1,0-0.2,0-0.3c0.5-0.5,0.9-1.1,1.2-1.7
	c0.3-0.6,0.6-1.2,0.6-1.9C61.5,56.6,61.3,56.1,61,55.6L61,55.6z M51.2,56.9c-0.3,0.4-0.5,0.9-0.7,1.4c0,0.1,0,0.3,0.1,0.4
	c0,0.1,0.1,0.2,0.1,0.4c0,0.3-0.3,0.6-0.9,0.8C49.3,60,48.9,60,48.5,60c-1.6,0-2.5-0.4-2.5-1.3c0-0.8,0.5-1.5,1.6-2.3
	c0.8-0.6,1.7-1,2.7-1c0.8,0,1.2,0.2,1.2,0.6C51.5,56.4,51.3,56.7,51.2,56.9L51.2,56.9z M50.6,54.5c-1.4,0-2.7,0.5-3.8,1.3
	c-0.6,0.3-1.1,0.8-1.5,1.3c-0.4,0.6-0.6,1.2-0.6,1.9c0,0.8,0.6,1.4,1.7,1.7c0.9,0.2,1.8,0.2,2.7,0.2c0.1,0,0.3,0,0.4,0
	c0.1,0,0.3-0.1,0.4-0.1c0.2,0,0.4,0.1,0.6,0.1c0.2,0.3,0.2,0.6,0.2,1c0,1.6-0.5,3.1-1.4,4.4c-0.4,0.7-1,1.2-1.6,1.6
	c-0.7,0.4-1.4,0.6-2.2,0.6c-0.7-0.1-1.3-0.2-1.9-0.5c-0.6-0.3-1.2-0.6-1.7-1.1h-0.2c-0.1,0.2-0.1,0.5-0.2,0.7c0,0.5,0.6,0.9,1.7,1.4
	c0.7,0.3,1.5,0.5,2.3,0.5c3.3,0,5.3-2.1,6.1-6.1c0.3-1.6,0.4-3.2,0.4-4.8c0-0.3,0.1-0.5,0.2-0.8c0.2-0.4,0.3-0.9,0.4-1.4
	c0-1.2-0.7-1.9-2.1-1.9L50.6,54.5z M41.6,57.9c-0.3,0-0.6-0.1-0.9-0.2c-0.3-0.2-0.5-0.4-0.6-0.7l1-0.5c0.3-0.2,0.7-0.3,1.1-0.3
	c0.3,0,0.5,0,0.8,0.1c0.2,0.1,0.5,0.3,0.6,0.5c-0.2,0.3-0.5,0.6-0.8,0.8C42.4,57.8,42,57.9,41.6,57.9L41.6,57.9z M42.1,60.8
	c-0.7,0.1-1.3,0.1-2,0.1c-1.5,0-2.3-0.4-2.3-1.3c0-0.5,0.3-0.9,0.9-1.2c0.8,0.4,1.6,0.6,2.5,0.5c0.8,0,1.5-0.2,2.2-0.5
	c0.9-0.4,1.3-0.9,1.3-1.6c0-0.3,0-0.6-0.2-0.9c-0.2-0.3-0.4-0.5-0.7-0.5c-0.3-0.1-0.8-0.2-1.6-0.4c-0.8,0.2-1.6,0.5-2.4,0.9
	c-2.2,1.1-3.3,2.4-3.3,3.9c0,1.2,1.1,1.8,3.2,1.8c1,0,2-0.1,3-0.2c1,0,1.9-0.4,2.7-1C45,60.5,43.8,60.6,42.1,60.8L42.1,60.8z
	 M37.5,60.1c-0.6,0-1.5,0-2.7,0.1c-1.2,0.1-2.1,0.1-2.7,0.1c-0.9,0-1.8-0.1-2.7-0.3l1.7-3.3c1.1-2.1,1.9-3.6,2.4-4.7
	c0.5-0.9,0.9-1.8,1.2-2.8c0-0.2-0.1-0.5-0.3-0.6c-0.1-0.1-0.1-0.2-0.2-0.2c-0.1-0.1-0.2-0.1-0.3-0.1c-0.4,0-0.8,0.6-1.1,1.7
	c-0.9,3.2-2.4,6.3-4.4,9l-0.8,1.1c-0.3,0.3-0.5,0.7-0.6,1.1c0,0.4,0.4,0.6,1.3,0.6c1-0.1,2-0.2,2.9-0.4c0.6-0.1,1.2-0.2,1.8-0.2
	c0.4,0,0.9,0.1,1.3,0.2l1.9,0.3h0.2c0.2-0.2,0.4-0.3,0.7-0.4c0.1-0.1,0.3-0.2,0.4-0.3v-0.4V60.1z"/>
<path class="st0" d="M52.3,12.9L51,14c-0.9,0.7-1.9,1.2-3.1,1.4l-1.4,0.2h-0.9h-0.5c-0.4,0-0.8-0.2-1.1-0.4
	c-0.4-0.2-0.7-0.4-1.1-0.6l-1.2-0.7l-0.9-0.6c-0.3-0.2-0.6-0.3-0.9-0.4c-0.3-0.1-0.8-0.3-1.2-0.5c-0.3-0.1-0.6-0.2-0.8-0.4
	c-0.5-0.3-1-0.5-1.6-0.6c-0.4-0.1-0.9-0.2-1.3-0.4c-0.2-0.1-0.4-0.3-0.7-0.4c-0.1-0.1-0.5-0.5,0.5-1.4c0.2-0.1,0.4-0.3,0.6-0.4
	c0.2-0.1,0.4-0.1,0.6-0.2c0.9-0.1,1.7-0.1,2.6,0.1c1.4,0.4,2.8,0.8,4.2,1.2c1.2,0.4,2.4,0.7,3.6,0.8c1.4,0.2,2.8,0.4,4.2,0.5h0.1
	l-0.2-0.1c-0.7-0.3-1.4-0.6-2-1c-0.3-0.2-0.5-0.3-0.7-0.5l-1.3-0.9c-0.4-0.2-0.7-0.5-1.1-0.7C45,8,44.3,7.6,43.7,7.3
	C43.2,7,43,6.8,42.6,6.6c-0.4-0.2-0.8-0.6-1.3-0.9c-0.4-0.3-0.7-0.4-1-0.6c-0.4-0.3-0.7-0.6-1.1-0.9c-0.3-0.3-0.6-0.7-0.9-1
	c-0.3-0.3-0.6-0.5-1-0.7C37,2.3,36.8,2,36.6,1.8c-0.1-0.2-0.1-0.4-0.1-0.6c0-0.2,0.1-0.4,0.2-0.6c0.2-0.2,0.5-0.4,0.8-0.5
	c0.3-0.1,0.6-0.1,0.9,0c0.6,0.2,1.2,0.4,1.7,0.7c0.4,0.2,0.8,0.5,1.2,0.8c0.1,0,0.4,0.4,0.4,0.3l0.4,0.3C42.6,2.6,43,3,43.4,3.4
	c0.7,0.6,1.5,1.2,2.3,1.7l1.6,1l1.6,1c0.5,0.3,1,0.6,1.5,1c0.5,0.3,1.2,0.9,1.7,1.3c0.1,0.1,0.2,0.2,0.4,0.2c0,0,0,0,0,0
	c0,0,0,0,0,0s0,0,0,0c0,0,0,0,0,0c0.1-0.3,0.3-0.5,0.4-0.8c0.1-0.2,0.3-0.4,0.5-0.6c0.2-0.2,0.4-0.3,0.5-0.5
	c-0.1-0.1-0.3-0.2-0.4-0.4c-0.1-0.1-0.2-0.2-0.2-0.4c-0.1-0.1-0.1-0.3-0.1-0.5c0-0.2,0.1-0.3,0.1-0.4c0.1-0.1,0.2-0.3,0.3-0.3l1-0.7
	C54.9,5.1,55,5,55.1,5c0.1,0,0.2,0,0.2,0.1c0.4,0.1,0.8,0.4,1.1,0.7c0.2,0.4,0.3,0.8,0.4,1.2c0,0.2,0,0.4-0.1,0.5
	c-0.1,0.2-0.2,0.3-0.4,0.4c-0.3,0.2-0.5,0.3-0.8,0.5c0.1,0.2,0.1,0.5,0.1,0.7c0,0.6-0.2,1.2-0.4,1.8c0,0.1-0.1,0.2-0.1,0.3h0.2
	c0.8,0,1.6,0.1,2.4,0.3c1.1,0.3,2.2,0.6,3.2,1.1c0.9,0.3,1.8,0.7,2.7,1c0.3,0.1,0.7,0.2,1,0.2c1.4,0.3,2.7,0.6,4,1
	c0.4,0.1,0.8,0.3,1.2,0.5c0.4,0.2,0.8,0.4,1.2,0.5c0.4,0.2,0.7,0.4,1.1,0.7c0.2,0.2,0.4,0.4,0.4,0.6c0.1,0.3,0.1,0.5,0,0.8
	c-0.1,0.4-0.4,0.8-0.7,1.1c-0.3,0.2-0.8,0.3-1.2,0.2c-1.6-0.3-3.2-0.7-4.8-1.2c-0.6-0.2-1.2-0.3-1.7-0.6c-0.2-0.1-0.5-0.1-0.7-0.2
	l-0.7-0.2l-1.5-0.6c0,0-1.5-0.7-2-0.9c-0.2-0.1-0.3-0.2-0.5-0.3l-2.1-1.3l-2-1.2c0.1,0.1,0.2,0.3,0.3,0.4l1.5,1.7l1.1,1.2
	c0.6,0.6,1.1,1.2,1.7,1.8c0.1,0.1,0.2,0.3,0.4,0.4c0.2,0.1,0.4,0.3,0.5,0.4l1.3,0.9l1.1,0.8l0.8,0.6c0.5,0.3,0.9,0.6,1.3,1
	c0.7,0.5,1.2,1.1,1.6,1.9c0.3,0.5,0.5,1,0.6,1.6c0,0.1,0.1,0.3,0.1,0.4c0,0.1,0,0.3,0,0.4c0,0.1-0.1,0.2-0.2,0.3
	c-0.1,0.1-0.2,0.2-0.3,0.2c-0.1,0-0.3,0.1-0.4,0.1c-0.4,0-0.8-0.1-1.1-0.3l-1.6-1c-1.2-0.7-2.4-1.3-3.6-1.8l-3-1.3
	c-1.2-0.7-2.2-1.9-2.7-3.2c-0.1-0.4-0.2-0.8-0.2-1.2c-0.2-0.9-0.3-1.8-0.4-2.7c0-0.2,0-0.3,0-0.5c0.4-1.2,0-1.3,0-1.3
	c-0.4,0.8-0.7,1.6-1.1,2.3c-0.5,1.1-1.1,2.2-1.7,3.3c-0.5,0.9-0.9,1.8-1.2,2.8c-0.2,0.7-0.5,1.4-0.9,2c-0.3,0.4-0.5,0.8-0.8,1.2
	c-0.1,0.1-0.2,0.2-0.3,0.3c-0.2,0.2-0.4,0.1-0.5-0.1c-0.1-0.2-0.1-0.5,0-0.7c0.1-0.6,0.3-1.1,0.5-1.6c0.4-0.9,0.8-1.7,1.3-2.5
	c1-1.6,1.8-3.4,2.4-5.2c0.1-0.4,0.2-0.8,0.3-1.2c0.1-0.2,0.1-0.3,0.2-0.4C51.9,13.4,52.1,13.2,52.3,12.9"/>
</svg>
