<?xml version="1.0" encoding="UTF-8"?>
<svg xmlns="http://www.w3.org/2000/svg" id="Livello_2" data-name="Livello 2" viewBox="0 0 490.64 73.62">
  <defs>
    <style>
      .cls-1 {
        fill: #1d1d1b;
      }
    </style>
  </defs>
  <g id="Livello_1-2" data-name="Livello 1">
    <g>
      <path class="cls-1" d="m46.2,39.5c0,4.73-1.64,8.73-4.91,12-1.71,1.71-3.45,2.88-5.22,3.51-2.86.99-6.99,1.48-12.39,1.48H0V.55h27.19c5.35,0,9.56,1.31,12.62,3.93,3.06,2.62,4.6,6.22,4.6,10.79,0,3.27-.88,5.95-2.65,8.02-.88,1.04-2.29,2.05-4.21,3.04,2.54,1.14,4.39,2.39,5.53,3.74,2.08,2.44,3.12,5.58,3.12,9.43Zm-13.01-23.49c0-3.87-2.86-5.81-8.57-5.81h-13.4v12.15h13.71c5.5,0,8.26-2.12,8.26-6.35Zm1.33,22.86c0-4.67-2.8-7.01-8.41-7.01h-14.88v14.96h14.33c5.97,0,8.96-2.65,8.96-7.95Z"></path>
      <path class="cls-1" d="m92.01,38.72h-28.44c.42,3.53,1.36,6.1,2.84,7.71,1.48,1.61,3.7,2.42,6.66,2.42,3.74,0,6.15-1.51,7.25-4.52h11.22c-1.3,3.74-2.96,6.54-4.99,8.41-3.43,3.22-8,4.83-13.71,4.83-6.49,0-11.48-1.9-14.96-5.69-3.48-3.79-5.22-9.22-5.22-16.28s1.74-12.11,5.22-15.93c3.48-3.82,8.31-5.73,14.49-5.73,13.09,0,19.63,7.82,19.63,23.45v1.32Zm-11.22-7.09c-.78-5.82-3.64-8.73-8.57-8.73-2.44,0-4.42.81-5.92,2.42-1.09,1.2-1.9,3.3-2.42,6.31h16.91Z"></path>
      <path class="cls-1" d="m122.7,25.01h-2.73c-6.96,0-10.44,3.3-10.44,9.89v21.58h-10.91V15.04h10.44v7.17h.16c1.09-1.92,2-3.38,2.73-4.36,2.03-2.6,4.86-3.9,8.49-3.9h2.26v11.06Z"></path>
      <path class="cls-1" d="m140.23,56.48h-10.91V.55h10.91v55.94Z"></path>
      <path class="cls-1" d="m189.24,35.68c0,6.65-1.92,11.96-5.77,15.93-3.84,3.97-8.99,5.96-15.43,5.96s-11.58-1.99-15.43-5.96c-3.84-3.97-5.76-9.26-5.76-15.85s1.92-11.88,5.76-15.85c3.84-3.97,8.99-5.96,15.43-5.96s11.58,1.97,15.43,5.92c3.84,3.95,5.77,9.22,5.77,15.82Zm-11.22.08c0-8.41-3.33-12.62-9.97-12.62s-9.97,4.21-9.97,12.62,3.32,12.62,9.97,12.62,9.97-4.21,9.97-12.62Z"></path>
      <path class="cls-1" d="m233.33,56.48h-10.91v-25.16c0-5.45-2.31-8.18-6.93-8.18-2.7,0-4.83.86-6.39,2.57-1.56,1.71-2.34,4.05-2.34,7.01v23.76h-10.91V15.04h10.44v6.08h.08c1.4-2.13,2.8-3.69,4.21-4.67,2.28-1.66,5.06-2.49,8.34-2.49,4.41,0,7.92,1.26,10.52,3.78,2.6,2.52,3.9,5.88,3.9,10.09v28.67Z"></path>
      <path class="cls-1" d="m250.86,10.13h-10.91V0h10.91v10.13Zm0,46.36h-10.91V15.04h10.91v41.45Z"></path>
      <path class="cls-1" d="m322.29,39.89c0,4.99-1.74,9-5.22,12.04-3.48,3.04-8.08,4.56-13.79,4.56h-24.07V.55h24.62c4.78,0,8.61,1.3,11.49,3.9,2.88,2.6,4.32,6.03,4.32,10.28,0,5.09-2.49,8.96-7.48,11.61,3.17,1.3,5.48,2.7,6.93,4.21,2.13,2.23,3.19,5.35,3.19,9.35Zm-10.21-24.62c0-5.5-3.87-8.26-11.61-8.26h-13.71v17.22h13.63c7.79,0,11.69-2.99,11.69-8.96Zm2.65,24.46c0-6.23-4.36-9.35-13.09-9.35h-14.88v19.63h16.13c3.79,0,6.71-.9,8.76-2.69,2.05-1.79,3.08-4.32,3.08-7.6Z"></path>
      <path class="cls-1" d="m363.97,56.48h-6.47v-5.38c-2.96,4.36-7.06,6.54-12.31,6.54s-9.13-2.03-12.27-6.08c-3.14-4.05-4.71-9.3-4.71-15.74s1.54-11.53,4.64-15.43c3.09-3.9,7.21-5.84,12.35-5.84,3.22,0,5.89.73,8.02,2.18,1.09.73,2.52,2.21,4.29,4.44v-5.45h6.47v40.75Zm-6.47-20.65c0-4.78-1-8.53-3-11.26-2-2.73-4.79-4.09-8.38-4.09s-6.09,1.35-7.99,4.05c-1.9,2.7-2.84,6.54-2.84,11.53s.95,8.91,2.84,11.61c1.9,2.7,4.58,4.05,8.06,4.05s6.36-1.39,8.34-4.17c1.97-2.78,2.96-6.69,2.96-11.73Z"></path>
      <path class="cls-1" d="m406.35,53.13c0,4.93-.65,8.83-1.95,11.69-2.65,5.87-8.23,8.8-16.75,8.8-4.31,0-7.87-.96-10.67-2.88-1.46-.99-2.52-2.09-3.19-3.31-.68-1.22-1.32-3.21-1.95-5.96h6.86c.67,2.34,1.71,4,3.12,4.99,1.4.99,3.45,1.48,6.15,1.48,4.05,0,7.04-1.14,8.96-3.43,1.71-2.03,2.57-5.66,2.57-10.91v-1.71h-.16c-.78,1.56-1.92,2.8-3.43,3.74-2.18,1.35-4.7,2.03-7.56,2.03-5.4,0-9.71-2.05-12.93-6.15-3.22-4.1-4.83-9.56-4.83-16.36,0-6.18,1.53-11.15,4.6-14.92,3.06-3.77,7.14-5.65,12.23-5.65,3.22,0,5.97.83,8.26,2.49,1.3.93,2.65,2.42,4.05,4.44h.16v-5.77h6.47v37.4Zm-6.54-16.13c0-10.85-3.77-16.28-11.3-16.28s-10.83,4.91-10.83,14.72c0,5.19.96,9.21,2.88,12.04,1.92,2.83,4.62,4.25,8.1,4.25s6.27-1.3,8.22-3.9c1.95-2.6,2.92-6.21,2.92-10.83Z"></path>
      <path class="cls-1" d="m446.16,56.48h-6.86v-25.09c0-3.74-.66-6.45-1.99-8.14-1.32-1.69-3.49-2.53-6.5-2.53-3.38,0-6.05,1.22-8.02,3.66-1.97,2.44-2.96,5.74-2.96,9.89v22.2h-6.86V15.74h6.47v5.77h.16c3.38-4.62,7.63-6.93,12.78-6.93,4.31,0,7.69,1.25,10.13,3.74,2.44,2.49,3.66,5.97,3.66,10.44v27.74Z"></path>
      <path class="cls-1" d="m490.64,36.07c0,6.34-1.75,11.5-5.26,15.5-3.51,4-8.04,6-13.59,6s-10.18-1.99-13.71-5.96c-3.53-3.97-5.3-9.1-5.3-15.39s1.74-11.66,5.22-15.66c3.48-4,8.05-6,13.71-6s10.17,2,13.67,6c3.51,4,5.26,9.17,5.26,15.5Zm-7.09,0c0-4.78-1.07-8.57-3.19-11.37-2.13-2.8-5.01-4.21-8.65-4.21s-6.52,1.4-8.65,4.21c-2.13,2.8-3.19,6.6-3.19,11.37s1.06,8.57,3.19,11.37c2.13,2.81,5.01,4.21,8.65,4.21s6.52-1.4,8.65-4.21c2.13-2.8,3.19-6.6,3.19-11.37Z"></path>
    </g>
  </g>
</svg>
