<svg xmlns="http://www.w3.org/2000/svg" id="fondo" viewBox="0 0 311.17 59.52"><defs><style>.cls-1{fill:#fff;}</style></defs><path class="cls-1" d="m43.92.18h-.44c-.56,0-1.49.22-1.49,1.7v26.21H3.61V1.88C3.61.81,3.02.18,2.03.18h-.44C.86.18,0,.47,0,1.88v55.91c0,1.4.86,1.69,1.58,1.69h.44c.99,0,1.58-.63,1.58-1.69v-26.3h38.38v26.3c0,1.47.93,1.69,1.49,1.69h.44c.72,0,1.58-.29,1.58-1.69V1.88c0-1.4-.86-1.7-1.58-1.7Z"></path><path class="cls-1" d="m87.33,0c-1.62,0-2.19.71-2.54,1.42l-22.55,56.81-.02.09c0,.4.85.97,1.52,1.14h0c.15.04.29.05.44.05.88,0,1.63-.62,2.07-1.74l7.84-19.71h26.38l7.93,19.71c.61,1.56,1.68,1.78,2.51,1.69.78-.17,1.62-.66,1.62-1.15v-.05L89.95,1.4c-.36-.73-.92-1.4-2.62-1.4Zm11.97,34.77h-23.94l11.97-30.23,11.97,30.23Z"></path><path class="cls-1" d="m241.78.18h-.44c-.72,0-1.58.29-1.58,1.7v55.91c0,1.4.86,1.69,1.58,1.69h.44c.99,0,1.58-.63,1.58-1.69V1.88c0-1.08-.58-1.7-1.58-1.7Z"></path><path class="cls-1" d="m161.62.36h-42.87c-1.05,0-1.67.57-1.67,1.51v.27c0,.93.64,1.51,1.67,1.51h19.72v54.12c0,.73.16,1.69,1.49,1.69h.44c.99,0,1.58-.63,1.58-1.69V3.66h19.63c1.07,0,1.76-.59,1.76-1.51v-.27c0-.92-.69-1.51-1.76-1.51Z"></path><path class="cls-1" d="m288.6,1.4c-.36-.73-.92-1.4-2.62-1.4s-2.19.71-2.54,1.42l-22.55,56.81-.02.09c0,.4.85.98,1.52,1.14h0c.15.04.29.05.44.05.88,0,1.63-.62,2.07-1.74l7.84-19.71h26.38l7.92,19.71c.61,1.56,1.69,1.78,2.51,1.69.78-.17,1.62-.66,1.62-1.15v-.05L288.6,1.4Zm9.35,33.37h-23.94l11.97-30.23,11.97,30.23Z"></path><path class="cls-1" d="m195.77,33.83h3.22c6.94.02,12.42-1.74,15.87-5.17,2.89-2.87,4.35-6.77,4.35-11.61,0-10.92-7.24-16.69-20.93-16.69h-15.27c-1.39,0-2.29.91-2.29,2.33v55.09c0,1.4.86,1.69,1.58,1.69h.36c.96,0,1.58-.67,1.58-1.69v-23.96h6.92l23.98,24.4c.84.85,1.52,1.25,2.13,1.25,1.06,0,1.79-.79,2-1.29.16-.38.04-.59-.04-.67l-23.46-23.69Zm19.74-16.69c0,8.69-5.96,13.48-16.79,13.48h-14.48V3.66h14.22c11.16,0,17.06,4.66,17.06,13.48Z"></path></svg>