<?xml version="1.0" encoding="utf-8"?>
<!-- Generator: Adobe Illustrator 15.1.0, SVG Export Plug-In . SVG Version: 6.00 Build 0)  -->
<!DOCTYPE svg PUBLIC "-//W3C//DTD SVG 1.1//EN" "http://www.w3.org/Graphics/SVG/1.1/DTD/svg11.dtd">
<svg version="1.1" id="Layer_1" xmlns="http://www.w3.org/2000/svg" xmlns:xlink="http://www.w3.org/1999/xlink" x="0px" y="0px"
	 width="338.452px" height="54.557px" viewBox="0 0 338.452 54.557" enable-background="new 0 0 338.452 54.557"
	 xml:space="preserve">
<polygon fill="#FDBA2F" points="12.342,41.546 0,41.546 12.342,53.888 "/>
<rect x="13.741" y="41.546" fill="#FDBA2F" width="12.342" height="12.342"/>
<polygon fill="#FDBA2F" points="39.824,41.546 27.482,41.546 27.482,53.888 "/>
<rect x="41.223" y="41.546" fill="#333333" width="12.342" height="12.342"/>
<rect y="27.805" fill="#FDBA2F" width="12.342" height="12.342"/>
<polygon fill="#FDBA2F" points="0,26.406 12.342,26.406 12.342,14.064 "/>
<rect y="0.323" fill="#333333" width="12.342" height="12.342"/>
<rect x="13.741" y="27.805" fill="#333333" width="12.342" height="12.342"/>
<rect x="13.741" y="14.064" fill="#FDBA2F" width="12.342" height="12.342"/>
<rect x="13.741" y="0.323" fill="#333333" width="12.342" height="12.342"/>
<rect x="27.482" y="27.805" fill="#333333" width="12.342" height="12.342"/>
<polygon fill="#FDBA2F" points="27.482,14.064 27.482,26.406 39.824,26.406 "/>
<rect x="27.482" y="0.323" fill="#333333" width="12.342" height="12.342"/>
<rect x="41.223" y="27.805" fill="#333333" width="12.342" height="12.342"/>
<rect x="41.223" y="14.064" fill="#333333" width="12.342" height="12.342"/>
<rect x="41.223" y="0.323" fill="#333333" width="12.342" height="12.342"/>
<polyline fill="#333333" points="12.343,14.063 0.001,14.063 0.001,26.405 "/>
<polygon fill="#333333" points="0.001,53.887 12.343,53.887 0.001,41.545 "/>
<polygon fill="#333333" points="39.825,26.406 39.825,14.064 27.483,14.064 "/>
<polygon fill="#333333" points="27.483,53.887 39.825,53.887 39.825,41.545 "/>
<path fill-rule="evenodd" clip-rule="evenodd" fill="#333333" d="M103.992,12.19h-0.738c-1.522-2.843-3.431-4.958-5.724-6.341
	c-2.294-1.384-5.019-2.076-8.172-2.076c-5.438,0-9.697,2.055-12.773,6.164c-3.078,4.109-4.616,9.801-4.616,17.072
	c0,7.248,1.605,13.013,4.817,17.296c3.211,4.283,7.501,6.426,12.873,6.426c2.776,0,5.388-0.645,7.838-1.933
	c2.45-1.289,4.782-3.257,6.999-5.91l0.763,0.412c-0.2,1.001-0.354,2.027-0.465,3.077c-0.111,1.052-0.188,2.14-0.231,3.265
	c-2.664,1.663-5.342,2.898-8.028,3.705c-2.688,0.806-5.464,1.209-8.33,1.209c-7.526,0-13.432-2.427-17.719-7.279
	c-4.29-4.854-6.433-11.5-6.433-19.937c0-8.336,2.252-14.908,6.761-19.71c4.508-4.803,10.678-7.205,18.507-7.205
	c2.729,0,5.447,0.335,8.154,1.004c2.707,0.671,5.491,1.701,8.356,3.091c-0.46,1.047-0.839,2.2-1.134,3.458
	C104.402,9.24,104.167,10.644,103.992,12.19"/>
<path fill-rule="evenodd" clip-rule="evenodd" fill="#333333" d="M135.262,54.323c-7.941,0-14.197-2.426-18.77-7.277
	c-4.575-4.85-6.86-11.468-6.86-19.847c0-8.429,2.279-15.07,6.843-19.921C121.037,2.428,127.278,0,135.196,0
	c8.073,0,14.352,2.382,18.836,7.147c4.483,4.764,6.727,11.448,6.727,20.052c0,8.505-2.244,15.153-6.727,19.94
	C149.548,51.928,143.291,54.323,135.262,54.323 M135.212,3.348c-5.674,0-10.066,2.042-13.182,6.123
	c-3.115,4.083-4.672,9.854-4.672,17.317c0,7.838,1.528,13.83,4.588,17.974c3.059,4.144,7.481,6.214,13.266,6.214
	c5.716,0,10.115-2.053,13.197-6.16c3.083-4.106,4.624-9.977,4.624-17.616c0-7.664-1.542-13.554-4.624-17.672
	C145.327,5.408,140.928,3.348,135.212,3.348"/>
<path fill-rule="evenodd" clip-rule="evenodd" fill="#333333" d="M166.652,53.505c1.61-9.146,2.986-18.175,4.127-27.084
	c1.14-8.91,2.034-17.637,2.684-26.187h2.617c3.557,8.004,6.93,15.428,10.117,22.272c3.188,6.844,6.226,13.208,9.112,19.093
	c3.063-6.208,6.16-12.747,9.293-19.616c3.132-6.868,6.33-14.119,9.597-21.75h2.618c0.693,9.248,1.51,18.306,2.448,27.178
	c0.94,8.872,2.002,17.568,3.188,26.093c-0.694-0.191-1.365-0.334-2.013-0.43c-0.65-0.097-1.286-0.145-1.913-0.145
	c-0.581,0-1.191,0.048-1.828,0.145c-0.637,0.096-1.336,0.239-2.097,0.43c-0.224-6.355-0.604-12.77-1.142-19.249
	c-0.537-6.478-1.229-13.044-2.079-19.696l-9.833,21.504c-1.656,3.61-3.043,6.816-4.161,9.617c-1.118,2.801-2.069,5.409-2.852,7.824
	c-0.089-0.05-0.19-0.088-0.302-0.113c-0.112-0.026-0.279-0.039-0.503-0.039c-0.225,0-0.398,0.013-0.521,0.039
	c-0.122,0.025-0.24,0.063-0.352,0.113c-2.751-6.628-5.593-13.144-8.522-19.548c-2.931-6.403-5.94-12.694-9.027-18.874l-1.979,21.205
	c-0.269,2.87-0.483,5.733-0.639,8.59c-0.156,2.856-0.268,5.734-0.334,8.627c-0.538-0.113-1.041-0.205-1.511-0.277
	c-0.47-0.07-0.928-0.107-1.375-0.107c-0.426,0-0.861,0.034-1.307,0.096C167.715,53.282,167.211,53.378,166.652,53.505"/>
<path fill-rule="evenodd" clip-rule="evenodd" fill="#333333" d="M232.13,37.773c0.127-5.182,0.191-10.314,0.191-15.396
	c0-4.333-0.064-8.233-0.191-11.694c-0.128-3.462-0.319-6.626-0.572-9.492c0.76,0.096,1.55,0.166,2.367,0.214
	c0.816,0.047,1.649,0.073,2.5,0.073c1.385,0,3.25-0.049,5.587-0.145c2.339-0.096,4.013-0.142,5.02-0.142
	c4.968,0,8.749,1.153,11.345,3.457c2.598,2.306,3.895,5.651,3.895,10.039c0,4.71-1.637,8.437-4.911,11.177
	c-3.275,2.742-7.761,4.112-13.458,4.112c-1.252,0-2.248-0.006-2.983-0.018c-0.738-0.013-1.442-0.019-2.114-0.019v6.373
	c0,2.734,0.032,5.525,0.096,8.373c0.063,2.846,0.159,5.785,0.287,8.818c-0.521-0.127-1.091-0.223-1.712-0.287
	c-0.624-0.063-1.317-0.096-2.087-0.096c-0.813,0-1.526,0.035-2.137,0.105c-0.611,0.072-1.175,0.162-1.694,0.277
	C231.811,48.199,232.001,42.956,232.13,37.773z M238.807,26.842c0.246,0.025,0.524,0.045,0.839,0.057
	c0.313,0.013,0.769,0.019,1.373,0.019c4.582,0,8.045-1.009,10.391-3.03c2.346-2.02,3.519-5.011,3.519-8.978
	c0-3.365-0.964-5.983-2.892-7.854s-4.627-2.805-8.101-2.805c-0.493,0-1.144,0.019-1.957,0.057c-0.813,0.038-1.744,0.105-2.79,0.204
	c-0.128,1.995-0.224,3.885-0.287,5.667c-0.064,1.783-0.096,3.359-0.096,4.73V26.842z"/>
<path fill-rule="evenodd" clip-rule="evenodd" fill="#333333" d="M258.337,53.505c3.265-8.148,6.567-16.604,9.909-25.364
	c3.341-8.76,6.834-18.062,10.477-27.906c0.312,0.064,0.607,0.111,0.887,0.142c0.279,0.033,0.529,0.049,0.753,0.049
	c0.268,0,0.536-0.017,0.803-0.049c0.269-0.031,0.525-0.078,0.771-0.142c3.063,8.978,6.216,17.906,9.459,26.785
	c3.241,8.878,6.561,17.706,9.96,26.485c-0.873-0.115-1.678-0.205-2.416-0.277c-0.738-0.07-1.439-0.107-2.111-0.107
	s-1.36,0.037-2.063,0.107c-0.706,0.072-1.437,0.162-2.197,0.277c-0.984-3.655-1.98-7.117-2.986-10.386
	c-1.008-3.27-2.046-6.384-3.119-9.342c-1.252-0.099-2.526-0.167-3.821-0.204c-1.296-0.038-2.604-0.057-3.921-0.057
	c-1.365,0-2.771,0.019-4.212,0.057c-1.443,0.037-2.937,0.104-4.481,0.204l-2.65,8.146c-0.58,1.787-1.125,3.65-1.638,5.586
	c-0.513,1.936-1.001,3.936-1.468,5.996c-0.516-0.127-1.017-0.223-1.51-0.287c-0.491-0.063-0.972-0.097-1.442-0.097
	c-0.447,0-0.913,0.034-1.393,0.097C259.45,53.282,258.919,53.378,258.337,53.505z M271.573,29.752
	c1.229,0.074,2.432,0.131,3.606,0.168c1.174,0.038,2.331,0.057,3.47,0.057c1.096,0,2.175-0.019,3.238-0.057
	c1.061-0.038,2.084-0.094,3.069-0.168l-6.607-19.051L271.573,29.752z"/>
<path fill-rule="evenodd" clip-rule="evenodd" fill="#333333" d="M306.307,53.521c0.252-5.329,0.444-10.583,0.572-15.763
	c0.127-5.18,0.191-10.308,0.191-15.388c0-4.357-0.064-8.261-0.191-11.709c-0.128-3.45-0.319-6.568-0.572-9.357
	c0.874,0.05,1.74,0.096,2.604,0.133c0.861,0.039,1.719,0.058,2.571,0.058c1.344,0,3.281-0.05,5.812-0.152
	c2.531-0.102,4.369-0.152,5.513-0.152c4.278,0,7.621,1.027,10.03,3.078c2.409,2.051,3.613,4.867,3.613,8.446
	c0,3.281-1.033,5.973-3.099,8.074s-5.132,3.587-9.194,4.457c4.898,0.35,8.505,1.583,10.822,3.701
	c2.316,2.123,3.474,5.251,3.474,9.39c0,4.663-1.623,8.359-4.867,11.09c-3.242,2.73-7.66,4.096-13.252,4.096
	c-0.65,0-1.947-0.048-3.894-0.143c-1.946-0.096-3.579-0.144-4.899-0.144c-0.917,0-1.812,0.024-2.684,0.07
	C307.982,53.354,307.134,53.425,306.307,53.521z M313.584,24.145c0.291,0.05,0.597,0.082,0.923,0.093
	c0.324,0.013,0.799,0.019,1.426,0.019c4.407,0,7.751-0.9,10.033-2.699c2.282-1.799,3.423-4.436,3.423-7.909
	c0-2.953-0.95-5.255-2.853-6.904c-1.901-1.649-4.575-2.476-8.02-2.476c-0.403,0-0.997,0.019-1.78,0.057s-1.722,0.104-2.817,0.203
	c-0.09,0.571-0.157,1.266-0.201,2.085c-0.045,0.818-0.068,2.147-0.068,3.981v3.054L313.584,24.145z M313.651,27.142V42.1
	c0,2.141,0.023,3.755,0.068,4.849c0.044,1.094,0.122,2.127,0.234,3.097c0.689,0.074,1.392,0.131,2.104,0.168
	c0.713,0.038,1.392,0.057,2.037,0.057c4.228,0,7.439-0.989,9.631-2.966c2.19-1.976,3.288-4.856,3.288-8.638
	c0-4.003-1.168-6.943-3.506-8.82c-2.336-1.876-6.02-2.816-11.049-2.816c-0.757,0-1.325,0.007-1.704,0.019
	C314.374,27.061,314.005,27.092,313.651,27.142z"/>
</svg>
