<?xml version="1.0" encoding="utf-8"?>
<!-- Generator: Adobe Illustrator 24.3.0, SVG Export Plug-In . SVG Version: 6.00 Build 0)  -->
<svg version="1.1" id="Livello_1" xmlns="http://www.w3.org/2000/svg" xmlns:xlink="http://www.w3.org/1999/xlink" x="0px" y="0px"
	 viewBox="0 0 50 5.5" style="enable-background:new 0 0 50 5.5;" xml:space="preserve">
<g id="logo_1_">
	<g id="lupo_2_">
		<path d="M2.1,1.6C2,1.6,1.9,1.7,1.8,1.9L1.8,2L0,2.7l0.7,0.8C0.8,3.6,1,3.7,1.1,3.7h1.6v1.8l2.7-2.7L2.7,0v1.3L2.1,1.6z"/>
	</g>
	<g id="flaminia_1_">
		<path d="M6.8,0h4.2v1.2H8.4v1h2.1v1.1H8.4v2.2H6.8V0z"/>
		<path d="M11.8,0h1.7v4.1h2.6v1.3h-4.3V0z"/>
		<path d="M20.3,4.6h-1.9l-0.3,0.9h-1.7L18.5,0h1.8l2.1,5.5h-1.8L20.3,4.6z M20,3.4l-0.6-2l-0.6,2H20z"/>
		<path d="M22.9,0h2.2L26,3.3L26.8,0H29v5.5h-1.4V1.3l-1.1,4.2h-1.3l-1.1-4.2v4.2h-1.4V0z"/>
		<path d="M30.2,0h1.7v5.5h-1.7V0z"/>
		<path d="M33.1,0h1.6l2.1,3V0h1.6v5.5h-1.6l-2-3v3h-1.6L33.1,0L33.1,0z"/>
		<path d="M39.6,0h1.7v5.5h-1.7V0z"/>
		<path d="M45.9,4.6H44l-0.3,0.9h-1.7L44,0h1.8l2.1,5.5h-1.8L45.9,4.6z M45.5,3.4l-0.6-2l-0.6,2H45.5z"/>
		<path d="M48.4,4H50v1.5h-1.6V4z"/>
	</g>
</g>
</svg>
