<?xml version="1.0" encoding="utf-8"?>
<!-- Generator: Adobe Illustrator 23.0.1, SVG Export Plug-In . SVG Version: 6.00 Build 0)  -->
<svg version="1.1" id="Layer_1" xmlns="http://www.w3.org/2000/svg" xmlns:xlink="http://www.w3.org/1999/xlink" x="0px" y="0px"
	 viewBox="0 0 314 165" style="enable-background:new 0 0 314 165;" xml:space="preserve">
<style type="text/css">
	.st0{fill-rule:evenodd;clip-rule:evenodd;fill:#2C4D63;}
	.st1{filter:url(#Adobe_OpacityMaskFilter);}
	.st2{fill-rule:evenodd;clip-rule:evenodd;fill:#FFFFFF;}
	.st3{mask:url(#mask-2_1_);}
</style>
<title>08E1F80E-8BC6-4829-8A0E-044E74131889</title>
<desc>Created with sketchtool.</desc>
<g id="Styles">
	<g id="Logo-IdealStandard-Corporate">
		<g>
			<g id="Mask">
				<path class="st0" d="M29.1,143.7c-1.1-1.1-2.2-1.8-3.2-2.2c-1-0.4-2-0.6-3.2-0.6c-2.2,0-3.9,0.8-5,2.5c-1.2,1.6-1.8,3.9-1.8,6.9
					c0,6.7,2.3,10,7,10c1.7,0,3.1-0.4,4.3-1.1c1.2-0.7,1.8-1.6,1.8-2.5V143.7z M29.3,161.2c-2,2-4.5,3-7.3,3c-3.5,0-6.2-1.2-8.1-3.5
					c-1.9-2.3-2.9-5.6-2.9-9.9c0-2.9,0.5-5.4,1.4-7.5c0.9-2.1,2.2-3.7,3.9-4.8c1.7-1.1,3.6-1.7,5.8-1.7c2.8,0,5.1,0.9,7.1,2.7v-12.9
					c0-1.3,1.1-2.4,2.4-2.4c1.3,0,2.4,1.1,2.4,2.4v35.1c0,0.9-0.7,1.6-1.6,1.6h-1.3c-0.9,0-1.6-0.7-1.6-1.6V161.2z M82.7,150.3h-1.6
					c-3.4,0-5.9,0.5-7.7,1.4c-1.8,0.9-2.6,2.3-2.6,4.2c0,1.4,0.4,2.4,1.2,3.1c0.8,0.7,2,1.1,3.5,1.1c1.2,0,2.4-0.2,3.5-0.7
					c1.1-0.4,2-1,2.7-1.7c0.7-0.7,1-1.3,1-1.8V150.3z M82.8,160.6c-1.2,1.2-2.4,2-3.8,2.5c-1.3,0.5-2.9,0.8-4.6,0.8
					c-2.6,0-4.7-0.7-6.1-2c-1.5-1.3-2.2-3.2-2.2-5.7c0-2.9,1.2-5.2,3.7-6.8c2.5-1.6,6-2.5,10.5-2.6c1.1,0,1.9,0,2.3,0.1V146
					c0-1.8-0.5-3.1-1.4-3.9c-0.9-0.8-2.4-1.2-4.4-1.2c-1.4,0-2.7,0.2-3.9,0.5c-0.6,0.2-1.3,0.4-1.9,0.8c0,0-0.5,0.3-0.6,0.4
					c-0.3,0.1-0.6,0.2-0.9,0.2c-1.1,0-2-0.9-2-2c0-0.6,0.2-1.1,0.6-1.4c0.3-0.3,0.7-0.6,1-0.8c1-0.6,2.2-1,3.7-1.3
					c1.5-0.3,3-0.5,4.5-0.5c3.5,0,6,0.7,7.5,2.2c1.5,1.5,2.3,4,2.3,7.4v15.2c0,0.9-0.7,1.6-1.6,1.6h-1.2c-0.9,0-1.6-0.7-1.6-1.6
					V160.6z M0,161.8v-33c0-1.3,1.1-2.4,2.4-2.4s2.4,1.1,2.4,2.4v33c0,0.9-0.7,1.6-1.6,1.6H1.6C0.7,163.4,0,162.7,0,161.8z
					 M57.6,147.1c0,0.4-0.3,0.7-0.8,0.7H44.6c0.1-2.2,0.8-3.9,2-5.2c1.2-1.3,2.8-1.9,4.8-1.9C55.3,140.7,57.3,142.8,57.6,147.1
					L57.6,147.1z M58.2,158.8c0.2-0.2,0.4-0.3,0.4-0.3c0.3-0.3,0.7-0.4,1.2-0.4c1.1,0,1.9,0.8,1.9,1.9c0,0.3-0.1,0.7-0.3,1
					c0,0,0,0.1-0.2,0.3c-0.2,0.3-0.5,0.5-0.8,0.8c-2,1.5-4.7,2.2-8.1,2.2c-4.1,0-7.2-1.2-9.3-3.6c-2.2-2.4-3.3-5.9-3.3-10.4
					c0-2.8,0.5-5.2,1.5-7.2c1-2,2.4-3.5,4.3-4.6c1.8-1.1,3.9-1.6,6.1-1.6c2.2,0,4.2,0.5,5.8,1.4c1.6,0.9,2.8,2.3,3.6,4
					c0.8,1.7,1.2,3.7,1.2,6v1.5c0,0.9-0.7,1.6-1.6,1.6H44.6c0.1,2.9,0.9,5.1,2.2,6.6c1.4,1.5,3.4,2.3,5.9,2.3
					C54.9,160.3,56.7,159.8,58.2,158.8z M194.7,138.6l0.6,1.6c1-1,2.3-1.8,3.8-2.4c1.5-0.6,3.1-0.9,4.8-0.9c2.2,0,4.1,0.5,5.5,1.5
					c1.4,1,2.4,2.4,2.8,4.3c0.3,1,0.4,2.7,0.4,5.1v14.2c0,0.8-0.7,1.5-1.5,1.5h-1.7c-0.8,0-1.5-0.7-1.5-1.5l0-14
					c0-1.8-0.1-3.1-0.3-3.8c-0.3-1-0.9-1.8-1.7-2.3c-0.8-0.5-2-0.7-3.5-0.7c-1.3,0-2.5,0.2-3.6,0.6c-1.1,0.4-1.9,0.9-2.5,1.5
					c-0.6,0.6-0.9,1.2-0.9,1.9l0,16.9c0,0.8-0.7,1.5-1.5,1.5h-1.7c-0.8,0-1.5-0.7-1.5-1.5v-22.6c0-1.1,0.9-2,2-2
					C193.6,137.3,194.4,137.8,194.7,138.6z M138.5,128.5c0.6,0.4,1.1,1.1,1.1,1.9c0,1.2-1,2.2-2.2,2.2c-0.5,0-0.9-0.2-1.3-0.4
					c-0.2-0.1-0.7-0.4-0.9-0.6c-0.7-0.4-1.3-0.7-2.1-0.9c-1.3-0.4-2.7-0.7-4-0.7c-2.2,0-3.9,0.5-5.1,1.5c-1.2,1-1.8,2.3-1.8,4.1
					c0,1,0.2,1.9,0.7,2.6c0.5,0.8,1.2,1.4,2.3,2c1.1,0.6,2.8,1.3,5.1,2c3.4,1.1,5.8,2.5,7.4,4.2c1.5,1.7,2.3,3.9,2.3,6.5
					c0,3.5-1.1,6.2-3.3,8.2c-2.2,2-5.3,3-9.2,3c-2,0-3.9-0.2-5.7-0.7c-1.8-0.4-3.1-1-4.1-1.8c-0.4-0.3-1-0.8-1.2-1.1
					c-0.3-0.4-0.4-0.8-0.4-1.3c0-1.2,1-2.2,2.2-2.2c0.4,0,0.8,0.1,1.2,0.3c0,0,0.4,0.3,0.7,0.4c0.7,0.4,1.5,0.8,2.3,1.1
					c1.6,0.6,3.3,0.9,4.9,0.9c2.4,0,4.3-0.6,5.6-1.7c1.3-1.1,1.9-2.7,1.9-4.7c0-1.2-0.2-2.3-0.7-3.1c-0.4-0.9-1.2-1.6-2.2-2.3
					c-1-0.6-2.5-1.3-4.5-1.9c-2.8-0.8-4.9-1.7-6.3-2.6c-1.4-0.9-2.5-2-3.2-3.3c-0.7-1.3-1-2.8-1-4.6c0-2.1,0.5-4,1.5-5.5
					c1-1.5,2.4-2.7,4.2-3.5c1.8-0.8,3.8-1.2,6.2-1.2c1.5,0,3,0.2,4.5,0.6C136.2,127,138.1,128.3,138.5,128.5z M236.7,143.7
					c-1.1-1.1-2.2-1.8-3.2-2.2c-1-0.4-2-0.6-3.2-0.6c-2.2,0-3.9,0.8-5,2.5c-1.2,1.6-1.8,3.9-1.8,6.9c0,6.7,2.3,10,7,10
					c1.7,0,3.1-0.4,4.3-1.1c1.2-0.7,1.8-1.6,1.8-2.5V143.7z M236.8,161.2c-2,2-4.5,3-7.3,3c-3.5,0-6.2-1.2-8.1-3.5
					c-1.9-2.3-2.9-5.6-2.9-9.9c0-2.9,0.5-5.4,1.4-7.5c0.9-2.1,2.2-3.7,3.9-4.8c1.7-1.1,3.6-1.7,5.8-1.7c2.8,0,5.1,0.9,7.1,2.7v-12.9
					c0-1.3,1.1-2.4,2.4-2.4s2.4,1.1,2.4,2.4v35.1c0,0.9-0.7,1.6-1.6,1.6h-1.3c-0.9,0-1.6-0.7-1.6-1.6V161.2z M179.4,150.3h-1.6
					c-3.4,0-5.9,0.5-7.7,1.4c-1.8,0.9-2.6,2.3-2.6,4.2c0,1.4,0.4,2.4,1.2,3.1c0.8,0.7,2,1.1,3.5,1.1c1.2,0,2.4-0.2,3.5-0.7
					c1.1-0.4,2-1,2.7-1.7c0.7-0.7,1-1.3,1-1.8V150.3z M179.5,160.6c-1.2,1.2-2.4,2-3.8,2.5c-1.3,0.5-2.9,0.8-4.6,0.8
					c-2.6,0-4.7-0.7-6.1-2c-1.5-1.3-2.2-3.2-2.2-5.7c0-2.9,1.2-5.2,3.7-6.8c2.5-1.6,6-2.5,10.5-2.6c1.1,0,1.9,0,2.3,0.1V146
					c0-1.8-0.5-3.1-1.4-3.9c-0.9-0.8-2.4-1.2-4.4-1.2c-1.4,0-2.7,0.2-3.9,0.5c-0.6,0.2-1.3,0.4-1.9,0.8c0,0-0.5,0.3-0.6,0.4
					c-0.3,0.1-0.6,0.2-0.9,0.2c-1.1,0-2-0.9-2-2c0-0.6,0.2-1.1,0.6-1.4c0.3-0.3,0.7-0.6,1-0.8c1-0.6,2.2-1,3.7-1.3
					c1.5-0.3,3-0.5,4.5-0.5c3.5,0,6,0.7,7.5,2.2c1.5,1.5,2.3,4,2.3,7.4v15.2c0,0.9-0.7,1.6-1.6,1.6h-1.2c-0.9,0-1.6-0.7-1.6-1.6
					V160.6z M263.5,150.3h-1.6c-3.4,0-5.9,0.5-7.7,1.4c-1.8,0.9-2.6,2.3-2.6,4.2c0,1.4,0.4,2.4,1.2,3.1c0.8,0.7,2,1.1,3.5,1.1
					c1.2,0,2.4-0.2,3.5-0.7c1.1-0.4,2-1,2.7-1.7c0.7-0.7,1-1.3,1-1.8V150.3z M263.6,160.6c-1.2,1.2-2.4,2-3.8,2.5
					c-1.3,0.5-2.9,0.8-4.6,0.8c-2.6,0-4.7-0.7-6.1-2c-1.5-1.3-2.2-3.2-2.2-5.7c0-2.9,1.2-5.2,3.7-6.8c2.5-1.6,6-2.5,10.5-2.6
					c1.1,0,1.9,0,2.3,0.1V146c0-1.8-0.5-3.1-1.4-3.9c-0.9-0.8-2.4-1.2-4.4-1.2c-1.4,0-2.7,0.2-3.9,0.5c-0.6,0.2-1.3,0.4-1.9,0.8
					c0,0-0.5,0.3-0.6,0.4c-0.3,0.1-0.6,0.2-0.9,0.2c-1.1,0-2-0.9-2-2c0-0.6,0.2-1.1,0.6-1.4c0.3-0.3,0.7-0.6,1-0.8
					c1-0.6,2.2-1,3.7-1.3c1.5-0.3,3-0.5,4.5-0.5c3.5,0,6,0.7,7.5,2.2c1.5,1.5,2.3,4,2.3,7.4v15.2c0,0.9-0.7,1.6-1.6,1.6h-1.2
					c-0.9,0-1.6-0.7-1.6-1.6V160.6z M308.6,143.7c-1.1-1.1-2.2-1.8-3.2-2.2c-1-0.4-2-0.6-3.2-0.6c-2.2,0-3.9,0.8-5,2.5
					c-1.2,1.6-1.8,3.9-1.8,6.9c0,6.7,2.3,10,7,10c1.7,0,3.1-0.4,4.3-1.1c1.2-0.7,1.8-1.6,1.8-2.5V143.7z M308.7,161.2
					c-2,2-4.5,3-7.3,3c-3.5,0-6.2-1.2-8.1-3.5c-1.9-2.3-2.9-5.6-2.9-9.9c0-2.9,0.5-5.4,1.4-7.5c0.9-2.1,2.2-3.7,3.9-4.8
					c1.7-1.1,3.6-1.7,5.8-1.7c2.8,0,5.1,0.9,7.1,2.7l0-12.9c0-1.3,1.1-2.4,2.4-2.4s2.4,1.1,2.4,2.4v35.1c0,0.9-0.7,1.6-1.6,1.6h-1.3
					c-0.9,0-1.6-0.7-1.6-1.6V161.2z M159.5,162.1c-0.5,0.5-1.5,1.3-3.1,1.7c-1,0.3-2.1,0.4-3.3,0.4c-3.7,0-6-1.4-7-4.1
					c-0.4-1-0.6-2.6-0.6-4.7v-23.5c0-1.3,1.1-2.3,2.4-2.3c1.3,0,2.4,1.1,2.4,2.3v5.7h6.6c0.9,0,1.6,0.7,1.6,1.6v0.7
					c0,0.9-0.7,1.6-1.6,1.6h-6.6v14.2c0,3,1.2,4.5,3.6,4.5c0.6,0,1.3-0.1,1.9-0.4c0.5-0.2,1-0.5,1.4-0.8c0.3-0.2,0.7-0.4,1.1-0.4
					c0.4,0,0.7,0.1,1,0.3c0.5,0.3,0.9,1,0.9,1.6C160.1,161.2,159.8,161.7,159.5,162.1z M286.4,141.7c-0.7-0.2-1.2-0.3-2-0.3
					c-1.3,0-2.4,0.4-3.3,1.1c-1,0.8-1.4,1.6-1.4,2.6v16.8h0c0,0.8-0.7,1.5-1.5,1.5h-1.7c-0.8,0-1.5-0.7-1.5-1.5v-22.7
					c0-1.1,0.9-2,2-2c0.9,0,1.6,0.6,1.9,1.3l0.6,1.6c0.6-1,1.5-1.7,2.6-2.3c1.1-0.6,2.2-0.9,3.4-0.9c0.5,0,0.9,0,1.4,0.1
					c0.7,0.1,1.3,0.3,1.8,0.6c0.7,0.4,1.1,1.1,1.1,2c0,1.3-1.1,2.4-2.4,2.4C286.9,141.9,286.6,141.8,286.4,141.7z M99.1,159.3
					c0.4,0.3,1.4,0.6,2.1,0.7c0.9,0.2,1.6,0.8,1.6,1.9s-0.9,1.8-2,1.8c-1.1,0-2.1,0.1-3-0.1c-0.9-0.2-1.6-0.5-2.2-1
					c-0.6-0.5-1.1-1.1-1.4-2c-0.3-0.9-0.5-2-0.5-3.3v-30.8c0-1.3,1.1-2.3,2.4-2.3c1.3,0,2.4,1.1,2.4,2.3v30.6
					C98.5,158.4,98.6,158.9,99.1,159.3z M181.6,0.4c24,0,50,18.3,50,49.8c0,29-23.6,49.8-50,49.8c-0.1,0-0.2,0-0.3,0
					c-2.4,0-4.4-1.9-4.4-4.3s1.9-4.3,4.4-4.3c0,0,0.2,0,0.3,0c23.5,0,40.8-18,40.8-41.1c0-23.9-18.5-41.2-40.9-41.2
					c-22.9,0-40.9,17.5-40.9,41.2c0,7.2,2,14,5.6,20.2c0,0.1,0.2,0.4,0.3,0.5c1,2.1,0.1,4.7-1.9,5.8c-2.1,1.2-4.8,0.5-6.1-1.5
					c0,0,0,0,0,0c-0.2-0.4-0.4-0.6-0.5-0.8c-4.2-7.4-6.5-15.8-6.5-24.3C131.7,18.8,157.5,0.4,181.6,0.4z M175.4,25.9
					c4.2,7.4,6.4,15.8,6.4,24.4c0,31.5-25.8,49.8-50,49.8c-23.5,0-50-18.3-50-49.8c0-29,23.6-49.8,50-49.8c0,0,0.2,0,0.3,0
					c2.5,0,4.4,2,4.4,4.4c0,2.4-2,4.4-4.4,4.4c0,0,0,0,0,0c-0.1,0-0.2,0-0.3,0C109,9.3,91,27.2,91,50.2c0,22.9,17.9,41.2,40.9,41.2
					c23.7,0,40.9-17.7,40.9-41.2c0-7.2-2-14.1-5.6-20.3c-0.1-0.1-0.2-0.3-0.2-0.4c-0.4-0.7-0.6-1.4-0.6-2.3c0-2.5,2.1-4.6,4.6-4.6
					c1.7,0,3.1,0.9,3.9,2.2C175.1,25.4,175.4,25.7,175.4,25.9z"/>
			</g>
			<defs>
				<filter id="Adobe_OpacityMaskFilter" filterUnits="userSpaceOnUse" x="0" y="0" width="314" height="165">
					<feColorMatrix  type="matrix" values="1 0 0 0 0  0 1 0 0 0  0 0 1 0 0  0 0 0 1 0"/>
				</filter>
			</defs>
			<mask maskUnits="userSpaceOnUse" x="0" y="0" width="314" height="165" id="mask-2_1_">
				<g class="st1">
					<path id="path-1_1_" class="st2" d="M29.1,143.7c-1.1-1.1-2.2-1.8-3.2-2.2c-1-0.4-2-0.6-3.2-0.6c-2.2,0-3.9,0.8-5,2.5
						c-1.2,1.6-1.8,3.9-1.8,6.9c0,6.7,2.3,10,7,10c1.7,0,3.1-0.4,4.3-1.1c1.2-0.7,1.8-1.6,1.8-2.5V143.7z M29.3,161.2
						c-2,2-4.5,3-7.3,3c-3.5,0-6.2-1.2-8.1-3.5c-1.9-2.3-2.9-5.6-2.9-9.9c0-2.9,0.5-5.4,1.4-7.5c0.9-2.1,2.2-3.7,3.9-4.8
						c1.7-1.1,3.6-1.7,5.8-1.7c2.8,0,5.1,0.9,7.1,2.7v-12.9c0-1.3,1.1-2.4,2.4-2.4c1.3,0,2.4,1.1,2.4,2.4v35.1
						c0,0.9-0.7,1.6-1.6,1.6h-1.3c-0.9,0-1.6-0.7-1.6-1.6V161.2z M82.7,150.3h-1.6c-3.4,0-5.9,0.5-7.7,1.4c-1.8,0.9-2.6,2.3-2.6,4.2
						c0,1.4,0.4,2.4,1.2,3.1c0.8,0.7,2,1.1,3.5,1.1c1.2,0,2.4-0.2,3.5-0.7c1.1-0.4,2-1,2.7-1.7c0.7-0.7,1-1.3,1-1.8V150.3z
						 M82.8,160.6c-1.2,1.2-2.4,2-3.8,2.5c-1.3,0.5-2.9,0.8-4.6,0.8c-2.6,0-4.7-0.7-6.1-2c-1.5-1.3-2.2-3.2-2.2-5.7
						c0-2.9,1.2-5.2,3.7-6.8c2.5-1.6,6-2.5,10.5-2.6c1.1,0,1.9,0,2.3,0.1V146c0-1.8-0.5-3.1-1.4-3.9c-0.9-0.8-2.4-1.2-4.4-1.2
						c-1.4,0-2.7,0.2-3.9,0.5c-0.6,0.2-1.3,0.4-1.9,0.8c0,0-0.5,0.3-0.6,0.4c-0.3,0.1-0.6,0.2-0.9,0.2c-1.1,0-2-0.9-2-2
						c0-0.6,0.2-1.1,0.6-1.4c0.3-0.3,0.7-0.6,1-0.8c1-0.6,2.2-1,3.7-1.3c1.5-0.3,3-0.5,4.5-0.5c3.5,0,6,0.7,7.5,2.2
						c1.5,1.5,2.3,4,2.3,7.4v15.2c0,0.9-0.7,1.6-1.6,1.6h-1.2c-0.9,0-1.6-0.7-1.6-1.6V160.6z M0,161.8v-33c0-1.3,1.1-2.4,2.4-2.4
						s2.4,1.1,2.4,2.4v33c0,0.9-0.7,1.6-1.6,1.6H1.6C0.7,163.4,0,162.7,0,161.8z M57.6,147.1c0,0.4-0.3,0.7-0.8,0.7H44.6
						c0.1-2.2,0.8-3.9,2-5.2c1.2-1.3,2.8-1.9,4.8-1.9C55.3,140.7,57.3,142.8,57.6,147.1L57.6,147.1z M58.2,158.8
						c0.2-0.2,0.4-0.3,0.4-0.3c0.3-0.3,0.7-0.4,1.2-0.4c1.1,0,1.9,0.8,1.9,1.9c0,0.3-0.1,0.7-0.3,1c0,0,0,0.1-0.2,0.3
						c-0.2,0.3-0.5,0.5-0.8,0.8c-2,1.5-4.7,2.2-8.1,2.2c-4.1,0-7.2-1.2-9.3-3.6c-2.2-2.4-3.3-5.9-3.3-10.4c0-2.8,0.5-5.2,1.5-7.2
						c1-2,2.4-3.5,4.3-4.6c1.8-1.1,3.9-1.6,6.1-1.6c2.2,0,4.2,0.5,5.8,1.4c1.6,0.9,2.8,2.3,3.6,4c0.8,1.7,1.2,3.7,1.2,6v1.5
						c0,0.9-0.7,1.6-1.6,1.6H44.6c0.1,2.9,0.9,5.1,2.2,6.6c1.4,1.5,3.4,2.3,5.9,2.3C54.9,160.3,56.7,159.8,58.2,158.8z M194.7,138.6
						l0.6,1.6c1-1,2.3-1.8,3.8-2.4c1.5-0.6,3.1-0.9,4.8-0.9c2.2,0,4.1,0.5,5.5,1.5c1.4,1,2.4,2.4,2.8,4.3c0.3,1,0.4,2.7,0.4,5.1
						v14.2c0,0.8-0.7,1.5-1.5,1.5h-1.7c-0.8,0-1.5-0.7-1.5-1.5l0-14c0-1.8-0.1-3.1-0.3-3.8c-0.3-1-0.9-1.8-1.7-2.3
						c-0.8-0.5-2-0.7-3.5-0.7c-1.3,0-2.5,0.2-3.6,0.6c-1.1,0.4-1.9,0.9-2.5,1.5c-0.6,0.6-0.9,1.2-0.9,1.9l0,16.9
						c0,0.8-0.7,1.5-1.5,1.5h-1.7c-0.8,0-1.5-0.7-1.5-1.5v-22.6c0-1.1,0.9-2,2-2C193.6,137.3,194.4,137.8,194.7,138.6z M138.5,128.5
						c0.6,0.4,1.1,1.1,1.1,1.9c0,1.2-1,2.2-2.2,2.2c-0.5,0-0.9-0.2-1.3-0.4c-0.2-0.1-0.7-0.4-0.9-0.6c-0.7-0.4-1.3-0.7-2.1-0.9
						c-1.3-0.4-2.7-0.7-4-0.7c-2.2,0-3.9,0.5-5.1,1.5c-1.2,1-1.8,2.3-1.8,4.1c0,1,0.2,1.9,0.7,2.6c0.5,0.8,1.2,1.4,2.3,2
						c1.1,0.6,2.8,1.3,5.1,2c3.4,1.1,5.8,2.5,7.4,4.2c1.5,1.7,2.3,3.9,2.3,6.5c0,3.5-1.1,6.2-3.3,8.2c-2.2,2-5.3,3-9.2,3
						c-2,0-3.9-0.2-5.7-0.7c-1.8-0.4-3.1-1-4.1-1.8c-0.4-0.3-1-0.8-1.2-1.1c-0.3-0.4-0.4-0.8-0.4-1.3c0-1.2,1-2.2,2.2-2.2
						c0.4,0,0.8,0.1,1.2,0.3c0,0,0.4,0.3,0.7,0.4c0.7,0.4,1.5,0.8,2.3,1.1c1.6,0.6,3.3,0.9,4.9,0.9c2.4,0,4.3-0.6,5.6-1.7
						c1.3-1.1,1.9-2.7,1.9-4.7c0-1.2-0.2-2.3-0.7-3.1c-0.4-0.9-1.2-1.6-2.2-2.3c-1-0.6-2.5-1.3-4.5-1.9c-2.8-0.8-4.9-1.7-6.3-2.6
						c-1.4-0.9-2.5-2-3.2-3.3c-0.7-1.3-1-2.8-1-4.6c0-2.1,0.5-4,1.5-5.5c1-1.5,2.4-2.7,4.2-3.5c1.8-0.8,3.8-1.2,6.2-1.2
						c1.5,0,3,0.2,4.5,0.6C136.2,127,138.1,128.3,138.5,128.5z M236.7,143.7c-1.1-1.1-2.2-1.8-3.2-2.2c-1-0.4-2-0.6-3.2-0.6
						c-2.2,0-3.9,0.8-5,2.5c-1.2,1.6-1.8,3.9-1.8,6.9c0,6.7,2.3,10,7,10c1.7,0,3.1-0.4,4.3-1.1c1.2-0.7,1.8-1.6,1.8-2.5V143.7z
						 M236.8,161.2c-2,2-4.5,3-7.3,3c-3.5,0-6.2-1.2-8.1-3.5c-1.9-2.3-2.9-5.6-2.9-9.9c0-2.9,0.5-5.4,1.4-7.5
						c0.9-2.1,2.2-3.7,3.9-4.8c1.7-1.1,3.6-1.7,5.8-1.7c2.8,0,5.1,0.9,7.1,2.7v-12.9c0-1.3,1.1-2.4,2.4-2.4s2.4,1.1,2.4,2.4v35.1
						c0,0.9-0.7,1.6-1.6,1.6h-1.3c-0.9,0-1.6-0.7-1.6-1.6V161.2z M179.4,150.3h-1.6c-3.4,0-5.9,0.5-7.7,1.4
						c-1.8,0.9-2.6,2.3-2.6,4.2c0,1.4,0.4,2.4,1.2,3.1c0.8,0.7,2,1.1,3.5,1.1c1.2,0,2.4-0.2,3.5-0.7c1.1-0.4,2-1,2.7-1.7
						c0.7-0.7,1-1.3,1-1.8V150.3z M179.5,160.6c-1.2,1.2-2.4,2-3.8,2.5c-1.3,0.5-2.9,0.8-4.6,0.8c-2.6,0-4.7-0.7-6.1-2
						c-1.5-1.3-2.2-3.2-2.2-5.7c0-2.9,1.2-5.2,3.7-6.8c2.5-1.6,6-2.5,10.5-2.6c1.1,0,1.9,0,2.3,0.1V146c0-1.8-0.5-3.1-1.4-3.9
						c-0.9-0.8-2.4-1.2-4.4-1.2c-1.4,0-2.7,0.2-3.9,0.5c-0.6,0.2-1.3,0.4-1.9,0.8c0,0-0.5,0.3-0.6,0.4c-0.3,0.1-0.6,0.2-0.9,0.2
						c-1.1,0-2-0.9-2-2c0-0.6,0.2-1.1,0.6-1.4c0.3-0.3,0.7-0.6,1-0.8c1-0.6,2.2-1,3.7-1.3c1.5-0.3,3-0.5,4.5-0.5
						c3.5,0,6,0.7,7.5,2.2c1.5,1.5,2.3,4,2.3,7.4v15.2c0,0.9-0.7,1.6-1.6,1.6h-1.2c-0.9,0-1.6-0.7-1.6-1.6V160.6z M263.5,150.3h-1.6
						c-3.4,0-5.9,0.5-7.7,1.4c-1.8,0.9-2.6,2.3-2.6,4.2c0,1.4,0.4,2.4,1.2,3.1c0.8,0.7,2,1.1,3.5,1.1c1.2,0,2.4-0.2,3.5-0.7
						c1.1-0.4,2-1,2.7-1.7c0.7-0.7,1-1.3,1-1.8V150.3z M263.6,160.6c-1.2,1.2-2.4,2-3.8,2.5c-1.3,0.5-2.9,0.8-4.6,0.8
						c-2.6,0-4.7-0.7-6.1-2c-1.5-1.3-2.2-3.2-2.2-5.7c0-2.9,1.2-5.2,3.7-6.8c2.5-1.6,6-2.5,10.5-2.6c1.1,0,1.9,0,2.3,0.1V146
						c0-1.8-0.5-3.1-1.4-3.9c-0.9-0.8-2.4-1.2-4.4-1.2c-1.4,0-2.7,0.2-3.9,0.5c-0.6,0.2-1.3,0.4-1.9,0.8c0,0-0.5,0.3-0.6,0.4
						c-0.3,0.1-0.6,0.2-0.9,0.2c-1.1,0-2-0.9-2-2c0-0.6,0.2-1.1,0.6-1.4c0.3-0.3,0.7-0.6,1-0.8c1-0.6,2.2-1,3.7-1.3
						c1.5-0.3,3-0.5,4.5-0.5c3.5,0,6,0.7,7.5,2.2c1.5,1.5,2.3,4,2.3,7.4v15.2c0,0.9-0.7,1.6-1.6,1.6h-1.2c-0.9,0-1.6-0.7-1.6-1.6
						V160.6z M308.6,143.7c-1.1-1.1-2.2-1.8-3.2-2.2c-1-0.4-2-0.6-3.2-0.6c-2.2,0-3.9,0.8-5,2.5c-1.2,1.6-1.8,3.9-1.8,6.9
						c0,6.7,2.3,10,7,10c1.7,0,3.1-0.4,4.3-1.1c1.2-0.7,1.8-1.6,1.8-2.5V143.7z M308.7,161.2c-2,2-4.5,3-7.3,3
						c-3.5,0-6.2-1.2-8.1-3.5c-1.9-2.3-2.9-5.6-2.9-9.9c0-2.9,0.5-5.4,1.4-7.5c0.9-2.1,2.2-3.7,3.9-4.8c1.7-1.1,3.6-1.7,5.8-1.7
						c2.8,0,5.1,0.9,7.1,2.7l0-12.9c0-1.3,1.1-2.4,2.4-2.4s2.4,1.1,2.4,2.4v35.1c0,0.9-0.7,1.6-1.6,1.6h-1.3c-0.9,0-1.6-0.7-1.6-1.6
						V161.2z M159.5,162.1c-0.5,0.5-1.5,1.3-3.1,1.7c-1,0.3-2.1,0.4-3.3,0.4c-3.7,0-6-1.4-7-4.1c-0.4-1-0.6-2.6-0.6-4.7v-23.5
						c0-1.3,1.1-2.3,2.4-2.3c1.3,0,2.4,1.1,2.4,2.3v5.7h6.6c0.9,0,1.6,0.7,1.6,1.6v0.7c0,0.9-0.7,1.6-1.6,1.6h-6.6v14.2
						c0,3,1.2,4.5,3.6,4.5c0.6,0,1.3-0.1,1.9-0.4c0.5-0.2,1-0.5,1.4-0.8c0.3-0.2,0.7-0.4,1.1-0.4c0.4,0,0.7,0.1,1,0.3
						c0.5,0.3,0.9,1,0.9,1.6C160.1,161.2,159.8,161.7,159.5,162.1z M286.4,141.7c-0.7-0.2-1.2-0.3-2-0.3c-1.3,0-2.4,0.4-3.3,1.1
						c-1,0.8-1.4,1.6-1.4,2.6v16.8h0c0,0.8-0.7,1.5-1.5,1.5h-1.7c-0.8,0-1.5-0.7-1.5-1.5v-22.7c0-1.1,0.9-2,2-2
						c0.9,0,1.6,0.6,1.9,1.3l0.6,1.6c0.6-1,1.5-1.7,2.6-2.3c1.1-0.6,2.2-0.9,3.4-0.9c0.5,0,0.9,0,1.4,0.1c0.7,0.1,1.3,0.3,1.8,0.6
						c0.7,0.4,1.1,1.1,1.1,2c0,1.3-1.1,2.4-2.4,2.4C286.9,141.9,286.6,141.8,286.4,141.7z M99.1,159.3c0.4,0.3,1.4,0.6,2.1,0.7
						c0.9,0.2,1.6,0.8,1.6,1.9s-0.9,1.8-2,1.8c-1.1,0-2.1,0.1-3-0.1c-0.9-0.2-1.6-0.5-2.2-1c-0.6-0.5-1.1-1.1-1.4-2
						c-0.3-0.9-0.5-2-0.5-3.3v-30.8c0-1.3,1.1-2.3,2.4-2.3c1.3,0,2.4,1.1,2.4,2.3v30.6C98.5,158.4,98.6,158.9,99.1,159.3z
						 M181.6,0.4c24,0,50,18.3,50,49.8c0,29-23.6,49.8-50,49.8c-0.1,0-0.2,0-0.3,0c-2.4,0-4.4-1.9-4.4-4.3s1.9-4.3,4.4-4.3
						c0,0,0.2,0,0.3,0c23.5,0,40.8-18,40.8-41.1c0-23.9-18.5-41.2-40.9-41.2c-22.9,0-40.9,17.5-40.9,41.2c0,7.2,2,14,5.6,20.2
						c0,0.1,0.2,0.4,0.3,0.5c1,2.1,0.1,4.7-1.9,5.8c-2.1,1.2-4.8,0.5-6.1-1.5c0,0,0,0,0,0c-0.2-0.4-0.4-0.6-0.5-0.8
						c-4.2-7.4-6.5-15.8-6.5-24.3C131.7,18.8,157.5,0.4,181.6,0.4z M175.4,25.9c4.2,7.4,6.4,15.8,6.4,24.4c0,31.5-25.8,49.8-50,49.8
						c-23.5,0-50-18.3-50-49.8c0-29,23.6-49.8,50-49.8c0,0,0.2,0,0.3,0c2.5,0,4.4,2,4.4,4.4c0,2.4-2,4.4-4.4,4.4c0,0,0,0,0,0
						c-0.1,0-0.2,0-0.3,0C109,9.3,91,27.2,91,50.2c0,22.9,17.9,41.2,40.9,41.2c23.7,0,40.9-17.7,40.9-41.2c0-7.2-2-14.1-5.6-20.3
						c-0.1-0.1-0.2-0.3-0.2-0.4c-0.4-0.7-0.6-1.4-0.6-2.3c0-2.5,2.1-4.6,4.6-4.6c1.7,0,3.1,0.9,3.9,2.2
						C175.1,25.4,175.4,25.7,175.4,25.9z"/>
				</g>
			</mask>
			<g class="st3">
				<rect id="Rectangle-11" y="0" class="st2" width="314" height="165"/>
			</g>
		</g>
	</g>
</g>
</svg>
