<svg xmlns="http://www.w3.org/2000/svg" width="174" height="23" viewBox="0 0 174 23"><g fill-rule="evenodd"><path d="M93.1902032,13.5440556 C93.1902032,18.2386111 89.4515175,20.1758333 86.3028603,20.1758333 C83.4403333,20.1758333 79.6385397,18.2111111 79.6385397,13.453 L79.6385397,0.0354444444 L77.1534349,0.0354444444 L77.1534349,13.4493333 C77.1534349,20.1098333 81.8185206,22.5842222 86.2078921,22.5842222 C90.8509206,22.5842222 95.6753079,20.0193889 95.6753079,13.453 L95.6753079,0.0354444444 L93.1902032,0.0354444444 L93.1902032,13.5440556 Z"/><polygon points="45.862 .029 30.387 .029 30.387 2.253 43.946 2.253"/><polygon points="51.281 .047 48.101 .047 29.959 22.121 33.124 22.121 33.135 22.107 51.387 22.107 51.387 19.884 34.964 19.884"/><polygon points="158.237 .078 145.505 22.196 148.548 22.196 161.134 .069"/><polygon points="162.592 2.898 161.076 5.436 170.663 22.208 173.678 22.208"/><polygon points="12.731 .009 0 22.127 3.043 22.127 15.629 0"/><polygon points="15.571 5.366 25.158 22.139 28.173 22.139 17.087 2.829"/><polygon points="124.478 6.262 124.477 22.133 127.005 22.131 127.001 8.399"/><polygon points="138.088 13.78 138.088 13.78 138.086 13.78"/><path d="M145.031596,6.95621667 C145.031596,3.13005 141.921539,0.13255 138.086047,0.13255 L138.087885,0.126438889 L124.411231,0.130716667 L126.999269,2.31055 L137.617945,2.30566111 L137.511949,2.30566111 C139.966418,2.30566111 142.615114,4.13288333 142.615114,6.84438333 C142.615114,9.53877222 140.090183,11.5688833 137.635714,11.5688833 L137.531555,11.5701056 L130.848241,11.5743833 L130.752047,11.8176056 L129.838514,13.7034944 L140.021561,22.1728833 L143.588079,22.1673833 L133.445469,13.7792722 L138.087885,13.7798833 C141.922764,13.7792722 145.031596,10.7817722 145.031596,6.95621667"/><polygon points="100.224 6.262 100.223 22.133 102.752 22.131 102.747 8.399"/><polygon points="113.834 13.78 113.834 13.78 113.832 13.78"/><path d="M120.778113,6.95621667 C120.778113,3.13005 117.668056,0.13255 113.832564,0.13255 L113.83379,0.126438889 L100.157748,0.130716667 L102.745786,2.31055 L113.364463,2.30566111 L113.258466,2.30566111 C115.712936,2.30566111 118.361631,4.13288333 118.361631,6.84438333 C118.361631,9.53877222 115.836701,11.5688833 113.382231,11.5688833 L113.278072,11.5701056 L106.594758,11.5743833 L106.498564,11.8176056 L105.585031,13.7034944 L115.768078,22.1728833 L119.334596,22.1673833 L109.191986,13.7792722 L113.83379,13.7798833 C117.669282,13.7792722 120.778113,10.7817722 120.778113,6.95621667"/><polygon points="69.486 .029 54.011 .029 54.011 2.253 67.57 2.253"/><polygon points="74.904 .047 71.725 .047 53.582 22.121 56.748 22.121 56.759 22.107 75.01 22.107 75.01 19.884 58.587 19.884"/></g></svg>