<svg width="139" height="27" viewBox="0 0 139 27" fill="none" xmlns="http://www.w3.org/2000/svg">
<path d="M51.7727 26.5408H30.1798V25.239C32.9898 25.239 33.6183 24.552 33.6183 22.7153V4.05544C33.6183 2.22066 32.9898 1.53081 30.1798 1.53081V0.231573H51.1084L51.3299 9.63867H50.1833C48.409 3.82539 46.3377 1.53081 41.4205 1.53081C39.2389 1.53081 37.3898 2.14429 37.3898 4.05544V12.1627C41.2725 12.085 42.9369 11.7032 43.528 7.53518L44.5636 7.49621V18.0517H43.528C42.9369 13.9211 41.2725 13.5383 37.3898 13.4629V23.557C37.3898 24.7805 38.1668 25.239 40.4232 25.239C45.3765 25.239 49.2222 24.0922 50.8498 16.7125H51.9942L51.7727 26.5408Z" fill="black"/>
<path d="M69.4449 3.36806C69.4449 2.14519 68.7781 1.76207 66.6351 1.76207V0.461887L72.9207 0.232464V23.8649C72.9207 25.0872 73.5853 25.4706 75.4341 25.4706V26.5414L69.6664 26.7708V23.1751H69.5925C68.5943 25.5473 66.6707 26.9993 63.8983 26.9993C60.1259 26.9993 56.5768 22.6408 56.5768 17.5551C56.5768 12.4687 60.1259 8.10869 64.7866 8.10869C66.819 8.10869 68.2245 8.91263 69.3701 11.0548H69.4449V3.36806ZM69.5925 17.4394C69.5925 12.1626 67.8917 9.40982 65.0814 9.40982C61.9018 9.40982 60.5711 12.7365 60.5711 17.4394C60.5711 23.1386 62.1966 25.7003 64.8225 25.7003C67.7069 25.7003 69.5925 22.6034 69.5925 17.4394Z" fill="black"/>
<path d="M96.6197 17.5553C96.6197 23.0995 92.6257 26.9998 87.6341 26.9998C82.6422 26.9998 78.6497 23.0995 78.6497 17.5553C78.6497 12.0094 82.6422 8.10886 87.6341 8.10886C92.6257 8.10886 96.6197 12.0094 96.6197 17.5553ZM92.6257 17.5553C92.6257 11.2834 90.6295 9.40999 87.6341 9.40999C84.6384 9.40999 82.6422 11.2834 82.6422 17.5553C82.6422 23.8252 84.6384 25.7005 87.6341 25.7005C90.6295 25.7005 92.6257 23.8252 92.6257 17.5553Z" fill="black"/>
<path d="M105.674 8.33754V11.9329H105.75C107.08 9.56198 108.856 8.1078 111.406 8.1078C114.032 8.1078 116.916 9.52427 116.916 15.1072V23.633C116.916 24.8572 117.583 25.2393 119.541 25.2393V26.5408H113.439V13.7687C113.439 10.441 111.85 9.63741 110.483 9.63741C107.746 9.63741 105.971 13.1948 105.971 16.1013V23.633C105.971 24.8572 106.636 25.2393 108.856 25.2393V26.5408H99.8706V25.2393C101.831 25.2393 102.496 24.8572 102.496 23.633V11.4731C102.496 10.2506 101.831 9.86715 99.8706 9.86715V8.56728L105.674 8.33754Z" fill="black"/>
<path d="M126.749 17.4411C126.749 22.7179 128.931 25.7004 132.111 25.7004C134.589 25.7004 136.251 24.1322 137.657 22.1821L138.544 22.794C136.881 25.3173 134.846 27 130.891 27C126.305 27 122.756 22.6406 122.756 17.5552C122.756 12.4692 126.305 8.10911 130.891 8.10911C135.217 8.10911 138.729 11.245 138.729 17.4411H126.749ZM134.959 16.1412C134.959 13.3872 134.44 9.40993 130.818 9.40993C127.267 9.40993 126.749 13.3872 126.749 16.1412H134.959ZM128.413 6.57793L133.848 0.880619C134.293 0.384052 134.736 -1.90735e-06 135.439 -1.90735e-06C136.326 -1.90735e-06 136.695 0.536478 136.695 1.2631C136.695 1.79832 136.251 2.4096 135.587 2.832" fill="black"/>
<path d="M14.6686 0.320333C12.4026 3.57033 10.6971 7.6714 12.0452 11.66C13.5008 15.9622 16.7499 19.4054 14.7722 24.2203C14.4927 24.8997 14.0572 25.6688 13.6546 26.3127H16.1482C16.5515 25.6688 16.9854 24.8997 17.2653 24.2203C19.2439 19.4054 15.9936 15.9622 14.5383 11.66C13.1899 7.6714 14.8956 3.57033 17.1611 0.320333H14.6686Z" fill="black"/>
<path d="M9.33314 26.3127H11.8262C12.2301 25.6688 12.6646 24.8997 12.9442 24.2203C14.9225 19.4051 11.6724 15.9622 10.2168 11.66C8.86911 7.6714 10.5742 3.57033 12.8397 0.320333H10.3469C8.08022 3.57033 6.37512 7.6714 7.72468 11.66C9.17876 15.9622 12.4285 19.4051 10.4502 24.2203C10.1716 24.8997 9.73609 25.6688 9.33314 26.3127Z" fill="black"/>
<path d="M8.62213 24.2203C10.6013 19.4055 7.35098 15.9625 5.89537 11.6603C4.54764 7.67142 6.25304 3.57035 8.51881 0.32036H0V26.3127H7.50565C7.90861 25.6685 8.34316 24.8997 8.62213 24.2203Z" fill="black"/>
<path d="M18.9895 0.320333C16.724 3.57033 15.0186 7.6714 16.3664 11.66C17.8223 15.9622 21.0711 19.4054 19.0931 24.2203C18.8142 24.8997 18.3787 25.6688 17.976 26.3127H25.1322V0.320333H18.9895Z" fill="black"/>
</svg>
