<svg xmlns="http://www.w3.org/2000/svg" width="452.7239" height="56.9854" viewBox="0 0 452.7239 56.9854"><path d="M185.39 54.9153 175.9532 37.39h-1.4153v17.5253h-13.2118V7.3943h20.8284a21.5489 21.5489 0 0 1 9.7066 1.9885 13.9325 13.9325 0 0 1 5.9991 5.46 15.1836 15.1836 0 0 1 2.0214 7.7853 14.15 14.15 0 0 1-2.6618 8.5272 14.3828 14.3828 0 0 1-7.7853 5.2236l10.7173 18.5369Zm-10.8521-26.5581h6.538a5.6711 5.6711 0 0 0 4.0442-1.2809 4.8694 4.8694 0 0 0 1.3481-3.7068 4.7432 4.7432 0 0 0-1.3817-3.6067 5.604 5.604 0 0 0-4.0106-1.3138h-6.538ZM237.7968 10.3935a21.0857 21.0857 0 0 1 8.6616 8.3922 24.7234 24.7234 0 0 1 3.0335 12.3355 24.3714 24.3714 0 0 1-3.0678 12.2676 21.74 21.74 0 0 1-8.6945 8.4594 26.8231 26.8231 0 0 1-13.0425 3.0671h-18.8057V7.3943h18.8057a27.475 27.475 0 0 1 13.1097 2.9992Zm-5.0213 29.6924q3.3016-3.1679 3.3036-8.9647 0-5.8647-3.3036-9.0662t-9.0991-3.2022h-4.5845v24.401h4.5845q5.7948 0 9.0991-3.1679ZM268.6336 7.3943v47.521h-13.21V7.3943ZM322.4245 7.3943l-16.38 47.521h-16.9184l-16.447-47.521h14.1554l10.7845 34.3091 10.7173-34.3091ZM350.1186 47.1636h-16.8515l-2.56 7.7517H316.82l17.3232-47.521h15.2348l17.2561 47.521H352.68Zm-3.3023-10.1112-5.1235-15.3683-5.0549 15.3683ZM395.0106 54.9153 385.5728 37.39h-1.4153v17.5253H370.947V7.3943h20.8271a21.5435 21.5435 0 0 1 9.7067 1.9885 13.9346 13.9346 0 0 1 6 5.46 15.1836 15.1836 0 0 1 2.0214 7.7853 14.15 14.15 0 0 1-2.6618 8.5272 14.3828 14.3828 0 0 1-7.7853 5.2236l10.7173 18.5369Zm-10.8531-26.5581h6.5387a5.6734 5.6734 0 0 0 4.0442-1.2809 4.872 4.872 0 0 0 1.3481-3.7068 4.7454 4.7454 0 0 0-1.381-3.6067 5.6058 5.6058 0 0 0-4.0113-1.3138h-6.5387ZM428.7122 7.3943v47.521h-13.21V7.3943ZM439.109 6.7847a6.8075 6.8075 0 0 1 13.6149 0 6.8075 6.8075 0 0 1-13.6149 0Zm1.1087 0a5.7021 5.7021 0 1 0 5.6987-5.6826 5.681 5.681 0 0 0-5.6987 5.6826Zm8.8112 3.8733h-1.26l-1.9583-3.5273h-1.4147v3.5273H443.29V3.019h3.2154c1.3812 0 2.6249.4161 2.6249 2.0238a1.938 1.938 0 0 1-2.0385 2.0879Zm-4.6327-6.5323v1.9009h1.1756c1.0379 0 2.4526.17 2.4526-.8609 0-.97-.81-1.04-1.73-1.04ZM131.2423 6.7875A24.3224 24.3224 0 1 0 155.5647 31.11a24.3224 24.3224 0 0 0-24.3224-24.3225Zm0 36.4951A12.1727 12.1727 0 1 1 143.415 31.11a12.1727 12.1727 0 0 1-12.1727 12.1726Z" fill="#002169"/><path d="M96.9316 39.7357a12.1727 12.1727 0 1 1 0-17.2516l8.5916-8.5916a24.3224 24.3224 0 1 0 0 34.4349Z" fill="#002169"/><path d="M10.585 22.9043v-.3349a5.2813 5.2813 0 0 1 5.2366-5.2867v-.0039h.0393l.0105-.0009 33.0366.0014a31.3025 31.3025 0 0 0-5.4126-10.5932H.8447A.852.852 0 0 0 0 7.5341V50.54a31.2962 31.2962 0 0 0 10.585 5.2936Z" fill="#e1251b"/><path d="M49.9529 22.8094h-31.095a2.4266 2.4266 0 0 0-2.71 2.512V56.856c.9216.082 1.8774.1294 2.82.1294a31.2008 31.2008 0 0 0 7.7667-.9769V34.2293v.0008a.8525.8525 0 0 1 .8467-.85l21.5974.0006a31.3573 31.3573 0 0 0 .9241-7.5306c0-1.026-.0528-2.0401-.1499-3.0407Z" fill="#e1251b"/><path d="M33.1188 38.9146a.8519.8519 0 0 0-.8468.8437v14.2455a31.2882 31.2882 0 0 0 14.9565-15.0907Z" fill="#e1251b"/></svg>