<?xml version="1.0" encoding="UTF-8"?>
<svg id="Livello_2" xmlns="http://www.w3.org/2000/svg" version="1.1" viewBox="0 0 400.1 287.1">
  <!-- Generator: Adobe Illustrator 30.2.0, SVG Export Plug-In . SVG Version: 2.1.1 Build 105)  -->
  <g>
    <polygon points="263 86.3 263 108.9 289.8 108.9 295.2 86.3 263 86.3"/>
    <path d="M264.7,35.5c-1,0-2.8-.2-4.2-.2-21.6,0-35.6,14.6-35.6,36.7v14.3h-39.5v22.6h39.5v73.4h26.4v-110.6h0c.5-10.4,8.2-13,13.8-12.9,4.1,0,6,.4,8.3,1l4.5-21.9s-7.3-2.1-13.3-2.5Z"/>
    <path d="M186.8,35.5c-1,0-2.8-.2-4.2-.2-21.6,0-35.6,14.6-35.6,36.7v14.3h-29.5l-4.4,22.6h33.9v73.4h26.4v-110.6h0c.5-10.4,8.2-13,13.8-12.9,4.1,0,6,.4,8.3,1l4.5-21.9s-7.3-2.1-13.3-2.5Z"/>
    <path d="M395.3,133.6c.9-32.1-20.2-52.4-50.2-51.9-25,.4-48,20.2-48,51.4s23.6,52.2,50.4,52.2,34.9-8.3,43.6-24.4l-20.9-11c-4.6,7.2-11.4,12.8-22.2,12.8s-25.9-8.9-26-23h73.1s.2-2.3.3-6.1ZM345.7,102.5c14.8-.4,23.2,9.3,24.2,19h-47.3c1.1-9.2,9.9-18.6,23.1-19Z"/>
    <path d="M105.9,133.6c.9-32.1-20.2-52.4-50.2-51.9-25,.4-48,20.2-48,51.4s23.6,52.2,50.4,52.2,34.9-8.3,43.6-24.4l-20.9-11c-4.6,7.2-11.4,12.8-22.2,12.8s-25.9-8.9-26-23h73.1s.2-2.3.3-6.1ZM56.3,102.5c14.8-.4,23.2,9.3,24.2,19h-47.3c1.1-9.2,9.9-18.6,23.1-19Z"/>
  </g>
  <g>
    <path d="M64.9,221.2h-7.7v19.6h3.5v-7h4.2c4.5,0,6.9-2.5,6.9-6.3s-2.4-6.3-6.9-6.3ZM64.8,230.7h-4v-6.3h4c2.4,0,3.5,1.3,3.5,3.2s-1.1,3.2-3.5,3.2Z"/>
    <polygon points="76.2 240.8 90.2 240.8 90.2 237.6 79.8 237.6 79.8 232.2 88.9 232.2 88.9 229 79.8 229 79.8 224.5 90.2 224.5 90.2 221.2 76.2 221.2 76.2 240.8"/>
    <path d="M110.3,227.3c0-3.2-2.1-6.1-6.8-6.1h-8.3v19.6h3.6v-7.4h4.3l3.3,7.4h3.9l-3.6-8c2.2-.8,3.6-2.9,3.6-5.5ZM103.5,230.2h-4.8v-5.9h4.7c2,0,3.2,1.4,3.2,3s-1.2,2.9-3.2,2.9Z"/>
    <polygon points="115.1 240.8 118.7 240.8 118.7 233 127.6 233 127.6 229.7 118.7 229.7 118.7 224.5 128.7 224.5 128.7 221.2 115.1 221.2 115.1 240.8"/>
    <polygon points="133 240.8 147 240.8 147 237.6 136.6 237.6 136.6 232.2 145.8 232.2 145.8 229 136.6 229 136.6 224.5 147 224.5 147 221.2 133 221.2 133 240.8"/>
    <path d="M166.2,234.6"/>
    <polygon points="168.3 224.5 174.1 224.5 174.1 240.8 177.7 240.8 177.7 224.5 183.5 224.5 183.5 221.2 168.3 221.2 168.3 224.5"/>
    <polygon points="209.7 234.9 205.7 221.5 202.7 221.5 198.7 234.9 195.9 221.2 192.5 221.2 196.5 240.8 200 240.8 204.1 227.3 208.2 240.8 211.8 240.8 215.7 221.2 212.4 221.2 209.7 234.9"/>
    <polygon points="220.1 240.8 234.1 240.8 234.1 237.6 223.7 237.6 223.7 232.2 232.9 232.2 232.9 229 223.7 229 223.7 224.5 234.1 224.5 234.1 221.2 220.1 221.2 220.1 240.8"/>
    <polygon points="242.7 221.2 239.2 221.2 239.2 240.8 251.8 240.8 251.8 237.5 242.7 237.5 242.7 221.2"/>
    <polygon points="258.9 221.2 255.4 221.2 255.4 240.8 268 240.8 268 237.5 258.9 237.5 258.9 221.2"/>
    <polygon points="283.8 234.5 275.5 221.2 271.7 221.2 271.7 240.8 275.2 240.8 275.2 227.4 283.7 240.8 287.4 240.8 287.4 221.2 283.8 221.2 283.8 234.5"/>
    <polygon points="293.6 240.8 307.6 240.8 307.6 237.6 297.2 237.6 297.2 232.2 306.3 232.2 306.3 229 297.2 229 297.2 224.5 307.6 224.5 307.6 221.2 293.6 221.2 293.6 240.8"/>
    <g>
      <path d="M311.1,234.5h3.8c0,2,1.8,3.5,4.4,3.5s3.8-1,3.8-2.5c0-4.8-11.3-1.1-11.3-9s2.6-5.5,7.2-5.5,7.4,1.7,7.4,6.2h-3.8c0-1.8-1.4-3-3.7-3s-3.5,1.2-3.5,2.4c0,4.4,11.3,1,11.3,8.9s-2.9,5.8-7.8,5.8-8-2.7-8-6.7Z"/>
      <path d="M330.3,234.5h3.8c0,2,1.8,3.5,4.4,3.5s3.8-1,3.8-2.5c0-4.8-11.3-1.1-11.3-9s2.6-5.5,7.2-5.5,7.4,1.7,7.4,6.2h-3.8c0-1.8-1.4-3-3.7-3s-3.5,1.2-3.5,2.4c0,4.4,11.3,1,11.3,8.9s-2.9,5.8-7.8,5.8-8-2.7-8-6.7Z"/>
    </g>
    <path d="M162.8,234.5c-.3,1.5-1.4,3.5-4,3.5s-2.2-.5-3-1.3c-1.4-1.4-1.4-3.8-1.4-5.6s0-4.2,1.4-5.6c.8-.8,1.9-1.3,3-1.3,2.1,0,3.5,1.3,3.8,3.3,0,.2,0,.5,0,.7l3.6-.3c0-.5-.1-1-.3-1.8-.2-.8-.7-1.9-1.5-2.7-1.2-1.3-3.1-2.4-5.7-2.4s-4.1.7-5.6,2.2c-2.1,2.1-2.4,4.8-2.4,8s.3,5.8,2.4,8c1.5,1.5,3.5,2.2,5.6,2.2,4.3,0,7-2.9,7.5-6.4l-3.4-.4s0,0,0,0Z"/>
  </g>
</svg>