<svg id="Componente_60_2" data-name="Componente 60 – 2" xmlns="http://www.w3.org/2000/svg" width="99.713" height="38.328" viewBox="0 0 99.713 38.328">
  <g id="Raggruppa_6" data-name="Raggruppa 6" transform="translate(66.833 12.433)">
    <path id="Tracciato_4" data-name="Tracciato 4" d="M0-2.456H6.053L7.266-7.615H0Z" transform="translate(0 7.615)" fill="#fff"/>
  </g>
  <g id="Raggruppa_7" data-name="Raggruppa 7" transform="translate(46.011)">
    <path id="Tracciato_5" data-name="Tracciato 5" d="M-5.835,0c-5.593,0-9.189,3.7-9.189,9.4V12.28H-25.233v5.857h10.209V37.558h6.831V9.347h.017A3.283,3.283,0,0,1-4.6,6.012a7.634,7.634,0,0,1,2.157.257V.514A10,10,0,0,0-5.835,0" transform="translate(25.233)" fill="#fff"/>
  </g>
  <g id="Raggruppa_8" data-name="Raggruppa 8" transform="translate(27.349)">
    <path id="Tracciato_6" data-name="Tracciato 6" d="M-5.406,0c-5.6,0-9.2,3.7-9.2,9.4V12.28h-7.642l-1.13,5.857H-14.6V37.558h6.829V9.347h.018A3.287,3.287,0,0,1-4.176,6.012a7.634,7.634,0,0,1,2.157.257V.514A9.94,9.94,0,0,0-5.406,0" transform="translate(23.374)" fill="#fff"/>
  </g>
  <g id="Raggruppa_9" data-name="Raggruppa 9" transform="translate(0 11.509)">
    <path id="Tracciato_7" data-name="Tracciato 7" d="M-3.77-1.666c3.9,0,5.546,2.466,5.649,4.984h-11.3A5.468,5.468,0,0,1-3.77-1.666M2.2,10.708a5.561,5.561,0,0,1-5.4,3.039A6.154,6.154,0,0,1-9.573,7.993H8.5c0-.1.1-1.131.1-2.107,0-8.117-4.674-13.1-12.48-13.1-6.47,0-12.427,5.241-12.427,13.307,0,8.529,6.111,13.513,13.045,13.513,5.73,0,9.576-3.1,11.148-7.013Z" transform="translate(16.3 7.215)" fill="#fff"/>
  </g>
  <g id="Raggruppa_10" data-name="Raggruppa 10" transform="translate(74.807 11.509)">
    <path id="Tracciato_8" data-name="Tracciato 8" d="M-3.77-1.666c3.9,0,5.543,2.466,5.652,4.984h-11.3A5.472,5.472,0,0,1-3.77-1.666M2.3,10.465a5.547,5.547,0,0,1-5.5,3.282A6.151,6.151,0,0,1-9.573,7.993H8.5c0-.1.1-1.131.1-2.107,0-8.117-4.673-13.1-12.474-13.1C-10.342-7.215-16.3-1.974-16.3,6.091c0,8.53,6.111,13.514,13.042,13.514,5.853,0,9.749-3.235,11.254-7.257Z" transform="translate(16.303 7.215)" fill="#fff"/>
  </g>
</svg>
