<?xml version="1.0" encoding="UTF-8"?>
<svg id="Livello_1" data-name="Livello 1" xmlns="http://www.w3.org/2000/svg" viewBox="0 0 160 118">
  <defs>
    <style>
      .cls-1 {
        fill: #fff;
      }
    </style>
  </defs>
  <path class="cls-1" d="M80.22,48.61c-3.24,0-5.87,2.63-5.87,5.87h-15.66s9.8-7.45,9.8-7.45v-.13s0-8.45,0-8.45l3.1-3.69,3.1,3.69v5.7h11.06v-5.7l3.1-3.69,3.1,3.16v9.11s9.8,7.46,9.8,7.46h-15.66c0-3.25-2.63-5.88-5.88-5.88"/>
  <path class="cls-1" d="M129.14,83.21h4.21v-12.12c0-.62.21-1.14.63-1.56.42-.42.91-.63,1.47-.63h4.21c.56,0,1.05.21,1.47.63.42.42.63.94.63,1.56v12.12h4.21v-12.12c0-1.71-.61-3.17-1.84-4.39-1.22-1.22-2.72-1.84-4.48-1.84h-4.21c-1.76,0-3.17.52-4.21,1.57-1.04-1.04-2.45-1.57-4.21-1.57h-4.21c-1.76,0-3.26.61-4.48,1.84-1.22,1.22-1.84,2.69-1.84,4.39v12.12h4.21v-12.12c0-.62.21-1.14.63-1.56.42-.42.91-.63,1.47-.63h4.21c.56,0,1.05.21,1.47.63.42.42.63.94.63,1.56v12.12ZM113.99,71.09c0-1.71-.61-3.17-1.84-4.39-1.22-1.22-2.72-1.84-4.48-1.84h-6.74c-1.76,0-3.26.61-4.48,1.84-1.22,1.22-1.84,2.69-1.84,4.39v5.89c0,1.71.61,3.17,1.84,4.39,1.22,1.22,2.72,1.84,4.48,1.84h6.74c1.76,0,3.26-.61,4.48-1.84,1.22-1.22,1.84-2.69,1.84-4.39v-5.89ZM98.83,71.09c0-.62.21-1.14.63-1.56.42-.42.91-.63,1.47-.63h6.74c.56,0,1.05.21,1.47.63.42.42.63.94.63,1.56v5.89c0,.62-.21,1.14-.63,1.56-.42.42-.91.63-1.47.63h-6.74c-.56,0-1.05-.21-1.47-.63-.42-.42-.63-.94-.63-1.56v-5.89ZM79.05,79.17c-.56,0-1.05-.21-1.47-.63-.42-.42-.63-.94-.63-1.56v-5.89c0-.62.21-1.14.63-1.56.42-.42.91-.63,1.47-.63h13.05l.02-4.04h-13.07c-1.76,0-3.26.61-4.48,1.84-1.22,1.22-1.84,2.69-1.84,4.39v5.89c0,1.71.61,3.17,1.84,4.39,1.22,1.22,2.72,1.84,4.48,1.84h13.05v-4.04h-13.05ZM61.79,83.21v-12.12c0-.62.21-1.14.63-1.56.42-.42.91-.63,1.47-.63h6.31l.02-4.04h-6.33c-1.76,0-3.26.61-4.48,1.84-1.22,1.22-1.84,2.69-1.84,4.39v12.12h4.21ZM39.9,72.43v-1.35c0-.62.21-1.14.63-1.56s.91-.63,1.47-.63h6.74c.56,0,1.05.21,1.47.63.42.42.63.94.63,1.56v1.35h-10.94ZM55.05,76.48v-5.39c0-1.71-.61-3.17-1.84-4.39-1.22-1.22-2.72-1.84-4.48-1.84h-6.74c-1.76,0-3.26.61-4.48,1.84s-1.84,2.69-1.84,4.39v5.89c0,1.71.61,3.17,1.84,4.39,1.22,1.22,2.72,1.84,4.48,1.84h11.37v-4.04h-11.37c-.56,0-1.05-.21-1.47-.63-.42-.42-.63-.94-.63-1.56v-.5h15.15ZM20.11,79.17c-.56,0-1.05-.21-1.47-.63-.42-.42-.63-.94-.63-1.56v-5.89c0-.62.21-1.14.63-1.56.42-.42.91-.63,1.47-.63h13.05l.02-4.04h-13.07c-1.76,0-3.26.61-4.48,1.84-1.22,1.22-1.84,2.69-1.84,4.39v5.89c0,1.71.61,3.17,1.84,4.39,1.22,1.22,2.72,1.84,4.48,1.84h13.05v-4.04h-13.05Z"/>
</svg>