<?xml version="1.0" encoding="utf-8"?>
<!-- Generator: Adobe Illustrator 17.0.0, SVG Export Plug-In . SVG Version: 6.00 Build 0)  -->
<!DOCTYPE svg PUBLIC "-//W3C//DTD SVG 1.1//EN" "http://www.w3.org/Graphics/SVG/1.1/DTD/svg11.dtd">
<svg version="1.1" id="Livello_1" xmlns="http://www.w3.org/2000/svg" xmlns:xlink="http://www.w3.org/1999/xlink" x="0px" y="0px"
	 width="76.916px" height="43.406px" viewBox="0 0 76.916 43.406" enable-background="new 0 0 76.916 43.406" xml:space="preserve">
<polygon fill="#1D1D1B" points="0.974,40.361 0.974,40.987 2.072,40.987 2.072,41.812 0.974,41.812 0.974,42.457 2.132,42.457 
	2.132,43.282 0,43.282 0,39.536 2.132,39.536 2.132,40.361 "/>
<polygon fill="#1D1D1B" points="3.829,39.536 4.788,39.536 5.548,41.538 6.353,39.536 7.322,39.536 7.888,43.282 6.914,43.282 
	6.641,41.126 6.631,41.126 5.732,43.282 5.344,43.282 4.485,41.126 4.475,41.126 4.162,43.282 3.193,43.282 "/>
<path fill="#1D1D1B" d="M9.603,41.344c0,0.646,0.477,1.118,1.058,1.118s1.058-0.472,1.058-1.118c0-0.517-0.477-0.989-1.058-0.989
	S9.603,40.827,9.603,41.344 M12.733,41.339c0,1.213-0.87,2.067-2.072,2.067s-2.072-0.854-2.072-2.067
	c0-1.133,0.994-1.928,2.072-1.928S12.733,40.206,12.733,41.339"/>
<polygon fill="#1D1D1B" points="16.508,42.581 16.508,43.406 13.298,43.406 15.072,40.485 13.601,40.485 13.601,39.66 16.702,39.66 
	14.938,42.581 "/>
<rect x="17.93" y="39.536" fill="#1D1D1B" width="0.974" height="3.746"/>
<path fill="#1D1D1B" d="M20.952,41.344c0,0.646,0.477,1.118,1.058,1.118s1.058-0.472,1.058-1.118c0-0.517-0.477-0.989-1.058-0.989
	S20.952,40.827,20.952,41.344 M24.082,41.339c0,1.213-0.87,2.067-2.072,2.067s-2.072-0.854-2.072-2.067
	c0-1.133,0.994-1.928,2.072-1.928S24.082,40.206,24.082,41.339"/>
<polygon fill="#1D1D1B" points="25.111,39.536 26.085,39.536 27.868,41.827 27.878,41.827 27.878,39.536 28.852,39.536 
	28.852,43.282 27.878,43.282 26.095,40.987 26.085,40.987 26.085,43.282 25.111,43.282 "/>
<rect x="30.351" y="39.536" fill="#1D1D1B" width="0.974" height="3.746"/>
<rect x="34.685" y="39.536" fill="#1D1D1B" width="0.974" height="3.746"/>
<polygon fill="#1D1D1B" points="36.846,39.536 37.82,39.536 39.604,41.827 39.613,41.827 39.613,39.536 40.587,39.536 
	40.587,43.282 39.613,43.282 37.83,40.987 37.82,40.987 37.82,43.282 36.846,43.282 "/>
<path fill="#1D1D1B" d="M45.866,40.499c-0.179-0.149-0.407-0.248-0.646-0.248c-0.179,0-0.417,0.104-0.417,0.313
	c0,0.219,0.263,0.303,0.432,0.357l0.249,0.075c0.521,0.154,0.924,0.417,0.924,1.024c0,0.372-0.09,0.755-0.388,1.008
	c-0.293,0.249-0.686,0.353-1.063,0.353c-0.472,0-0.934-0.159-1.317-0.428l0.418-0.784c0.243,0.213,0.531,0.387,0.864,0.387
	c0.229,0,0.472-0.114,0.472-0.377c0-0.274-0.382-0.368-0.591-0.428c-0.611-0.173-1.014-0.332-1.014-1.058
	c0-0.76,0.542-1.257,1.292-1.257c0.378,0,0.84,0.119,1.173,0.308L45.866,40.499z"/>
<path fill="#1D1D1B" d="M50.674,39.486v2.107c0,0.481-0.02,0.958-0.393,1.321c-0.313,0.308-0.805,0.418-1.242,0.418
	s-0.929-0.11-1.242-0.418c-0.372-0.363-0.392-0.84-0.392-1.321v-2.107h0.973v1.973c0,0.486,0.035,1.018,0.661,1.018
	s0.661-0.532,0.661-1.018v-1.973H50.674z"/>
<path fill="#1D1D1B" d="M52.882,41.255h0.164c0.352,0,0.7,0,0.7-0.457c0-0.472-0.323-0.477-0.7-0.477h-0.164V41.255z M51.908,39.536
	h1.49c0.805,0,1.362,0.373,1.362,1.232c0,0.885-0.477,1.272-1.327,1.272h-0.551v1.242h-0.974
	C51.908,43.282,51.908,39.536,51.908,39.536z"/>
<polygon fill="#1D1D1B" points="56.634,40.361 56.634,40.987 57.731,40.987 57.731,41.812 56.634,41.812 56.634,42.457 
	57.792,42.457 57.792,43.282 55.659,43.282 55.659,39.536 57.792,39.536 57.792,40.361 "/>
<path fill="#1D1D1B" d="M59.999,41.215h0.094c0.318,0,0.676-0.059,0.676-0.467c0-0.407-0.358-0.467-0.676-0.467h-0.094V41.215z
	 M62.14,43.282h-1.212l-0.92-1.441h-0.009v1.441h-0.974v-3.746h1.456c0.74,0,1.301,0.352,1.301,1.152
	c0,0.517-0.288,0.964-0.82,1.059L62.14,43.282z"/>
<polygon fill="#1D1D1B" points="64.064,40.361 64.064,40.987 65.132,40.987 65.132,41.812 64.064,41.812 64.064,43.282 
	63.09,43.282 63.09,39.536 65.242,39.536 65.242,40.361 "/>
<rect x="66.476" y="39.536" fill="#1D1D1B" width="0.974" height="3.746"/>
<path fill="#1D1D1B" d="M71.343,40.793c-0.199-0.268-0.522-0.412-0.855-0.412c-0.596,0-0.998,0.457-0.998,1.038
	c0,0.591,0.407,1.019,1.013,1.019c0.318,0,0.636-0.155,0.84-0.398v1.168c-0.323,0.099-0.557,0.174-0.86,0.174
	c-0.521,0-1.018-0.199-1.406-0.552c-0.412-0.373-0.601-0.859-0.601-1.416c0-0.512,0.194-1.004,0.552-1.371
	c0.367-0.378,0.899-0.606,1.425-0.606c0.313,0,0.602,0.069,0.89,0.188V40.793z"/>
<rect x="72.577" y="39.536" fill="#1D1D1B" width="0.974" height="3.746"/>
<polygon fill="#1D1D1B" points="75.758,40.361 75.758,40.987 76.856,40.987 76.856,41.812 75.758,41.812 75.758,42.457 
	76.916,42.457 76.916,43.282 74.784,43.282 74.784,39.536 76.916,39.536 76.916,40.361 "/>
<path fill="#D4006D" d="M11.449,0L0.596,27.833h5.722l2.287-5.717h9.673l2.141,5.717h5.795L15.657,0H11.449z M13.22,7.948h0.074
	l3.47,9.852h-6.607L13.22,7.948z"/>
<path fill="#D4006D" d="M36.607,15.726h0.886c2.731,0,5.684,0.147,5.684,3.765c0,3.617-2.509,3.987-5.426,3.987h-1.144
	C36.607,23.478,36.607,15.726,36.607,15.726z M31.181,27.834h8.527c5.057,0,8.896-2.436,8.896-7.9c0-3.064-1.477-6.386-4.762-6.977
	c1.735-1.107,2.436-3.396,2.436-5.389C46.278,2.03,43.104,0,37.936,0h-6.755V27.834z M36.607,4.356h0.701
	c2.289,0,3.914,0.738,3.914,3.581c0,2.879-1.293,3.654-3.951,3.654h-0.664V4.356z"/>
<polygon fill="#D4006D" points="69.543,0 60.941,11.739 60.868,11.739 60.868,0 55.441,0 55.441,27.833 60.868,27.833 
	60.868,15.319 60.941,15.319 69.838,27.833 76.815,27.833 65.667,12.846 76.225,0 "/>
</svg>
