<?xml version="1.0" encoding="UTF-8"?>
<svg width="649px" height="482px" viewBox="0 0 649 482" version="1.1" xmlns="http://www.w3.org/2000/svg" xmlns:xlink="http://www.w3.org/1999/xlink">
    <!-- Generator: Sketch 51.3 (57544) - http://www.bohemiancoding.com/sketch -->
    <title>Group 34</title>
    <desc>Created with Sketch.</desc>
    <defs></defs>
    <g id="Page-1" stroke="none" stroke-width="1" fill="none" fill-rule="evenodd">
        <g id="Group-34" fill="#C6C6C6">
            <path d="M20.472,398.6923 L20.472,419.6413 C20.472,424.1703 20.968,426.9803 21.962,428.0763 C23.304,429.6353 25.33,430.4073 28.06,430.4073 L30.82,430.4073 L30.82,432.3703 L0,432.3703 L0,430.4073 L2.703,430.4073 C5.744,430.4073 7.922,429.4213 9.227,427.4393 C9.937,426.3423 10.284,423.7423 10.284,419.6413 L10.284,373.178 C10.284,368.654 9.81,365.838 8.855,364.748 C7.479,363.189 5.429,362.406 2.703,362.406 L0,362.406 L0,360.449 L26.361,360.449 C32.793,360.449 37.869,361.111 41.579,362.435 C45.293,363.766 48.424,366.003 50.97,369.147 C53.515,372.296 54.792,376.023 54.792,380.337 C54.792,386.2113 52.854,390.9843 48.98,394.6613 C45.109,398.3383 39.641,400.1763 32.569,400.1763 C30.835,400.1763 28.956,400.0513 26.946,399.8023 C24.926,399.5583 22.769,399.1853 20.472,398.6923 Z M20.472,395.6683 C22.35,396.0153 24.014,396.2903 25.457,396.4643 C26.907,396.6383 28.144,396.7283 29.171,396.7283 C32.85,396.7283 36.023,395.3043 38.692,392.4593 C41.36,389.6093 42.695,385.9273 42.695,381.404 C42.695,378.289 42.057,375.394 40.786,372.729 C39.511,370.054 37.71,368.061 35.381,366.736 C33.049,365.41 30.391,364.748 27.422,364.748 C25.62,364.748 23.304,365.082 20.472,365.749 L20.472,395.6683 Z" id="Fill-1"></path>
            <path d="M81.3084,364.374 L81.3084,392.808 L97.1144,392.808 C101.217,392.808 103.955,392.189 105.333,390.949 C107.176,389.32 108.2,386.461 108.414,382.355 L110.379,382.355 L110.379,407.391 L108.414,407.391 C107.921,403.888 107.421,401.642 106.924,400.66 C106.287,399.415 105.246,398.442 103.798,397.74 C102.343,397.033 100.119,396.679 97.1144,396.679 L81.3084,396.679 L81.3084,420.384 C81.3084,423.567 81.4534,425.501 81.7324,426.188 C82.0194,426.881 82.5094,427.435 83.2174,427.832 C83.9274,428.241 85.2684,428.439 87.2524,428.439 L99.4524,428.439 C103.516,428.439 106.466,428.166 108.307,427.599 C110.145,427.035 111.914,425.919 113.613,424.266 C115.803,422.062 118.051,418.76 120.348,414.335 L122.464,414.335 L116.261,432.376 L60.8364,432.376 L60.8364,430.414 L63.3834,430.414 C65.0774,430.414 66.6834,430.005 68.2084,429.192 C69.3424,428.625 70.1064,427.777 70.5154,426.646 C70.9214,425.511 71.1204,423.194 71.1204,419.696 L71.1204,372.963 C71.1204,368.405 70.6674,365.596 69.7474,364.535 C68.4734,363.119 66.3524,362.411 63.3834,362.411 L60.8364,362.411 L60.8364,360.443 L116.261,360.443 L117.058,376.202 L114.99,376.202 C114.251,372.416 113.424,369.825 112.522,368.405 C111.622,366.99 110.292,365.909 108.516,365.172 C107.103,364.639 104.615,364.374 101.038,364.374 L81.3084,364.374 Z" id="Fill-2"></path>
            <path d="M187.815,360.449 L188.613,377.312 L186.597,377.312 C186.209,374.338 185.677,372.231 185.009,370.951 C183.906,368.903 182.449,367.389 180.632,366.417 C178.81,365.45 176.413,364.957 173.443,364.957 L163.313,364.957 L163.313,419.9061 C163.313,424.3241 163.79,427.0901 164.745,428.1861 C166.087,429.6661 168.153,430.4071 170.947,430.4071 L173.443,430.4071 L173.443,432.3701 L142.946,432.3701 L142.946,430.4071 L145.491,430.4071 C148.525,430.4071 150.686,429.4911 151.961,427.6521 C152.735,426.5211 153.124,423.9351 153.124,419.9061 L153.124,364.957 L144.48,364.957 C141.124,364.957 138.736,365.201 137.323,365.7 C135.482,366.373 133.911,367.662 132.6,369.571 C131.292,371.479 130.512,374.065 130.269,377.312 L128.249,377.312 L129.101,360.449 L187.815,360.449 Z" id="Fill-3"></path>
            <path d="M264.724,432.37 L245.525,432.37 L221.17,398.747 C219.373,398.815 217.907,398.851 216.773,398.851 C216.315,398.851 215.819,398.836 215.289,398.822 C214.758,398.801 214.212,398.781 213.645,398.747 L213.645,419.641 C213.645,424.165 214.14,426.98 215.129,428.076 C216.471,429.626 218.492,430.407 221.17,430.407 L223.988,430.407 L223.988,432.37 L193.173,432.37 L193.173,430.407 L195.875,430.407 C198.917,430.407 201.089,429.422 202.403,427.439 C203.142,426.343 203.519,423.742 203.519,419.641 L203.519,373.179 C203.519,368.65 203.019,365.844 202.028,364.748 C200.646,363.194 198.601,362.411 195.875,362.411 L193.173,362.411 L193.173,360.449 L219.373,360.449 C227.012,360.449 232.643,361.007 236.266,362.122 C239.888,363.233 242.969,365.281 245.495,368.275 C248.026,371.259 249.287,374.822 249.287,378.957 C249.287,383.382 247.842,387.218 244.966,390.466 C242.082,393.72 237.619,396.016 231.573,397.361 L246.425,417.997 C249.818,422.74 252.735,425.885 255.173,427.439 C257.612,428.993 260.795,429.989 264.724,430.407 L264.724,432.37 Z M213.645,395.398 C214.32,395.398 214.895,395.409 215.401,395.429 C215.892,395.443 216.3,395.454 216.614,395.454 C223.472,395.454 228.646,393.964 232.129,390.998 C235.613,388.024 237.355,384.247 237.355,379.65 C237.355,375.161 235.945,371.514 233.141,368.699 C230.323,365.884 226.603,364.479 221.972,364.479 C219.928,364.479 217.144,364.817 213.645,365.485 L213.645,395.398 Z" id="Fill-4"></path>
            <path d="M313.467,408.2929 L285.622,408.2929 L280.739,419.6419 C279.541,422.4369 278.939,424.5199 278.939,425.8979 C278.939,426.9959 279.453,427.9619 280.506,428.7889 C281.546,429.6259 283.8,430.1639 287.266,430.4069 L287.266,432.3699 L264.617,432.3699 L264.617,430.4069 C267.619,429.8799 269.567,429.1879 270.448,428.3409 C272.255,426.6469 274.25,423.1939 276.445,417.9969 L301.744,358.804 L303.606,358.804 L328.633,418.6349 C330.654,423.4429 332.49,426.5659 334.125,427.9909 C335.772,429.4219 338.061,430.2339 340.998,430.4069 L340.998,432.3699 L312.615,432.3699 L312.615,430.4069 C315.487,430.2639 317.417,429.7909 318.426,428.9779 C319.436,428.1609 319.94,427.1739 319.94,426.0089 C319.94,424.4539 319.233,421.9919 317.818,418.6349 L313.467,408.2929 Z M311.984,404.3659 L299.779,375.301 L287.266,404.3659 L311.984,404.3659 Z" id="Fill-5"></path>
            <path d="M407.616,358.804 L409.265,383.2611 L407.616,383.2611 C405.423,375.933 402.295,370.672 398.233,367.443 C394.164,364.235 389.28,362.626 383.591,362.626 C378.813,362.626 374.499,363.831 370.642,366.258 C366.792,368.675 363.758,372.54 361.544,377.841 C359.339,383.1471 358.236,389.7431 358.236,397.6251 C358.236,404.1371 359.275,409.7761 361.366,414.5551 C363.448,419.3221 366.588,422.9851 370.783,425.5301 C374.968,428.0761 379.754,429.3521 385.126,429.3521 C389.788,429.3521 393.91,428.3501 397.482,426.3531 C401.054,424.3551 404.98,420.3791 409.265,414.4461 L410.903,415.5071 C407.298,421.9031 403.091,426.5871 398.278,429.5611 C393.47,432.5311 387.757,434.0191 381.145,434.0191 C369.232,434.0191 360.002,429.5961 353.459,420.7571 C348.577,414.1801 346.14,406.4331 346.14,397.5261 C346.14,390.3461 347.75,383.7501 350.963,377.741 C354.181,371.728 358.611,367.075 364.262,363.762 C369.896,360.463 376.054,358.804 382.74,358.804 C387.934,358.804 393.056,360.079 398.119,362.626 C399.604,363.398 400.664,363.787 401.304,363.787 C402.259,363.787 403.091,363.458 403.795,362.78 C404.712,361.824 405.368,360.504 405.762,358.804 L407.616,358.804 Z" id="Fill-6"></path>
            <path d="M437.37,364.374 L437.37,392.808 L453.182,392.808 C457.276,392.808 460.017,392.189 461.392,390.949 C463.237,389.32 464.262,386.461 464.477,382.355 L466.438,382.355 L466.438,407.391 L464.477,407.391 C463.979,403.888 463.479,401.642 462.987,400.66 C462.349,399.415 461.307,398.442 459.857,397.74 C458.408,397.033 456.182,396.679 453.182,396.679 L437.37,396.679 L437.37,420.384 C437.37,423.567 437.513,425.501 437.793,426.188 C438.08,426.881 438.574,427.435 439.277,427.832 C439.989,428.241 441.329,428.439 443.313,428.439 L455.514,428.439 C459.58,428.439 462.529,428.166 464.367,427.599 C466.211,427.035 467.974,425.919 469.669,424.266 C471.859,422.062 474.112,418.76 476.409,414.335 L478.526,414.335 L472.323,432.376 L416.897,432.376 L416.897,430.414 L419.442,430.414 C421.137,430.414 422.746,430.005 424.271,429.192 C425.401,428.625 426.173,427.777 426.572,426.646 C426.981,425.511 427.185,423.194 427.185,419.696 L427.185,372.963 C427.185,368.405 426.727,365.596 425.809,364.535 C424.536,363.119 422.413,362.411 419.442,362.411 L416.897,362.411 L416.897,360.443 L472.323,360.443 L473.122,376.202 L471.055,376.202 C470.31,372.416 469.483,369.825 468.583,368.405 C467.687,366.99 466.355,365.909 464.575,365.172 C463.171,364.639 460.676,364.374 457.103,364.374 L437.37,364.374 Z" id="Fill-7"></path>
            <path d="M554.434,432.37 L535.228,432.37 L510.884,398.747 C509.076,398.815 507.611,398.851 506.48,398.851 C506.022,398.851 505.53,398.836 504.997,398.822 C504.467,398.801 503.915,398.781 503.352,398.747 L503.352,419.641 C503.352,424.165 503.85,426.98 504.835,428.076 C506.18,429.626 508.194,430.407 510.884,430.407 L513.696,430.407 L513.696,432.37 L482.875,432.37 L482.875,430.407 L485.58,430.407 C488.62,430.407 490.796,429.422 492.113,427.439 C492.85,426.343 493.223,423.742 493.223,419.641 L493.223,373.179 C493.223,368.65 492.724,365.844 491.738,364.748 C490.355,363.194 488.31,362.411 485.58,362.411 L482.875,362.411 L482.875,360.449 L509.076,360.449 C516.719,360.449 522.354,361.007 525.971,362.122 C529.598,363.233 532.671,365.281 535.203,368.275 C537.734,371.259 538.996,374.822 538.996,378.957 C538.996,383.382 537.555,387.218 534.675,390.466 C531.789,393.72 527.327,396.016 521.282,397.361 L536.133,417.997 C539.529,422.74 542.442,425.885 544.887,427.439 C547.319,428.993 550.507,429.989 554.434,430.407 L554.434,432.37 Z M503.352,395.398 C504.026,395.398 504.603,395.409 505.107,395.429 C505.599,395.443 506.002,395.454 506.321,395.454 C513.182,395.454 518.354,393.964 521.836,390.998 C525.323,388.024 527.058,384.247 527.058,379.65 C527.058,375.161 525.653,371.514 522.846,368.699 C520.032,365.884 516.31,364.479 511.678,364.479 C509.629,364.479 506.854,364.817 503.352,365.485 L503.352,395.398 Z" id="Fill-8"></path>
            <path d="M566.098,386.2763 L566.098,383.7903 C569.742,381.6383 572.214,379.614 573.527,377.737 C574.444,376.391 574.906,374.787 574.906,372.913 C574.906,371.818 574.712,371.005 574.323,370.472 C573.896,369.944 573.442,369.675 572.938,369.675 C572.55,369.675 572.042,369.8 571.405,370.043 C570.483,370.367 569.72,370.522 569.123,370.522 C567.706,370.522 566.452,370 565.356,368.938 C564.265,367.877 563.716,366.552 563.716,364.957 C563.716,363.194 564.265,361.808 565.356,360.822 C566.841,359.477 568.614,358.799 570.668,358.799 C573.029,358.799 575.164,359.806 577.049,361.799 C578.942,363.801 579.894,366.282 579.894,369.252 C579.894,373.426 578.319,377.228 575.171,380.656 C573.082,382.9223 570.06,384.7913 566.098,386.2763" id="Fill-9"></path>
            <path d="M639.455,358.804 L639.455,383.6811 L637.492,383.6811 C636.855,378.907 635.714,375.106 634.075,372.277 C632.431,369.446 630.085,367.2 627.044,365.54 C624,363.881 620.851,363.049 617.604,363.049 C613.928,363.049 610.883,364.17 608.476,366.417 C606.08,368.659 604.871,371.22 604.871,374.085 C604.871,376.277 605.63,378.269 607.151,380.073 C609.348,382.7291 614.564,386.2611 622.805,390.6801 C629.521,394.2931 634.11,397.0571 636.561,398.9851 C639.02,400.9081 640.915,403.1801 642.241,405.7961 C643.559,408.4171 644.227,411.1561 644.227,414.0211 C644.227,419.4681 642.119,424.1551 637.892,428.1011 C633.66,432.0431 628.226,434.0191 621.578,434.0191 C619.491,434.0191 617.533,433.8561 615.691,433.5361 C614.593,433.3621 612.323,432.7151 608.879,431.6041 C605.426,430.4881 603.249,429.9291 602.322,429.9291 C601.44,429.9291 600.744,430.1981 600.23,430.7261 C599.717,431.2601 599.34,432.3561 599.095,434.0191 L597.132,434.0191 L597.132,409.3581 L599.095,409.3581 C600.008,414.5141 601.253,418.3761 602.811,420.9471 C604.361,423.5081 606.738,425.6301 609.934,427.3351 C613.134,429.0281 616.646,429.8801 620.468,429.8801 C624.882,429.8801 628.38,428.7091 630.939,426.3831 C633.502,424.0461 634.787,421.2861 634.787,418.1021 C634.787,416.3341 634.299,414.5551 633.326,412.7511 C632.361,410.9421 630.84,409.2631 628.794,407.7091 C627.413,406.6481 623.646,404.3911 617.5,400.9431 C611.342,397.5021 606.972,394.7501 604.371,392.6981 C601.77,390.6511 599.796,388.3831 598.458,385.9081 C597.112,383.4361 596.444,380.711 596.444,377.741 C596.444,372.58 598.418,368.131 602.381,364.399 C606.339,360.668 611.379,358.804 617.5,358.804 C621.314,358.804 625.367,359.741 629.64,361.619 C631.624,362.501 633.024,362.939 633.834,362.939 C634.752,362.939 635.506,362.665 636.088,362.113 C636.67,361.57 637.142,360.468 637.492,358.804 L639.455,358.804 Z" id="Fill-10"></path>
            <path d="M384.09,175.884 C383.817,177.404 381.572,178.735 382.771,180.303 C385.103,179.667 385.231,176.568 386.238,174.613 C387.607,166.807 389.48,157.291 385.912,149.877 C387.976,158.417 386.512,168.033 384.09,175.884" id="Fill-11"></path>
            <path d="M308.46,46.603 C309.945,46.996 311.26,47.026 312.341,46.389 C312.047,45.86 312.239,44.914 311.649,44.704 C310.129,44.754 308.311,44.176 307.384,42.592 L307.384,42.014 C307.964,42.224 308.408,42.174 308.46,42.965 C309.541,44.865 311.26,44.386 312.69,43.539 C313.169,42.911 313.665,42.069 313.231,41.277 C311.308,39.638 309.199,38.059 306.495,39.005 C306.056,39.274 305.614,39.478 305.272,39.961 C305.272,39.961 303.873,41.576 304.099,42.672 C304.318,43.772 306.976,46.204 308.46,46.603" id="Fill-12"></path>
            <path d="M308.219,287.858 C307.49,290.259 306.348,292.477 304.928,294.584 C302.51,292.521 305.386,289.771 305.108,287.176 C304.659,286.533 303.974,285.945 303.282,286.438 C302.322,286.982 301.545,288.058 300.357,288.058 C299.943,287.515 299.725,286.926 299.679,286.295 C300.357,284.082 303.24,283.499 304.792,281.482 C304.792,281.482 308.082,285.308 308.219,287.858 Z M285.936,272.947 C287.073,275.513 288.313,278.033 289.482,280.514 C292.865,286.842 287.379,292.292 288.981,299.406 C286.557,304.459 282.073,308.534 279.103,313.342 C278.603,314.662 277.323,316.092 278.284,317.607 C276.313,319.181 274.166,320.252 272.205,321.832 C270.881,323.551 270.058,325.513 270.058,327.865 C270.287,328.602 271.241,328.602 271.702,328.553 C271.426,329.434 271.63,330.266 271.125,331.048 C274.502,329.459 288.227,329.28 288.445,329.175 C288.547,326.49 287.436,323.865 286.37,321.772 C289.204,319.854 291.263,317.103 291.307,313.471 C295.281,308.813 299.602,304.818 303.785,299.686 C307.971,294.564 310.688,291.151 310.55,285.556 C308.248,281.406 305.394,277.49 303.925,272.952 L285.936,272.947 Z" id="Fill-13"></path>
            <path d="M416.493,172.507 L421.101,170.046 L424.714,169.512 C422.388,171.571 419.139,171.277 416.493,172.507 Z M411.421,175.695 L411.421,175.347 C413.982,174.175 416.674,173.289 419.465,172.7 C416.907,174.077 414.162,174.859 411.421,175.695 Z M406.625,174.465 C406.988,173.923 407.903,174.027 408.453,173.584 C410.326,172.158 412.697,171.959 414.848,171.277 L406.625,174.465 Z M401.363,173.384 C409.18,169.069 417.679,165.531 426.686,163.863 L421.101,167.933 C414.257,169.015 407.808,171.182 401.363,173.384 Z M431.485,173.584 C428.096,175.252 424.674,176.668 421.101,177.798 C424.586,176.379 427.694,174.175 431.485,173.584 Z M401.05,191.933 L402.185,191.933 L393.641,193.692 C394.915,191.538 398.673,192.81 401.05,191.933 Z M370.1,186.491 L371.105,181.869 C370.742,183.393 371.928,186.039 370.1,186.491 Z M378.331,265.095 C378.699,266.267 379.352,271.258 378.944,272.334 C376.272,267.86 370.896,258.524 369.264,254.185 C373.059,255.704 377.323,261.214 378.331,265.095 Z M408.125,317.203 C409.504,317.891 411.711,319.914 411.88,320.337 C412.044,320.761 411.735,321.618 411.735,321.618 C411.735,321.618 409.917,322.441 407.87,322.266 C405.822,322.091 404.975,320.732 404.975,320.732 C404.745,320.781 404.286,318.185 404.65,317.01 L399.723,308.719 C403.699,310.528 403.968,315.878 408.125,317.203 Z M267.592,259.396 C267.41,259.988 266.725,262.814 266.358,263.307 C265.49,262.17 265.853,258.175 264.806,256.944 C265.945,257.189 266.676,258.619 267.592,259.396 Z M270.058,260.138 C270.786,260.088 271.47,260.088 271.884,260.825 C271.246,261.12 270.409,263.954 270.132,264.687 L268.618,261.787 C268.887,261.787 270.058,260.138 270.058,260.138 Z M231.894,129.072 C231.894,129.072 233.412,130.467 231.894,129.072 C231.037,128.29 246.859,113.2 255.853,95.453 C264.851,77.712 273.229,61.599 274.036,59.801 C274.49,57.34 280.807,44.117 284.546,41.786 C288.285,39.459 292.672,38.337 292.672,38.337 C292.672,38.337 289.428,40.216 291.688,55.242 C293.753,68.967 293.235,66.472 293.235,66.472 C293.235,66.472 288.008,61.819 287.376,57.688 C286.743,53.553 288.514,48.367 287.195,48.701 C285.934,51.775 284.745,48.317 274.801,81.572 C270.113,97.257 266.358,120.687 270.24,120.394 C271.112,119.113 274.475,112.028 280.199,106.937 C284.863,102.792 290.938,100.634 292.268,100.276 C291.31,101.795 279.703,112.896 277.801,114.823 C275.897,116.757 270.955,123.821 268.399,127.109 C264.399,132.251 254.267,145.494 252.623,147.014 C252.67,146.54 249.584,135.61 244.971,130.767 C240.962,126.557 231.894,129.072 231.894,129.072 Z M212.334,199.541 C211.784,200.472 210.882,199.834 209.428,200.591 C207.667,201.513 205.371,203.745 205.371,203.745 C204.506,202.515 206.03,200.761 206.391,199.541 C212.651,191.15 214.203,180.693 217.728,171.078 L220.882,159.986 C221.948,158.457 222.478,157.246 223.984,157.147 L225.632,159.986 C225.172,161.312 224.247,161.531 223.161,163.525 C220.396,175.766 216.171,187.663 212.334,199.541 Z M265.118,43.409 C269.373,41.934 273.165,38.302 277.643,38.448 C279.333,38.157 280.939,37.516 282.58,37.023 C277.098,39.966 271.246,42.034 265.118,43.409 Z M303.469,27.85 C300.861,27.706 297.983,27.361 295.056,27.511 C289.8,27.85 284.775,28.786 279.606,29.425 C286.643,26.526 296.116,23.581 303.469,27.85 Z M288.158,33.297 C292.268,32.219 296.429,31.138 300.815,30.845 C296.834,31.92 292.592,33.006 288.158,33.297 Z M313.019,33.695 C314.554,35.258 316.223,40.211 316.309,40.559 C316.408,40.908 317.507,43.44 317.952,44.092 C318.396,44.744 328.055,54.102 329.795,56.113 C330.154,56.113 330.567,56.213 330.795,55.77 C328.923,53.12 323.627,43.211 322.569,41.786 L324.863,39.484 L330.43,45.667 C328.464,50.614 333.039,54.35 334.543,58.57 C335.549,60.139 337.243,61.605 336.554,63.721 C337.702,65.047 339.306,65.586 339.658,67.399 C339.48,68.868 339.43,70.438 338.656,71.663 C337.243,71.524 338.747,70.099 338.015,69.367 L335.05,63.523 C334.586,63.178 334.318,62.296 333.585,62.641 C332.988,64.011 333.899,65.586 334.089,67.059 C334.089,67.059 332.52,66.566 331.886,66.911 C331.253,67.254 330.43,68.135 330.43,68.135 C330.342,66.467 330.846,63.477 329.291,61.953 C328.286,60.976 327.139,59.801 325.674,60.528 C325.037,60.828 324.353,61.216 324.041,61.953 C325.314,63.916 323.259,69.262 325.037,70.387 L324.353,71.131 C323.627,69.461 321.063,68.041 322.063,65.634 C322.339,64.409 323.073,61.076 323.027,60.528 C322.339,59.108 321.695,60.976 320.925,60.877 C319.513,60.628 315.672,57.434 314.803,56.997 C313.706,56.797 312.426,57.14 311.51,58.027 C311.784,59.94 319.007,62.671 319.416,64.409 C319.824,66.148 319.731,68.868 318.774,70.583 C317.04,68.429 312.631,69.865 307.028,65.281 C301.424,60.707 300.254,59.138 296.625,53.633 C292.999,48.117 292.341,42.577 293.539,39.911 C294.768,37.201 299.759,36.714 302.681,35.458 C305.605,34.203 311.487,32.12 313.019,33.695 Z M309.222,18.279 L304.472,12.296 C307.12,14.846 311.324,15.778 312.518,19.899 C311.876,19.361 311.198,17.447 310.05,16.909 C310.371,19.704 312.333,22.26 313.019,25.205 C311.238,23.442 310.64,20.536 309.222,18.279 Z M322.717,86.146 C322.253,85.16 320.652,84.871 320.737,83.491 C321.866,82.349 322.89,83.72 323.306,84.601 L322.717,86.146 Z M238.977,223.191 C238.797,224.023 238.294,224.959 237.33,225.347 L234.864,225.148 L234.361,221.816 C236.002,222.014 237.425,222.747 238.977,223.191 Z M252.644,52.587 C256.389,50.519 261.053,50.08 265.303,48.85 C261.419,51.012 257.212,52.87 252.644,52.587 Z M445.788,160.201 C437.793,156.424 432.262,165.059 426.054,168.885 C425.586,168.058 424.714,168.297 424.077,168.004 L428.694,163.39 C430.389,163.295 432.121,162.952 433.447,162.314 L433.275,162.164 C432.172,161.721 430.617,162.314 429.662,161.816 L429.836,161.625 C429.332,161.432 429.248,162.164 428.835,162.164 C419.828,162.902 411.965,166.533 404.014,169.917 C402.28,170.898 400.405,172.028 398.718,172.571 C407.486,163.634 418.915,161.432 430.658,160.201 C431.3,160.051 432.172,159.808 432.307,159.169 C416.629,159.464 401.133,163.195 391.816,178.606 L391.678,178.411 C393.328,174.724 396.197,171.291 399.215,168.497 C405.976,161.625 414.938,159.757 423.074,156.131 L423.764,155.449 C413.844,158.781 403.381,160.689 395.788,169.917 L395.604,169.772 C402.923,158.532 414.391,150.924 427.694,153.336 L426.686,152.449 C415.984,150.098 406.49,154.999 398.896,162.846 L398.718,162.707 C400.363,160.789 401.955,159.319 403.836,157.75 C406.579,155.687 409.729,153.974 412.06,151.568 C411.376,151.423 410.874,151.811 410.235,151.911 C404.153,155.543 397.846,159.664 393.774,166.384 C396.436,159.369 403.559,153.974 409.275,149.803 L407.944,149.604 C399.768,153.086 393.272,162.119 390.029,170.455 C390.442,165.795 391.124,161.575 391.17,157.012 C389.434,163.684 388.703,170.803 386.74,177.325 L387.203,178.062 C391.17,178.306 390.996,173.16 393.142,170.803 C393.456,171.396 393.227,172.223 393.328,172.911 C391.678,175.268 389.484,177.569 389.66,180.513 C387.288,182.481 384.683,184.394 382.257,185.809 C382.311,185.128 382.68,184.539 382.764,183.901 C382.535,183.412 382.122,182.726 381.444,183.014 C380.572,184.195 380.389,186.014 380.472,187.238 C380.108,186.307 379.75,185.128 380.159,184.046 C379.655,183.214 379.198,181.296 378.017,182.282 C377.968,178.944 379.381,176.049 379.336,172.911 C377.827,175.9 376.864,179.093 376.368,182.481 C375.455,175.411 379.246,169.578 383.263,164.272 C382.804,169.283 382.213,174.63 379.336,178.754 C378.883,179.492 379.705,179.974 380.294,179.974 C380.981,179.438 381.304,178.704 381.804,178.062 C384.045,172.666 385.053,165.891 384.09,159.852 L383.591,163.195 C379.655,166.733 376.592,171.442 375.041,176.638 C374.26,178.894 375.082,181.789 372.756,183.362 C372.71,180.224 372.576,176.393 373.718,173.798 C372.206,173.798 371.609,176.1 370.742,177.325 C370.837,181.545 367.315,183.653 365.989,187.238 C365.671,185.371 366.633,183.696 366.991,181.938 L366.493,181.744 C364.937,184.195 364.439,187.139 363.519,189.89 C362.339,188.27 362.062,186.257 361.057,184.584 C355.249,176.243 347.256,170.559 338.524,168.347 C331.718,166.29 327.418,157.701 320.925,154.905 C318.014,153.679 316.656,150.451 314.672,148.04 L311.93,148.04 C312.148,148.359 312.148,148.991 312.703,148.841 C315.624,156.455 323.259,156.405 327.646,162.443 C333.68,171.366 343.959,170.001 350.994,176.568 C359.094,183.444 363.748,192.764 365.161,203.072 L366.198,206.933 C361.898,198.434 356.235,190.563 349.642,183.492 C358.516,197.059 364.196,212.693 366.109,228.785 C366.792,234.56 365.337,238.809 364.574,244.27 C364.466,245.072 364.514,245.725 364.634,246.302 C363.448,247.886 361.585,248.952 359.907,249.686 C359.113,249.571 355.577,242.665 350.395,236.025 C343.71,227.445 340.067,221.696 332.625,217.461 C325.181,213.22 302.656,207.741 302.656,207.741 C302.656,207.741 306.841,206.346 310.274,205.992 C316.105,205.404 322.172,206.39 327.662,208.398 C331.304,209.728 334.557,211.882 337.87,213.914 C338.253,208.976 335.882,198.832 333.766,197.194 C329.695,194.049 329.405,193.871 328.849,193.731 C326.914,193.222 318.667,188.984 316.467,187.154 C313.083,184.325 310.876,180.424 310.688,179.567 C310.386,178.147 311.92,166.265 306.576,162.982 C305.478,163.863 306.068,165.781 305.437,167.052 C303.56,173.584 299.074,178.979 294.096,184.18 C293.596,182.317 294.296,177.897 292.055,177.558 C291.703,178.013 290.458,184.728 288.766,187.991 C285.168,194.902 279.269,201.818 277.883,203.451 C275.847,205.862 264.71,216.469 263.337,224.068 C262.568,225.098 261.511,226.529 260.363,226.379 C261.006,223.778 259.457,222.014 257.905,220.545 C260.796,215.104 263.036,209.34 265.19,203.556 L265.196,203.556 C265.994,201.388 266.787,199.227 267.592,197.084 C269.373,192.81 271.884,188.938 273.668,184.714 C275.122,182.855 276.869,180.942 276.138,178.341 C277.274,178.142 278.837,178.196 279.289,176.916 C278.47,175.447 279.235,172.741 276.315,172.7 C273.404,172.652 269.097,175.884 267.592,179.567 C266.949,181.869 267.499,184.275 267.089,186.491 C267.089,186.491 264.134,198.16 262.124,203.546 L263.823,203.546 L262.124,203.556 C260.537,207.805 258.848,212.026 256.895,216.121 C255.48,217.935 252.543,221.596 252.49,222.303 C252.447,223.007 250.812,227.061 248.991,228.492 C248.304,227.654 248.849,226.529 249.17,225.691 C250.129,222.109 251.956,218.965 254.103,215.971 C255.776,211.781 257.777,207.716 259.553,203.556 L259.558,203.556 C262.118,197.548 264.215,191.329 264.164,184.18 C264.435,179.079 267.499,174.027 271.884,171.959 C274.536,171.326 279.928,171.671 280.75,172.158 C282.721,172.009 287.999,168.178 288.019,166.174 C288.031,164.9 284.847,163.146 282.586,162.757 C277.357,161.86 273.257,164.018 272.027,164.75 C273.393,163.424 278.889,152.154 281.51,148.04 C284.138,143.91 281.519,148.04 281.519,148.04 C281.571,147.686 287.882,142.201 290.622,136.636 C293.367,131.07 292.769,129.072 293.596,125.545 C293.412,125.196 293.091,125.102 292.769,125.152 C291.214,127.747 278.149,136.88 275.497,140.904 C277.098,136.192 282.902,127.997 282.902,127.997 C282.902,127.997 285.745,123.507 290.943,115.287 C296.143,107.061 298.849,98.169 298.849,98.169 C301.09,105.033 297.157,114.549 302.462,120.045 C306.846,128.779 309.958,138.105 311.876,147.965 C311.895,147.985 311.91,148.014 311.93,148.04 L314.672,148.04 C314.354,147.655 314.017,147.287 313.656,146.958 C311.968,135.175 306.989,124.877 301.825,114.614 C301.872,107.899 302.14,100.195 299.677,94.158 C300.265,89.738 301.872,85.768 302.957,81.597 C304.198,80.956 310.416,79.684 311.691,81.258 C313.799,83.071 311.468,83.66 311.238,87.182 C311.049,90.122 315.624,90.77 315.624,90.77 C315.624,90.77 322.089,91.801 323.535,92.195 C326.231,92.926 327.508,89.738 329.472,89.205 C330.846,87.337 328.464,85.817 327.96,84.103 C327.227,81.842 328.464,80.078 329.472,78.409 L334.543,81.792 C335.822,82.335 337.148,81.648 337.84,80.561 C337.326,77.677 339.43,75.953 339.02,73.108 C339.943,72.664 340.938,72.027 341.498,70.996 C342.22,69.476 342.269,66.925 341.129,65.559 C340.397,64.08 338.338,62.511 338.338,62.511 C338.338,62.511 333.031,52.447 332.44,45.038 C328.903,40.873 327.418,41.366 325.863,38.173 C332.812,30.516 351.291,11.065 354.626,7.433 C356.184,5.43 358.561,3.517 358.745,1.106 L357.412,0.912 C346.583,8.021 332.49,18.1 323.851,25.807 L323.394,25.807 C324.533,21.537 327.554,17.413 331.118,14.817 C329.514,15.698 327.826,16.381 326.5,18 L326.317,17.856 C327.826,14.568 331.209,12.117 333.585,9.715 C331.253,10.746 329.336,12.709 327.322,14.473 L327.139,14.328 C329.158,8.783 334.049,4.504 338.015,0.339 L338.015,0 C332.255,2.989 328.373,9.61 324.041,14.668 L323.851,14.473 C325.127,11.873 326.042,9.078 327.139,6.377 L327.004,6.178 C325.314,8.195 324.129,10.792 322.717,13.053 L322.391,10.792 C321.657,11.873 322.436,13.591 321.747,14.668 C320.468,12.56 318.41,10.647 316.808,8.833 C317.412,11.628 320.421,13.541 320.737,16.236 C317.04,12.31 313.749,8.146 313.983,2.451 C313.248,4.066 313.983,5.884 313.983,7.608 C314.573,12.162 319.641,14.473 320.11,18.888 L318.094,16.092 C315.395,12.659 311.828,8.729 308.223,6.178 C308.54,6.377 308.77,6.87 308.59,7.059 C311.059,10.941 315.533,14.273 317.952,18.349 C319.606,20.801 319.731,24.333 318.458,27.033 C318.32,26.251 317.952,25.613 318.094,24.731 C317.222,18.299 311.277,11.922 306.121,10.596 L306.437,11.14 C310.916,13.641 314.758,18 316.126,23.157 C316.126,24.144 316.86,25.269 316.126,26.151 C313.886,21.239 312.518,14.623 306.759,12.709 C303.974,10.647 300.951,7.552 301.642,3.722 L301.497,3.722 C300.362,7.059 302.554,9.76 304.472,12.162 L304.29,12.36 C302.462,10.746 300.407,9.76 298.213,9.172 C301.36,11.428 304.887,14.03 307.08,17.661 C308.314,20.068 309.82,22.564 310.371,25.065 C308.63,22.18 306.989,19.031 304.105,16.775 L303.648,16.775 C299.493,11.524 293.957,9.81 288.158,8.833 C295.101,11.524 302.462,15.5 306.253,22.763 L305.932,22.763 C300.494,16.381 293.454,13.446 285.87,12.36 C289.571,14.766 294.05,15.259 297.704,17.856 L297.524,18 C292.5,14.766 285.555,14.13 280.112,14.328 C285.413,15.259 291.085,15.31 295.422,18.888 C289.07,16.975 281.898,16.143 274.858,15.55 C272.618,15.599 269.421,14.473 267.908,16.581 C276.869,15.798 285.959,17.611 294.096,20.507 L294.096,20.845 C291.857,20.507 289.249,20.112 286.831,19.769 L286.698,20.507 C281.664,19.629 276.592,18.793 271.2,18.888 C268.914,19.231 266.174,18.888 264.297,19.963 C272.297,20.262 281.071,20.556 288.847,22.424 C285.555,23.301 281.484,22.862 278.47,23.501 C278.699,24.189 279.43,23.596 279.791,24.039 C273.755,24.382 266.764,23.157 261.19,25.065 C259.5,26.007 257.348,26.391 256.389,28.458 C263.476,23.596 273.72,25.858 282.264,25.807 C274.995,28.852 265.624,26.789 258.863,30.715 C262.972,30.865 266.992,29.091 271.2,29.489 C270.745,29.633 270.058,29.877 270.058,30.57 C263.337,31.054 257.441,33.66 250.812,34.442 C246.702,34.881 242.176,34.242 238.154,34.98 C238.247,35.074 238.386,35.179 238.294,35.323 C240.579,36.01 243.553,35.423 245.696,35.862 C255.66,36.553 263.659,31.647 273.351,32.135 C266.496,33.803 259.864,35.962 252.778,37.092 L251.956,37.78 C259.68,37.142 267.319,35.129 274.858,33.361 L275.311,33.903 L275.18,34.097 C266.122,39.055 255.383,39.986 244.419,39.404 C242.726,39.593 240.899,39.548 239.619,40.819 C247.018,40.042 255.71,41.656 262.972,40.086 C265.353,39.448 267.858,38.616 270.058,37.973 C269.873,38.173 269.739,38.412 269.421,38.322 L269.237,39.548 C264.393,42.249 259.457,44.506 253.465,44.162 C246.109,44.106 239.343,40.574 232.074,42.393 L232.401,42.732 C240.665,42.045 247.521,46.12 255.43,45.388 L256.574,45.726 C251.365,46.803 245.919,47.35 240.299,47.35 C244.328,47.645 249.263,47.594 253.283,47.35 C249.083,48.771 244.239,49.653 240.119,49.996 C248.304,50.439 255.567,47.35 263.337,46.12 C266.541,46.803 269.28,44.849 272.387,45.237 C266.72,47.151 260.868,48.53 255.11,50.146 C250.675,53.09 244.784,52.352 239.935,54.216 C246.338,54.216 254.379,55.247 260.679,53.334 C263.613,52.253 266.399,50.239 269.237,49.462 L269.237,49.653 C268.637,49.901 269.144,50.34 269.237,50.689 C260.236,57.649 249.17,59.371 238.797,62.9 L238.797,63.248 C245.329,62.511 251.818,60.698 258.032,58.63 C260.777,57.903 263.2,55.885 265.808,55.292 L265.439,55.636 C265.49,56.423 264.481,56.278 264.297,56.865 L265.808,57.065 C260.829,60.199 255.067,61.624 250.169,64.479 C255.383,64.026 260.236,61.475 264.986,59.174 L265.624,59.174 C263.108,60.896 260.415,62.511 258.032,64.279 C249.993,66.632 239.844,63.641 232.901,68.888 C229.244,70.901 227.961,75.659 227.458,78.802 C228.647,76.839 228.33,74.045 230.243,72.614 L230.069,72.426 C230.748,71.933 231.483,71.339 231.569,70.652 C237.104,66.392 244.784,65.559 252.139,66.582 C249.993,67.363 247.798,67.956 245.563,68.35 C240.442,70.02 233.625,70.701 231.718,77.373 L232.216,77.373 C233.359,75.659 234.956,73.746 236.645,72.764 C242.544,68.151 250.772,69.033 257.398,66.925 C253.781,70.02 248.665,69.277 244.419,70.652 L253.099,70.652 C248.849,72.664 244.146,73.596 239.619,75.071 C238.651,75.898 237.054,76.148 236.825,77.722 C242.078,75.364 247.89,74.528 253.283,72.614 C257.486,72.226 260.736,68.838 264.164,66.925 L263.337,68.35 C256.164,76.839 244.644,73.94 237.014,81.06 L237.014,82.14 C241.079,79.386 245.696,76.595 250.997,77.034 C247.293,79.24 242.955,79.684 239.483,82.335 C239.619,82.524 239.896,82.674 239.804,83.022 C241.999,80.956 245.053,79.834 248.027,79.834 C242.365,82.774 236.329,85.912 231.253,89.007 C236.509,88.468 240.579,84.736 245.373,82.823 C250.359,80.715 255.246,77.82 260.363,76.491 C257.125,78.747 253.649,80.472 250.313,82.485 C251.322,83.222 252.097,81.842 252.967,82.335 C245.971,85.669 239.074,89.205 232.216,92.931 L231.894,93.619 C237.701,92.24 242.628,88.807 248.027,86.35 L248.991,86.35 C250.169,87.093 251.322,85.13 252.461,85.33 C248.343,88.418 243.135,89.056 239.303,92.543 L239.483,92.738 C243.187,91.801 246.61,89.593 250.169,88.857 C249.35,89.644 247.934,89.839 248.027,91.313 C244.512,94.004 240.538,96.171 236.509,96.952 L236.509,97.351 C241.86,97.889 246.338,94.063 250.812,91.313 C250.772,91.906 249.624,93.126 248.849,93.42 C244.692,98.532 238.797,100.002 233.543,102.647 L240.442,100.346 C242.998,99.503 245.329,97.646 247.706,96.808 C243.68,101.372 238.616,103.724 233.359,105.443 L233.359,105.786 C238.931,105.736 243.778,102.886 248.027,98.921 L248.166,99.12 C247.436,100.395 246.109,100.978 245.696,102.447 C243.68,104.611 241.353,105.986 238.977,107.211 C238.11,107.599 236.604,107.111 236.329,108.287 C238.568,108.537 240.942,107.988 242.773,106.667 C244.419,105.686 245.919,103.823 247.521,103.135 C246.109,106.912 242.228,108.78 239.113,110.4 L239.483,110.738 C241.585,110.689 243.324,109.567 245.053,108.437 L245.237,108.631 L239.619,115.895 C232.58,121.34 226.359,128.599 224.81,137.437 C223.954,141.025 223.004,144.587 221.794,148.03 L221.794,148.04 C221.268,149.534 220.698,151.009 220.059,152.449 C219.325,154.467 216.993,165.845 215.942,169.917 C212.558,180.513 204.285,199.171 203.285,200.486 C202.285,201.802 202.46,205.743 202.46,206.864 C204.01,211.528 205.203,218.203 211.141,218.492 C214.163,220.161 217.453,220.998 220.698,222.025 C223.895,222.762 223.856,226.742 225.809,228.945 C228.514,230.415 231.941,230.565 235.18,230.176 C236.329,230.324 236.466,229.244 236.825,228.406 C238.651,228.262 240.165,227.176 241.446,225.557 C242.726,221.93 247.345,222.866 248.343,219.235 C248.07,218.053 246.884,217.705 246.059,217.267 C242.307,216.579 239.343,212.363 235.18,214.422 C235.009,212.363 230.121,211.029 228.599,210.745 C226.686,211.672 225.759,212.259 223.472,213.097 C222.834,211.777 219.733,211.432 218.551,211.084 C218.983,208.593 218.288,205.962 218.112,203.546 C217.942,201.159 219.703,196.825 220.376,195.415 C221.048,194.001 232.764,188.663 236.509,181.251 C237.195,181.494 238.017,181.401 238.651,181.938 C241.966,189.482 245.625,196.955 250.976,203.556 C252.344,205.245 253.824,206.869 255.43,208.439 L252.277,215.498 C249.399,219.085 247.759,223.2 246.884,227.674 C246.385,231.256 248.941,233.464 249.17,236.697 C249.945,240.972 248.805,246.073 250.812,249.745 C256.164,252.988 256.348,259.221 255.751,264.767 C256.712,267.855 258.771,270.555 261.511,272.22 C261.608,272.454 261.69,272.698 261.777,272.947 L261.783,272.947 C262.527,275.124 263.073,277.651 265.118,278.756 C267.858,279.778 271.246,279.289 273.351,277.133 C274.236,275.797 274.965,274.398 275.491,272.947 L265.945,272.947 L275.491,272.943 C276.558,269.978 276.694,266.804 275.311,263.541 C273.807,262.465 274.036,260.548 272.847,259.316 C271.75,258.041 270.143,257.603 268.594,258.091 C266.399,254.902 263.16,253.726 260.679,251.027 C260.868,246.466 261.006,241.704 261.19,237.384 C263.063,234.984 262.517,231.89 261.69,229.094 C263.974,228.018 264.847,225.363 266.266,223.45 C267.179,222.418 267.089,220.849 268.276,220.116 C272.795,223.898 277.601,226.938 282.58,229.633 C281.484,232.039 280.653,234.585 280.112,237.236 C278.699,242.197 281.026,246.417 282.58,250.488 C280.648,258.733 282.907,266.052 285.939,272.937 L303.921,272.943 C303.294,270.994 302.923,268.917 302.957,266.66 C302.685,262.684 303.331,258.708 304.472,255.181 C311.277,251.499 317.774,246.836 323.711,240.708 L330.622,239.82 C339.943,242.815 348.259,249.536 355.117,257.826 C358.044,262.928 360.884,268.14 364.456,272.943 L364.461,272.943 C366.273,275.393 368.292,277.74 370.609,279.908 C378.145,286.439 374.719,299.736 385.416,303.069 C385.325,305.222 387.657,304.983 388.703,306.208 C392.5,309.6 395.883,314.111 397.895,318.778 C397.164,320.248 396.614,322.056 397.068,323.875 C397.751,325.199 398.941,325.738 400.218,325.833 C399.919,326.984 399.065,331.362 399.936,334.327 C400.776,337.182 403.322,338.656 404.017,338.606 C409.453,342.344 416.405,339.2 422.113,338.274 C422.441,338.124 423.024,337.974 422.935,337.386 C420.884,335.962 418.278,337.242 416.17,337.725 C414.933,336.161 414.442,334.298 413.061,332.773 C411.921,331.891 410.411,331.542 409.09,331.741 C408.403,330.96 408.403,329.828 408.453,328.753 C410.102,327.078 411.053,324.816 413.061,324.134 C417.551,327.372 421.7,332.329 423.395,337.576 C423.896,337.681 424.222,337.386 424.586,337.188 C423.623,330.909 418.002,325.758 413.384,322.027 L413.888,321.488 C413.251,317.512 409.135,315.844 406.49,313.881 C403.649,308.679 398.437,305.885 395.29,300.833 C394.138,296.507 393.734,291.894 391.806,287.924 C391.084,284.052 386.102,283.798 386.049,279.778 C385.938,277.441 385.693,275.159 385.3,272.947 L368.366,272.943 L385.3,272.943 C384.453,268.184 382.913,263.72 380.472,259.664 C378.281,255.489 373.578,252.939 372.391,248.375 C378.376,237.191 375.404,222.279 370.1,211.781 L370.1,210.889 C373.941,214.372 378.74,217.461 383.591,216.385 C378.823,216.385 374.764,214.467 371.43,210.745 L371.564,210.55 C373.023,211.432 374.309,212.702 375.864,213.195 C378.923,214.133 383.08,214.815 385.734,212.509 C380.249,213.395 374.533,212.363 370.922,207.751 C374.628,209.469 379.153,211.727 383.591,210.55 C382.764,209.564 380.981,209.614 379.655,209.121 C383.222,208.732 386.875,208.588 390.347,207.89 C392.584,207.362 395.06,207.063 396.755,205.44 C393.687,206.131 390.347,207.751 386.875,207.362 C386.83,207.212 386.97,207.112 387.058,207.014 L384.408,207.014 C385.28,206.619 386.512,206.665 387.058,205.783 L379.655,205.25 C380.025,205.151 380.294,204.752 380.803,204.901 C385.499,205.42 390.357,205.19 394.601,203.561 L393.242,203.556 L394.601,203.556 C396.051,202.998 397.436,202.281 398.718,201.374 C396.7,202.285 394.547,203.042 392.325,203.556 L392.31,203.556 C389.037,204.299 385.598,204.487 382.122,203.82 C382.545,203.686 382.989,203.601 383.443,203.556 C385.421,203.347 387.671,203.775 389.529,203.138 C393.093,202.156 396.523,200.925 399.909,199.406 C395.604,200.143 391.309,202.35 386.74,202.256 L386.74,201.374 L395.788,199.261 C397.89,199.206 397.936,196.073 400.222,196.416 C401.05,195.924 402.644,195.335 402.51,194.304 C397.622,195.135 393.002,197.293 387.885,196.955 L387.885,196.416 C397.711,196.018 406.071,191.947 415.17,189.695 L416.674,188.804 C413.384,189.302 410.235,190.672 407.127,191.115 C407.172,189.99 408.766,190.672 408.766,189.347 C404.476,189.89 400.042,190.772 395.604,190.427 L406.625,188.465 C409.453,187.727 412.602,187.528 414.848,185.67 L412.697,185.475 C415.079,184.439 417.864,184.146 419.646,181.938 L419.465,181.744 C415.806,182.965 412.06,183.951 408.263,184.789 L407.621,184.394 C407.716,184.195 407.944,184.245 408.13,184.245 C408.681,184.146 408.494,183.751 408.766,183.362 C413.524,182.183 418.502,181.545 423.074,179.831 C423.801,179.537 425.042,179.049 424.899,178.211 C428.471,176.786 432.077,175.023 434.912,172.028 C433.995,172.811 433.218,172.373 432.121,172.766 C425.546,173.36 420.374,178.261 414.028,178.944 C419.238,177.031 424.177,174.385 429.153,171.88 C433.034,169.821 437.975,169.134 442.315,169.772 C440.08,167.808 436.516,168.247 433.771,168.686 C431.526,169.178 429.382,170.509 427.368,170.998 C430.389,168.84 433.726,167.515 436.92,165.845 C438.619,165.358 440.443,164.815 441.997,164.272 C437.657,164.032 433.995,166.533 430.163,168.147 L429.522,168.147 C434.499,164.377 438.978,158.781 445.788,160.201 Z" id="Fill-14"></path>
            <path d="M12.1297,480.1845 L12.1297,480.9325 L0.4657,480.9325 L0.4657,480.1845 L1.4297,480.1845 C2.5587,480.1845 3.3677,479.8615 3.8787,479.1985 C4.1997,478.7695 4.3647,477.7475 4.3647,476.1105 L4.3647,458.5275 C4.3647,457.1525 4.2727,456.2405 4.0987,455.7965 C3.9657,455.4675 3.6897,455.1795 3.2757,454.9345 C2.6907,454.6165 2.0727,454.4565 1.4297,454.4565 L0.4657,454.4565 L0.4657,453.7145 L12.1297,453.7145 L12.1297,454.4565 L11.1427,454.4565 C10.0317,454.4565 9.2247,454.7865 8.7167,455.4435 C8.3847,455.8725 8.2157,456.8975 8.2157,458.5275 L8.2157,476.1105 C8.2157,477.4845 8.3027,478.4015 8.4747,478.8385 C8.6097,479.1735 8.8887,479.4615 9.3167,479.7065 C9.8957,480.0255 10.5007,480.1845 11.1427,480.1845 L12.1297,480.1845 Z" id="Fill-15"></path>
            <path d="M45.6439,453.0917 L46.2669,462.3437 L45.6439,462.3437 C44.8129,459.5787 43.6289,457.5807 42.0949,456.3597 C40.5519,455.1497 38.7069,454.5367 36.5549,454.5367 C34.7479,454.5367 33.1149,454.9947 31.6569,455.9107 C30.1969,456.8287 29.0489,458.2887 28.2119,460.2967 C27.3799,462.3037 26.9639,464.8007 26.9639,467.7837 C26.9639,470.2447 27.3549,472.3787 28.1469,474.1807 C28.9319,475.9887 30.1199,477.3747 31.7069,478.3417 C33.2939,479.3027 35.0999,479.7857 37.1349,479.7857 C38.9009,479.7857 40.4609,479.4077 41.8129,478.6507 C43.1609,477.8937 44.6499,476.3937 46.2669,474.1467 L46.8899,474.5447 C45.5229,476.9667 43.9309,478.7397 42.1149,479.8657 C40.2929,480.9867 38.1319,481.5497 35.6299,481.5497 C31.1219,481.5497 27.6319,479.8757 25.1549,476.5327 C23.3099,474.0467 22.3849,471.1167 22.3849,467.7427 C22.3849,465.0247 22.9929,462.5287 24.2139,460.2557 C25.4269,457.9787 27.1049,456.2197 29.2379,454.9707 C31.3709,453.7187 33.7019,453.0917 36.2329,453.0917 C38.2019,453.0917 40.1419,453.5707 42.0549,454.5367 C42.6149,454.8297 43.0189,454.9807 43.2579,454.9807 C43.6189,454.9807 43.9309,454.8507 44.2029,454.5957 C44.5489,454.2327 44.7919,453.7357 44.9419,453.0917 L45.6439,453.0917 Z" id="Fill-16"></path>
            <path d="M71.1556,453.0917 C74.6856,453.0917 77.7476,454.4317 80.3376,457.1177 C82.9256,459.8037 84.2206,463.1467 84.2206,467.1607 C84.2206,471.2967 82.9166,474.7287 80.3076,477.4597 C77.6956,480.1847 74.5386,481.5497 70.8336,481.5497 C67.0906,481.5497 63.9406,480.2207 61.3896,477.5547 C58.8436,474.8987 57.5696,471.4457 57.5696,467.2167 C57.5696,462.8967 59.0396,459.3737 61.9836,456.6427 C64.5396,454.2777 67.5936,453.0917 71.1556,453.0917 M70.7716,454.5577 C68.3386,454.5577 66.3846,455.4577 64.9156,457.2677 C63.0796,459.5137 62.1646,462.8077 62.1646,467.1407 C62.1646,471.5807 63.1136,474.9987 65.0126,477.3947 C66.4726,479.2137 68.4006,480.1247 70.7916,480.1247 C73.3496,480.1247 75.4606,479.1337 77.1246,477.1347 C78.7926,475.1427 79.6246,471.9987 79.6246,467.7037 C79.6246,463.0457 78.7056,459.5787 76.8746,457.2857 C75.4046,455.4677 73.3696,454.5577 70.7716,454.5577" id="Fill-17"></path>
            <path d="M92.992,453.7148 L100.379,453.7148 L117.015,474.1268 L117.015,458.4268 C117.015,456.7538 116.826,455.7118 116.456,455.2988 C115.956,454.7398 115.172,454.4568 114.102,454.4568 L113.16,454.4568 L113.16,453.7148 L122.634,453.7148 L122.634,454.4568 L121.669,454.4568 C120.521,454.4568 119.703,454.8058 119.221,455.4978 C118.929,455.9268 118.78,456.9028 118.78,458.4268 L118.78,481.3698 L118.058,481.3698 L100.114,459.4538 L100.114,476.2138 C100.114,477.8888 100.296,478.9238 100.659,479.3388 C101.166,479.9048 101.95,480.1848 103.006,480.1848 L103.97,480.1848 L103.97,480.9268 L94.497,480.9268 L94.497,480.1848 L95.441,480.1848 C96.605,480.1848 97.426,479.8358 97.909,479.1388 C98.2,478.7098 98.348,477.7378 98.348,476.2138 L98.348,457.2858 C97.557,456.3598 96.96,455.7528 96.553,455.4578 C96.143,455.1688 95.548,454.8908 94.756,454.6358 C94.369,454.5168 93.782,454.4568 92.992,454.4568 L92.992,453.7148 Z" id="Fill-18"></path>
            <path d="M143.626,480.1845 L143.626,480.9325 L131.962,480.9325 L131.962,480.1845 L132.926,480.1845 C134.055,480.1845 134.867,479.8615 135.376,479.1985 C135.697,478.7695 135.862,477.7475 135.862,476.1105 L135.862,458.5275 C135.862,457.1525 135.769,456.2405 135.594,455.7965 C135.462,455.4675 135.189,455.1795 134.775,454.9345 C134.187,454.6165 133.569,454.4565 132.926,454.4565 L131.962,454.4565 L131.962,453.7145 L143.626,453.7145 L143.626,454.4565 L142.643,454.4565 C141.529,454.4565 140.725,454.7865 140.213,455.4435 C139.882,455.8725 139.713,456.8975 139.713,458.5275 L139.713,476.1105 C139.713,477.4845 139.8,478.4015 139.975,478.8385 C140.106,479.1735 140.388,479.4615 140.815,479.7065 C141.392,480.0255 142,480.1845 142.643,480.1845 L143.626,480.1845 Z" id="Fill-19"></path>
            <path d="M177.211,453.0917 L177.834,462.3437 L177.211,462.3437 C176.379,459.5787 175.195,457.5807 173.659,456.3597 C172.119,455.1497 170.273,454.5367 168.119,454.5367 C166.313,454.5367 164.681,454.9947 163.22,455.9107 C161.764,456.8287 160.616,458.2887 159.783,460.2967 C158.946,462.3037 158.528,464.8007 158.528,467.7837 C158.528,470.2447 158.921,472.3787 159.711,474.1807 C160.498,475.9887 161.687,477.3747 163.273,478.3417 C164.86,479.3027 166.665,479.7857 168.701,479.7857 C170.464,479.7857 172.027,479.4077 173.379,478.6507 C174.725,477.8937 176.216,476.3937 177.834,474.1467 L178.456,474.5447 C177.088,476.9667 175.497,478.7397 173.68,479.8657 C171.86,480.9867 169.695,481.5497 167.197,481.5497 C162.686,481.5497 159.195,479.8757 156.721,476.5327 C154.876,474.0467 153.951,471.1167 153.951,467.7427 C153.951,465.0247 154.56,462.5287 155.778,460.2557 C156.994,457.9787 158.672,456.2197 160.804,454.9707 C162.937,453.7187 165.268,453.0917 167.796,453.0917 C169.767,453.0917 171.706,453.5707 173.619,454.5367 C174.179,454.8297 174.582,454.9807 174.822,454.9807 C175.186,454.9807 175.497,454.8507 175.766,454.5957 C176.115,454.2327 176.359,453.7357 176.506,453.0917 L177.211,453.0917 Z" id="Fill-20"></path>
            <path d="M218.418,480.1845 L218.418,480.9325 L206.759,480.9325 L206.759,480.1845 L207.718,480.1845 C208.847,480.1845 209.659,479.8615 210.168,479.1985 C210.489,478.7695 210.654,477.7475 210.654,476.1105 L210.654,458.5275 C210.654,457.1525 210.561,456.2405 210.386,455.7965 C210.254,455.4675 209.981,455.1795 209.568,454.9345 C208.979,454.6165 208.361,454.4565 207.718,454.4565 L206.759,454.4565 L206.759,453.7145 L218.418,453.7145 L218.418,454.4565 L217.434,454.4565 C216.319,454.4565 215.515,454.7865 215.005,455.4435 C214.674,455.8725 214.504,456.8975 214.504,458.5275 L214.504,476.1105 C214.504,477.4845 214.592,478.4015 214.766,478.8385 C214.898,479.1735 215.179,479.4615 215.607,479.7065 C216.183,480.0255 216.792,480.1845 217.434,480.1845 L218.418,480.1845 Z" id="Fill-21"></path>
            <path d="M250.972,453.7148 L251.27,460.0968 L250.511,460.0968 C250.364,458.9758 250.16,458.1678 249.911,457.6908 C249.492,456.9128 248.939,456.3408 248.252,455.9708 C247.562,455.6028 246.655,455.4178 245.532,455.4178 L241.7,455.4178 L241.7,476.2138 C241.7,477.8888 241.879,478.9238 242.241,479.3388 C242.746,479.9048 243.533,480.1848 244.59,480.1848 L245.532,480.1848 L245.532,480.9268 L233.993,480.9268 L233.993,480.1848 L234.957,480.1848 C236.105,480.1848 236.92,479.8358 237.405,479.1388 C237.697,478.7098 237.843,477.7378 237.843,476.2138 L237.843,455.4178 L234.573,455.4178 C233.303,455.4178 232.401,455.5138 231.865,455.6978 C231.17,455.9508 230.574,456.4448 230.079,457.1668 C229.583,457.8838 229.29,458.8658 229.198,460.0968 L228.43,460.0968 L228.752,453.7148 L250.972,453.7148 Z" id="Fill-22"></path>
            <path d="M275.586,471.8154 L265.051,471.8154 L263.204,476.1144 C262.752,477.1674 262.52,477.9574 262.52,478.4804 C262.52,478.8944 262.72,479.2574 263.113,479.5774 C263.506,479.8854 264.363,480.0904 265.674,480.1844 L265.674,480.9264 L257.103,480.9264 L257.103,480.1844 C258.241,479.9864 258.976,479.7274 259.312,479.4024 C259.992,478.7584 260.748,477.4554 261.579,475.4924 L271.155,453.0914 L271.852,453.0914 L281.325,475.7304 C282.092,477.5484 282.78,478.7304 283.402,479.2684 C284.025,479.8154 284.893,480.1154 286.004,480.1844 L286.004,480.9264 L275.265,480.9264 L275.265,480.1844 C276.345,480.1294 277.081,479.9554 277.464,479.6414 C277.847,479.3384 278.035,478.9594 278.035,478.5204 C278.035,477.9274 277.765,477.0014 277.235,475.7304 L275.586,471.8154 Z M275.025,470.3304 L270.409,459.3344 L265.674,470.3304 L275.025,470.3304 Z" id="Fill-23"></path>
            <path d="M317.788,473.4042 L318.451,473.5442 L316.119,480.9262 L295.048,480.9262 L295.048,480.1842 L296.075,480.1842 C297.22,480.1842 298.042,479.8112 298.539,479.0592 C298.823,478.6302 298.962,477.6432 298.962,476.0902 L298.962,458.5312 C298.962,456.8342 298.773,455.7722 298.399,455.3432 C297.878,454.7502 297.098,454.4522 296.075,454.4522 L295.048,454.4522 L295.048,453.7152 L307.369,453.7152 L307.369,454.4522 C305.925,454.4412 304.911,454.5762 304.328,454.8552 C303.748,455.1382 303.349,455.4932 303.134,455.9222 C302.921,456.3492 302.813,457.3722 302.813,458.9952 L302.813,476.0902 C302.813,477.2002 302.921,477.9622 303.134,478.3822 C303.296,478.6602 303.543,478.8642 303.879,479.0042 C304.21,479.1382 305.257,479.2032 307.012,479.2032 L308.996,479.2032 C311.084,479.2032 312.547,479.0492 313.388,478.7402 C314.235,478.4312 315.002,477.8882 315.699,477.1052 C316.395,476.3242 317.092,475.0832 317.788,473.4042" id="Fill-24"></path>
            <path d="M339.834,480.1845 L339.834,480.9325 L328.17,480.9325 L328.17,480.1845 L329.132,480.1845 C330.259,480.1845 331.068,479.8615 331.581,479.1985 C331.903,478.7695 332.067,477.7475 332.067,476.1105 L332.067,458.5275 C332.067,457.1525 331.977,456.2405 331.803,455.7965 C331.668,455.4675 331.394,455.1795 330.98,454.9345 C330.392,454.6165 329.772,454.4565 329.132,454.4565 L328.17,454.4565 L328.17,453.7145 L339.834,453.7145 L339.834,454.4565 L338.848,454.4565 C337.735,454.4565 336.929,454.7865 336.416,455.4435 C336.085,455.8725 335.917,456.8975 335.917,458.5275 L335.917,476.1105 C335.917,477.4845 336.008,478.4015 336.176,478.8385 C336.312,479.1735 336.589,479.4615 337.018,479.7065 C337.597,480.0255 338.203,480.1845 338.848,480.1845 L339.834,480.1845 Z" id="Fill-25"></path>
            <path d="M367.365,471.8154 L356.831,471.8154 L354.984,476.1144 C354.53,477.1674 354.301,477.9574 354.301,478.4804 C354.301,478.8944 354.5,479.2574 354.894,479.5774 C355.287,479.8854 356.14,480.0904 357.455,480.1844 L357.455,480.9264 L348.882,480.9264 L348.882,480.1844 C350.022,479.9864 350.754,479.7274 351.092,479.4024 C351.771,478.7584 352.522,477.4554 353.354,475.4924 L362.929,453.0914 L363.634,453.0914 L373.104,475.7304 C373.872,477.5484 374.558,478.7304 375.181,479.2684 C375.804,479.8154 376.672,480.1154 377.782,480.1844 L377.782,480.9264 L367.047,480.9264 L367.047,480.1844 C368.128,480.1294 368.86,479.9554 369.242,479.6414 C369.62,479.3384 369.815,478.9594 369.815,478.5204 C369.815,477.9274 369.542,477.0014 369.014,475.7304 L367.365,471.8154 Z M366.806,470.3304 L362.188,459.3344 L357.455,470.3304 L366.806,470.3304 Z" id="Fill-26"></path>
            <path d="M385.43,453.7148 L392.82,453.7148 L409.453,474.1268 L409.453,458.4268 C409.453,456.7538 409.266,455.7118 408.889,455.2988 C408.398,454.7398 407.612,454.4568 406.538,454.4568 L405.599,454.4568 L405.599,453.7148 L415.07,453.7148 L415.07,454.4568 L414.108,454.4568 C412.957,454.4568 412.144,454.8058 411.656,455.4978 C411.367,455.9268 411.216,456.9028 411.216,458.4268 L411.216,481.3698 L410.494,481.3698 L392.555,459.4538 L392.555,476.2138 C392.555,477.8888 392.733,478.9238 393.096,479.3388 C393.601,479.9048 394.388,480.1848 395.442,480.1848 L396.41,480.1848 L396.41,480.9268 L386.935,480.9268 L386.935,480.1848 L387.875,480.1848 C389.043,480.1848 389.865,479.8358 390.348,479.1388 C390.638,478.7098 390.784,477.7378 390.784,476.2138 L390.784,457.2858 C389.993,456.3598 389.401,455.7528 388.993,455.4578 C388.584,455.1688 387.986,454.8908 387.194,454.6358 C386.805,454.5168 386.221,454.4568 385.43,454.4568 L385.43,453.7148 Z" id="Fill-27"></path>
            <path d="M465.094,473.4042 L465.757,473.5442 L463.425,480.9262 L442.357,480.9262 L442.357,480.1842 L443.383,480.1842 C444.529,480.1842 445.356,479.8112 445.843,479.0592 C446.133,478.6302 446.273,477.6432 446.273,476.0902 L446.273,458.5312 C446.273,456.8342 446.082,455.7722 445.709,455.3432 C445.187,454.7502 444.414,454.4522 443.383,454.4522 L442.357,454.4522 L442.357,453.7152 L454.677,453.7152 L454.677,454.4522 C453.233,454.4412 452.221,454.5762 451.638,454.8552 C451.055,455.1382 450.656,455.4932 450.442,455.9222 C450.233,456.3492 450.123,457.3722 450.123,458.9952 L450.123,476.0902 C450.123,477.2002 450.233,477.9622 450.442,478.3822 C450.606,478.6602 450.851,478.8642 451.191,479.0042 C451.518,479.1382 452.565,479.2032 454.318,479.2032 L456.308,479.2032 C458.389,479.2032 459.854,479.0492 460.701,478.7402 C461.543,478.4312 462.316,477.8882 463.007,477.1052 C463.699,476.3242 464.403,475.0832 465.094,473.4042" id="Fill-28"></path>
            <path d="M494.065,454.457 L494.065,453.709 L503.696,453.709 L503.696,454.457 L502.675,454.457 C501.603,454.457 500.777,454.904 500.204,455.803 C499.925,456.216 499.781,457.182 499.781,458.692 L499.781,469.731 C499.781,472.463 499.512,474.574 498.972,476.084 C498.431,477.584 497.364,478.88 495.779,479.955 C494.191,481.031 492.038,481.574 489.306,481.574 C486.334,481.574 484.081,481.057 482.543,480.025 C481.007,478.993 479.917,477.609 479.272,475.87 C478.845,474.681 478.63,472.447 478.63,469.164 L478.63,458.531 C478.63,456.858 478.403,455.762 477.939,455.239 C477.48,454.716 476.732,454.457 475.701,454.457 L474.675,454.457 L474.675,453.709 L486.438,453.709 L486.438,454.457 L485.397,454.457 C484.266,454.457 483.47,454.811 482.984,455.519 C482.652,456.002 482.481,457.009 482.481,458.531 L482.481,470.39 C482.481,471.446 482.581,472.662 482.771,474.022 C482.966,475.387 483.32,476.448 483.826,477.216 C484.339,477.978 485.067,478.61 486.029,479.104 C486.98,479.598 488.156,479.842 489.547,479.842 C491.33,479.842 492.919,479.457 494.324,478.681 C495.729,477.902 496.691,476.912 497.2,475.701 C497.722,474.489 497.976,472.442 497.976,469.547 L497.976,458.531 C497.976,456.834 497.787,455.768 497.414,455.339 C496.895,454.75 496.119,454.457 495.086,454.457 L494.065,454.457 Z" id="Fill-29"></path>
            <path d="M528.641,465.8574 L534.485,474.5644 C536.101,476.9714 537.301,478.4964 538.087,479.1284 C538.865,479.7654 539.861,480.1204 541.068,480.1844 L541.068,480.9264 L529.388,480.9264 L529.388,480.1844 C530.162,480.1704 530.734,480.0904 531.112,479.9454 C531.392,479.8254 531.621,479.6414 531.799,479.3924 C531.985,479.1434 532.075,478.8944 532.075,478.6404 C532.075,478.3324 532.015,478.0234 531.89,477.7184 C531.799,477.4894 531.43,476.9014 530.789,475.9504 L526.176,468.9694 L520.477,476.2744 C519.872,477.0504 519.509,477.5694 519.39,477.8234 C519.269,478.0864 519.21,478.3614 519.21,478.6404 C519.21,479.0694 519.39,479.4224 519.749,479.7024 C520.113,479.9794 520.799,480.1444 521.817,480.1844 L521.817,480.9264 L512.165,480.9264 L512.165,480.1844 C512.848,480.1204 513.441,479.9754 513.929,479.7614 C514.761,479.4194 515.554,478.9434 516.301,478.3614 C517.054,477.7684 517.906,476.8664 518.868,475.6504 L525.289,467.5404 L519.932,459.6924 C518.473,457.5654 517.232,456.1694 516.22,455.5084 C515.205,454.8454 514.029,454.4914 512.709,454.4574 L512.709,453.7144 L525.289,453.7144 L525.289,454.4574 C524.218,454.4914 523.491,454.6664 523.091,454.9804 C522.699,455.2844 522.498,455.6284 522.498,456.0064 C522.498,456.4954 522.823,457.2164 523.463,458.1684 L527.635,464.4124 L532.471,458.2894 C533.035,457.5654 533.38,457.0724 533.51,456.8034 C533.639,456.5344 533.699,456.2654 533.699,455.9814 C533.699,455.7024 533.623,455.4534 533.459,455.2394 C533.26,454.9604 533.006,454.7604 532.697,454.6454 C532.388,454.5374 531.756,454.4664 530.789,454.4574 L530.789,453.7144 L540.446,453.7144 L540.446,454.4574 C539.683,454.4914 539.06,454.6164 538.575,454.8164 C537.853,455.1254 537.191,455.5384 536.588,456.0614 C535.989,456.5844 535.138,457.5444 534.038,458.9514 L528.641,465.8574 Z" id="Fill-30"></path>
            <path d="M568.882,454.457 L568.882,453.709 L578.513,453.709 L578.513,454.457 L577.498,454.457 C576.426,454.457 575.6,454.904 575.027,455.803 C574.746,456.216 574.604,457.182 574.604,458.692 L574.604,469.731 C574.604,472.463 574.332,474.574 573.791,476.084 C573.254,477.584 572.187,478.88 570.602,479.955 C569.014,481.031 566.861,481.574 564.129,481.574 C561.156,481.574 558.898,481.057 557.363,480.025 C555.83,478.993 554.735,477.609 554.091,475.87 C553.662,474.681 553.448,472.447 553.448,469.164 L553.448,458.531 C553.448,456.858 553.218,455.762 552.755,455.239 C552.299,454.716 551.555,454.457 550.524,454.457 L549.496,454.457 L549.496,453.709 L561.256,453.709 L561.256,454.457 L560.215,454.457 C559.089,454.457 558.285,454.811 557.808,455.519 C557.471,456.002 557.304,457.009 557.304,458.531 L557.304,470.39 C557.304,471.446 557.4,472.662 557.593,474.022 C557.788,475.387 558.135,476.448 558.649,477.216 C559.156,477.978 559.89,478.61 560.848,479.104 C561.803,479.598 562.975,479.842 564.369,479.842 C566.147,479.842 567.741,479.457 569.143,478.681 C570.552,477.902 571.509,476.912 572.023,475.701 C572.54,474.489 572.795,472.442 572.795,469.547 L572.795,458.531 C572.795,456.834 572.61,455.768 572.236,455.339 C571.714,454.75 570.942,454.457 569.909,454.457 L568.882,454.457 Z" id="Fill-31"></path>
            <path d="M614.564,480.9267 L607.293,480.9267 L598.082,468.2027 C597.404,468.2277 596.846,468.2427 596.418,468.2427 C596.246,468.2427 596.06,468.2387 595.86,468.2327 C595.655,468.2277 595.454,468.2137 595.238,468.2027 L595.238,476.1107 C595.238,477.8227 595.427,478.8847 595.795,479.2977 C596.309,479.8907 597.068,480.1847 598.082,480.1847 L599.149,480.1847 L599.149,480.9267 L587.487,480.9267 L587.487,480.1847 L588.51,480.1847 C589.668,480.1847 590.487,479.8117 590.983,479.0597 C591.263,478.6457 591.402,477.6637 591.402,476.1107 L591.402,458.5307 C591.402,456.8177 591.218,455.7567 590.838,455.3387 C590.319,454.7497 589.543,454.4567 588.51,454.4567 L587.487,454.4567 L587.487,453.7147 L597.404,453.7147 C600.29,453.7147 602.421,453.9237 603.793,454.3477 C605.163,454.7657 606.329,455.5437 607.284,456.6747 C608.247,457.8037 608.72,459.1557 608.72,460.7197 C608.72,462.3947 608.175,463.8437 607.085,465.0697 C605.994,466.3047 604.307,467.1707 602.018,467.6837 L607.639,475.4867 C608.924,477.2807 610.025,478.4757 610.952,479.0597 C611.875,479.6517 613.079,480.0257 614.564,480.1847 L614.564,480.9267 Z M595.238,466.9377 C595.487,466.9377 595.712,466.9417 595.9,466.9477 C596.085,466.9517 596.236,466.9567 596.359,466.9567 C598.954,466.9567 600.908,466.3987 602.226,465.2737 C603.548,464.1467 604.207,462.7167 604.207,460.9787 C604.207,459.2797 603.671,457.9007 602.612,456.8337 C601.544,455.7727 600.14,455.2397 598.386,455.2397 C597.609,455.2397 596.558,455.3687 595.238,455.6177 L595.238,466.9377 Z" id="Fill-32"></path>
            <path d="M639.297,453.7148 L648.791,453.7148 L648.791,454.4568 L648.264,454.4568 C647.919,454.4568 647.412,454.6108 646.74,454.9208 C646.072,455.2258 645.463,455.6678 644.915,456.2458 C644.368,456.8138 643.691,457.7548 642.888,459.0508 L636.326,469.3888 L636.326,476.2138 C636.326,477.8888 636.516,478.9238 636.889,479.3388 C637.398,479.9048 638.2,480.1848 639.297,480.1848 L640.178,480.1848 L640.178,480.9268 L628.618,480.9268 L628.618,480.1848 L629.581,480.1848 C630.735,480.1848 631.554,479.8358 632.031,479.1388 C632.326,478.7098 632.471,477.7378 632.471,476.2138 L632.471,469.7678 L625.008,458.3728 C624.126,457.0318 623.527,456.1948 623.209,455.8608 C622.895,455.5238 622.246,455.1288 621.25,454.6558 C620.986,454.5268 620.597,454.4568 620.091,454.4568 L620.091,453.7148 L631.734,453.7148 L631.734,454.4568 L631.13,454.4568 C630.502,454.4568 629.921,454.6068 629.396,454.8948 C628.862,455.1938 628.599,455.6318 628.599,456.2258 C628.599,456.7038 629.008,457.5748 629.826,458.8308 L635.506,467.5998 L640.841,459.2158 C641.643,457.9538 642.046,457.0178 642.046,456.4038 C642.046,456.0308 641.951,455.6928 641.756,455.3978 C641.564,455.1048 641.278,454.8698 640.924,454.7118 C640.561,454.5408 640.024,454.4568 639.297,454.4568 L639.297,453.7148 Z" id="Fill-33"></path>
        </g>
    </g>
</svg>