<?xml version="1.0" encoding="UTF-8"?>
<svg id="Livello_1" data-name="Livello 1" xmlns="http://www.w3.org/2000/svg" viewBox="0 0 417.79 112.11">
  <defs>
    <style>
      .cls-1 {
        fill: #fff;
      }
    </style>
  </defs>
  <path class="cls-1" d="M211.39,21.57V0c-6.85,0-12.41,5.55-12.41,12.41s5.56,12.41,12.41,12.41l-.07,21.64c6.85,0,12.41-5.55,12.41-12.41s-5.55-12.41-12.41-12.41V.47"/>
  <path class="cls-1" d="M384.77,96.52l7.1-18.59,7.4,18.59h-14.49ZM410.21,103.55l-14.43-35.47h-.67l-12.9,33.15c-2.81,7.22-3.79,9.3-9.11,9.66v.61h14.01v-.61c-7.52-.37-6.79-2.69-4.1-9.72l1.53-3.98h15.04l2.51,6.36c1.84,4.65,2.57,6.97-3.97,7.34v.61h19.69v-.61c-4.22-.37-5.5-2.32-7.58-7.34M373.25,69.3v-.61h-13.88l-11.44,32.11-12.78-32.11h-13.7v.61c6.73.18,7.09,3.61,7.09,7.52v24.34c0,5.93.06,9.48-6.85,9.72v.61h15.29v-.61c-7.71-.25-7.71-3.79-7.71-9.72l-.06-26.85,14.92,37.18h.73l14.62-41.16v32.35c0,6.54,0,7.95-5.93,8.2v.61h19.69v-.61c-5.93-.25-5.87-1.65-5.87-8.2v-25.2c0-6.54-.06-8.01,5.87-8.19M301.31,111.5h17.8v-.61c-4.95-.25-4.95-1.65-4.95-5.81v-29.97c0-4.16,0-5.63,4.95-5.81v-.61h-17.8v.61c5.01.18,5.01,1.65,5.01,5.81v29.97c0,4.16,0,5.57-5.01,5.81v.61ZM281.41,112.05c5.08,0,8.5-1.47,11.38-3.79,2.87-2.39,4.46-5.69,4.46-9.78,0-8.19-7.34-10.64-15.11-13.39-6.67-2.39-11.74-4.28-11.74-9.3,0-1.96.8-3.67,2.26-4.83,1.77-1.47,4.59-2.08,7.28-2.08,10.09,0,14.43,9.54,14.98,16.27h.61l-.25-17h-.61c-.12,4.22-.79,5.01-1.77,5.01s-2.08-1.04-4.28-2.38c-1.71-1.1-4.53-2.63-8.68-2.63s-8.01,1.1-10.7,3.55c-2.45,2.02-3.91,4.95-3.91,8.68,0,7.89,7.52,10.27,13.82,12.54,7.28,2.57,13.21,4.95,13.21,10.15,0,1.9-.37,3.67-1.65,5.01-2.32,2.63-5.93,3.24-9.3,3.24-10.76,0-15.53-10.03-16.02-17.31h-.61l.24,18.04h.61c.18-4.22.86-4.95,1.83-4.95,1.04,0,2.57,1.16,4.71,2.32,2.02,1.22,5.01,2.63,9.23,2.63M243.23,112.05c5.08,0,8.5-1.47,11.38-3.79,2.87-2.39,4.47-5.69,4.47-9.78,0-8.19-7.34-10.64-15.11-13.39-6.67-2.39-11.74-4.28-11.74-9.3,0-1.96.8-3.67,2.26-4.83,1.77-1.47,4.59-2.08,7.28-2.08,10.09,0,14.43,9.54,14.98,16.27h.61l-.24-17h-.61c-.12,4.22-.8,5.01-1.77,5.01s-2.08-1.04-4.28-2.38c-1.71-1.1-4.52-2.63-8.68-2.63s-8.01,1.1-10.7,3.55c-2.45,2.02-3.91,4.95-3.91,8.68,0,7.89,7.52,10.27,13.82,12.54,7.28,2.57,13.21,4.95,13.21,10.15,0,1.9-.37,3.67-1.65,5.01-2.32,2.63-5.93,3.24-9.3,3.24-10.76,0-15.53-10.03-16.02-17.31h-.61l.24,18.04h.61c.18-4.22.86-4.95,1.83-4.95,1.04,0,2.57,1.16,4.71,2.32,2.02,1.22,5.01,2.63,9.24,2.63M204.13,111.5h17.8v-.61c-4.95-.25-4.95-1.65-4.95-5.81v-29.97c0-4.16,0-5.63,4.95-5.81v-.61h-17.8v.61c5.01.18,5.01,1.65,5.01,5.81v29.97c0,4.16,0,5.57-5.01,5.81v.61ZM186.13,68.69v.61c8.38.18,8.32,3.79,8.32,9.72v20.12l-21.71-30.46h-13.52v.61c7.03.18,7.4,3.61,7.4,7.52v24.34c0,5.93,0,9.48-7.22,9.72v.61h16.39v-.61c-8.44-.25-8.44-3.79-8.44-9.72v-26.79l27.09,37.37h.73v-32.72c0-5.93,0-9.54,7.28-9.72v-.61h-16.33ZM154.12,93.52c-.49,11.44-3.61,17.25-12.9,17.25h-4.89c-4.16,0-4.16-1.22-4.16-5.14v-16.39h3.91c7.95,0,9.17,1.96,9.54,9.36h.61v-19.26h-.61c-.37,7.34-1.59,9.3-9.54,9.3h-3.91v-14.07c0-4.16.06-5.14,4.16-5.14h6.12c6.54,0,10.46,4.53,11.01,15.04h.61l-.24-15.78h-34.25v.61c4.77.18,4.77,1.59,4.77,5.81v29.97c0,4.22,0,5.57-4.77,5.81v.61h34.86l.31-17.98h-.61ZM90.07,90.59v-16.02c0-3.91,0-5.14,4.16-5.14h1.96c6.06,0,8.44,2.2,8.44,10.52s-2.38,10.64-8.44,10.64h-6.12ZM115.88,99.94v4.77c0,1.53-.12,2.51-.43,3.12-.24.61-.73,1.16-1.71,1.16-.86,0-1.41-.49-1.71-1.16-.25-.61-.37-1.71-.37-3.06v-3.55c0-5.38-4.77-8.93-12.05-10.09,8.13-.73,13.45-3.85,13.45-11.19,0-8.56-7.34-11.25-16.88-11.25h-18.71v.61c4.77.18,4.77,1.59,4.77,5.81v29.97c0,4.22,0,5.57-4.77,5.81v.61h18.47v-.61c-5.87-.25-5.87-1.59-5.87-5.81v-13.76h5.32c5.32,0,8.2,2.08,8.2,8.38v5.14c0,2.26.18,3.91,1.1,5.14.92,1.22,2.45,2.14,5.14,2.14s4.53-1.16,5.44-2.26c.98-1.16,1.22-2.51,1.22-5.14v-4.77h-.61ZM71.33,93.52c-.49,11.44-3.61,17.25-12.9,17.25h-4.89c-4.16,0-4.16-1.22-4.16-5.14v-16.39h3.91c7.95,0,9.17,1.96,9.54,9.36h.61v-19.26h-.61c-.37,7.34-1.59,9.3-9.54,9.3h-3.91v-14.07c0-4.16.06-5.14,4.16-5.14h6.11c6.54,0,10.46,4.53,11.01,15.04h.61l-.24-15.78h-34.25v.61c4.77.18,4.77,1.59,4.77,5.81v29.97c0,4.22,0,5.57-4.77,5.81v.61h34.86l.31-17.98h-.61ZM16.64,112.05c5.08,0,8.5-1.47,11.38-3.79,2.88-2.39,4.47-5.69,4.47-9.78,0-8.19-7.34-10.64-15.11-13.39-6.67-2.39-11.74-4.28-11.74-9.3,0-1.96.8-3.67,2.26-4.83,1.77-1.47,4.59-2.08,7.28-2.08,10.09,0,14.43,9.54,14.98,16.27h.61l-.24-17h-.61c-.12,4.22-.8,5.01-1.77,5.01s-2.08-1.04-4.28-2.38c-1.71-1.1-4.53-2.63-8.68-2.63s-8.01,1.1-10.7,3.55c-2.45,2.02-3.91,4.95-3.91,8.68,0,7.89,7.52,10.27,13.82,12.54,7.28,2.57,13.21,4.95,13.21,10.15,0,1.9-.37,3.67-1.65,5.01-2.32,2.63-5.93,3.24-9.3,3.24-10.76,0-15.53-10.03-16.02-17.31h-.61l.25,18.04h.61c.18-4.22.86-4.95,1.84-4.95,1.04,0,2.57,1.16,4.71,2.32,2.02,1.22,5.02,2.63,9.23,2.63"/>
</svg>