<?xml version="1.0" encoding="UTF-8"?>
<svg id="Livello_1" data-name="Livello 1" xmlns="http://www.w3.org/2000/svg" viewBox="0 0 160 118">
  <defs>
    <style>
      .cls-1 {
        fill: #fff;
      }
    </style>
  </defs>
  <g>
    <path class="cls-1" d="M20.53,76.65v.1c-.21,2.11-1.41,4.37-4.17,4.37-3.68,0-4.99-3.44-4.99-6.39s1.31-6.39,4.99-6.39c2.15,0,3.52,1.11,4.07,3.31l.02.08h3.14v-.12c-.35-3.57-3.19-5.9-7.23-5.93-4.79,0-8.14,3.72-8.14,9.04s3.35,9.04,8.14,9.04c4.09,0,7.01-2.82,7.25-7.01v-.12s-3.07,0-3.07,0Z"/>
    <polygon class="cls-1" points="28.8 80.57 28.8 75.8 37.3 75.8 37.3 73.14 28.8 73.14 28.8 68.89 37.98 68.89 37.98 66.09 25.63 66.09 25.63 83.37 38.15 83.37 38.15 80.57 28.8 80.57"/>
    <path class="cls-1" d="M54.67,83.19c-.56-.61-.9-2.26-.9-4.42,0-2.69-1.45-3.45-2.32-3.66,1.69-.7,2.61-2.22,2.61-4.3,0-3.05-2.04-4.72-5.74-4.72h-8.25v17.29h3.2v-7.03h4.28c2.48,0,3.28,1.07,3.28,4.41,0,.84,0,1.8.47,2.57l.03.05h3.51l-.17-.18ZM50.85,71.24c0,1.71-.97,2.62-2.8,2.62h-4.78v-5.11h4.74c1.33,0,2.85.28,2.85,2.5Z"/>
    <path class="cls-1" d="M64.03,66.09h-3.3l-6.57,17.29h3.29l1.58-4.52h6.59l1.59,4.52h3.41l-6.59-17.29ZM64.77,76.37h-4.85l2.44-7,2.41,7Z"/>
    <path class="cls-1" d="M81.05,73.86c-.71-.21-3.28-.9-4.38-1.19-.25-.07-.42-.11-.47-.12-1.29-.36-1.92-1.04-1.92-2.09,0-1.56,1.54-2.11,2.97-2.11,2.21,0,3.39.98,3.51,2.91v.1h3.16v-.11c0-3.84-3.29-5.55-6.56-5.55-3.01,0-6.25,1.6-6.25,5.12,0,2.8,2.06,3.95,3.8,4.43.84.23,1.58.43,2.23.59,1.13.29,2.03.53,2.78.81.57.22,1.32.66,1.32,2,0,1.82-1.78,2.47-3.44,2.47-3.61,0-4.15-2.22-4.15-3.55v-.11h-3.16v.11c.07,3.88,2.73,6.2,7.12,6.2,3.13,0,6.79-1.43,6.79-5.46,0-1.59-.88-3.7-3.35-4.45Z"/>
    <path class="cls-1" d="M94.1,66.26h-3.2l-6.36,16.93h3.19l1.53-4.42h6.38l1.54,4.42h3.31l-6.39-16.93ZM94.82,76.33h-4.69l2.36-6.84,2.33,6.84Z"/>
    <path class="cls-1" d="M115.81,83.01c-.54-.59-.86-2.21-.86-4.33,0-2.63-1.39-3.37-2.23-3.59,1.04-.45,2.51-1.55,2.51-4.21,0-2.98-1.96-4.63-5.52-4.63h-7.92v16.93h3.08v-6.88h4.11c2.38,0,3.14,1.05,3.14,4.32,0,.83,0,1.76.45,2.51l.03.05h3.38l-.17-.18ZM112.14,71.31c0,1.67-.93,2.56-2.69,2.56h-4.59v-5h4.54c1.27,0,2.73.28,2.73,2.44Z"/>
    <path class="cls-1" d="M124.79,66.26h-6.89v16.93h6.89c4.59,0,7.33-3.17,7.33-8.47s-2.74-8.47-7.33-8.47ZM129.04,74.73c0,2.9-.64,5.86-5.35,5.86h-2.71v-11.72h2.71c4.71,0,5.35,2.96,5.35,5.86Z"/>
    <path class="cls-1" d="M142.06,66.26h-3.2l-6.36,16.93h3.19l1.54-4.42h6.38l1.54,4.42h3.31l-6.38-16.93ZM142.77,76.33h-4.69l2.36-6.84,2.34,6.84Z"/>
    <path class="cls-1" d="M147.53,66.73c-.4.41-.61.9-.61,1.48s.2,1.08.6,1.49c.4.41.89.61,1.47.61s1.07-.2,1.47-.61c.4-.41.61-.91.61-1.49s-.2-1.07-.61-1.48c-.41-.41-.9-.61-1.47-.61s-1.06.21-1.47.61M150.71,69.93c-.47.48-1.04.71-1.71.71s-1.24-.24-1.71-.71c-.47-.47-.7-1.05-.7-1.72s.23-1.24.71-1.71c.47-.47,1.04-.71,1.7-.71s1.24.24,1.71.71c.47.47.71,1.04.71,1.71s-.24,1.25-.71,1.72M149.45,67.29c-.12-.07-.3-.1-.56-.1h-.4v.96h.42c.2,0,.35-.02.44-.06.18-.07.27-.21.27-.42,0-.19-.06-.32-.18-.39M148.95,66.87c.33,0,.57.03.72.1.27.11.41.34.41.67,0,.24-.09.41-.26.53-.09.06-.22.1-.39.13.21.03.36.12.46.26.1.14.15.28.15.41v.2c0,.06,0,.13,0,.2,0,.07.01.12.02.14l.02.03h-.44s0-.02,0-.03c0,0,0-.02,0-.03v-.09s-.01-.21-.01-.21c0-.31-.08-.51-.25-.61-.1-.06-.27-.09-.52-.09h-.37v1.05h-.47v-2.66h.93Z"/>
  </g>
  <g>
    <path class="cls-1" d="M77.22,37c.56.71.75,1.28.55,2.35-.06.34-.21.66-.35.91-.61,1.13-1.75,1.74-3.17,1.67-1.52-.07-2.97-1.07-3.54-2.6l-.02-.05c-.09-.22-.15-.49-.18-.77-.03-.21-.04-.42-.04-.64,0-.35.02-.7.05-.99.05-.4.19-.85.39-1.3.14-.34.32-.67.53-.98.03-.05.09-.13.09-.13,1.56-2.16,4.78-3.49,8.26-3.49h.03s.03,0,.03,0c3.48,0,6.7,1.33,8.26,3.49,0,0,.06.08.09.13.21.31.39.64.53.98.2.45.34.9.39,1.3.04.29.06.64.05.99,0,.22-.01.43-.04.64-.04.28-.09.55-.18.77l-.02.05c-.56,1.53-2.01,2.53-3.54,2.6-1.41.07-2.56-.55-3.17-1.67-.14-.26-.29-.57-.35-.91-.2-1.07-.01-1.64.55-2.35.53-.68,1.66-.9,2.5-.61.14.05.27.11.4.2.15.1.28.23.38.39.13.19.22.59.21.94-.01.34-.14.73-.56.73-.23,0-.36-.1-.44-.25-.04-.07-.06-.15-.09-.23-.02-.07-.04-.15-.06-.23-.08-.3-.21-.57-.76-.57-1.22,0-1.29,2.15-.19,2.87.68.44,1.36.53,1.97.38,1.44-.36,2.48-2.1,1.97-3.91-.05-.22-.12-.43-.2-.63-.02-.06-.05-.12-.09-.17-.88-2-3.81-3.64-7.61-3.64h-.05c-3.8,0-6.73,1.63-7.61,3.64-.03.06-.06.12-.09.17-.08.2-.15.41-.2.63-.52,1.81.53,3.55,1.97,3.91.61.15,1.3.06,1.97-.38,1.1-.72,1.03-2.87-.19-2.87-.56,0-.68.27-.76.57-.02.08-.04.16-.06.23-.02.08-.05.16-.09.23-.08.15-.21.25-.44.25-.41,0-.54-.38-.56-.73-.01-.35.08-.75.21-.94.11-.16.24-.29.38-.39.12-.09.26-.15.4-.2.83-.28,1.96-.07,2.5.61"/>
    <path class="cls-1" d="M72.23,37.29c.12-1.35,1.27-2.57,2.89-2.7,1.09-.09,1.98.18,2.78.73.52.36,1.08,1.05,1.29,1.48,1.1,2.3.27,5.25-1.3,7.97-1.57,2.72-3.71,4.92-6.25,5.11-.48.04-1.36-.1-1.93-.37-.87-.42-1.55-1.05-2.02-2.04-.7-1.46-.22-3.07.89-3.85,1.1-.77,2.49-.87,3.35-.02.37.37.7.97.56,1.76-.07.4-.4.8-.75,1.03-.34.22-.78.32-1-.06-.1-.18-.04-.33.06-.45.09-.11.23-.23.35-.36.05-.05.09-.11.13-.17.11-.19.15-.43-.09-.82-.42-.66-1.38-.54-2.03.1-.15.14-.27.3-.36.47-.28.52-.32,1.2.12,1.95.64,1.09,1.33,1.46,2.3,1.54.68.06,1.43-.2,1.98-.51,1.14-.66,2.54-2.1,3.6-3.94,1.06-1.84,1.61-3.77,1.61-5.09,0-.63-.15-1.41-.54-1.97-.56-.8-1.22-1.21-2.48-1.22-.87,0-1.44.37-1.75.87-.11.16-.19.34-.23.54-.23.88.15,1.77.93,1.81.45.02.65-.14.75-.33.04-.06.07-.13.08-.19.05-.17.09-.35.14-.48.06-.15.16-.28.36-.28.44,0,.58.43.56.84-.02.42-.21.9-.52,1.16-.61.52-1.3.54-1.81.4-1.16-.32-1.77-1.58-1.65-2.91"/>
    <path class="cls-1" d="M88.81,48.08c-.9.13-1.48.01-2.31-.7-.26-.23-.46-.51-.61-.76-.67-1.09-.63-2.39.13-3.58.82-1.28,2.41-2.04,4.02-1.76h.06c.24.04.5.12.76.23.19.08.39.17.58.28.31.17.6.36.83.54.32.24.64.59.93.99.23.29.42.61.58.95.02.05.07.14.07.14,1.09,2.43.63,5.89-1.11,8.9v.02s-.03.02-.03.02c-1.74,3.01-4.5,5.13-7.15,5.41,0,0-.1,0-.16.01-.37.03-.75.02-1.11-.03-.49-.05-.95-.16-1.32-.31-.27-.11-.58-.27-.88-.45-.19-.11-.37-.23-.54-.36-.23-.17-.43-.36-.57-.54l-.04-.05c-1.04-1.25-1.18-3.01-.48-4.36.65-1.26,1.75-1.94,3.03-1.91.29,0,.64.04.97.15,1.03.36,1.42.81,1.76,1.65.32.8-.05,1.89-.72,2.47-.11.1-.24.18-.37.24-.16.08-.34.12-.53.14-.22.02-.62-.1-.92-.29-.29-.18-.56-.49-.35-.84.11-.2.27-.26.44-.26.08,0,.16.02.24.04.08.02.15.04.24.06.3.08.6.1.88-.38.61-1.06-1.22-2.2-2.39-1.6-.72.36-1.14.91-1.31,1.52-.4,1.42.57,3.2,2.4,3.66.21.07.43.11.64.14.06,0,.13.01.19.01,2.17.24,5.05-1.48,6.95-4.77v-.02s.03-.02.03-.02c1.9-3.29,1.95-6.65.66-8.41-.03-.06-.07-.11-.11-.16-.13-.17-.28-.33-.44-.49-1.31-1.35-3.34-1.31-4.37-.25-.44.45-.7,1.09-.66,1.9.07,1.32,1.97,2.33,2.58,1.27.28-.48.1-.72-.11-.95-.06-.06-.12-.12-.17-.17-.06-.06-.11-.12-.15-.19-.09-.14-.11-.31,0-.51.21-.36.6-.28.91-.12.31.16.61.45.71.65.08.17.13.35.15.53.01.15,0,.3-.03.44-.17.86-.92,1.73-1.78,1.85"/>
    <path class="cls-1" d="M70.82,48.08c-.86-.12-1.61-.99-1.78-1.85-.03-.14-.04-.29-.03-.44.02-.18.06-.35.15-.53.1-.2.4-.49.71-.65.3-.16.7-.24.91.12.11.19.09.36,0,.51-.04.07-.1.13-.15.19-.05.06-.11.11-.17.17-.22.22-.39.47-.11.95.61,1.06,2.51.05,2.58-1.27.05-.81-.22-1.45-.66-1.9-1.03-1.06-3.06-1.1-4.37.25-.16.15-.31.32-.44.49-.04.05-.08.11-.11.16-1.3,1.76-1.24,5.12.66,8.41v.02s.03.02.03.02c1.9,3.29,4.78,5.01,6.95,4.77.06,0,.13,0,.19-.01.21-.03.43-.07.64-.14,1.83-.46,2.81-2.24,2.4-3.66-.17-.61-.59-1.15-1.31-1.52-1.18-.59-3,.55-2.39,1.6.28.48.58.45.88.38.08-.02.16-.04.24-.06.08-.02.16-.04.24-.04.17,0,.32.06.43.26.21.36-.06.66-.35.84-.3.19-.69.3-.92.29-.19-.01-.37-.06-.53-.14-.14-.06-.26-.15-.37-.24-.66-.58-1.04-1.67-.72-2.47.34-.84.73-1.29,1.76-1.65.32-.11.67-.15.96-.15,1.28-.04,2.38.65,3.03,1.91.7,1.36.56,3.11-.48,4.36l-.04.05c-.14.19-.35.37-.57.54-.16.13-.34.25-.54.36-.3.18-.61.33-.88.45-.37.15-.83.26-1.32.31-.36.05-.74.06-1.11.03-.05,0-.16-.01-.16-.01-2.65-.27-5.42-2.4-7.15-5.41v-.02s-.03-.02-.03-.02c-1.74-3.01-2.2-6.46-1.11-8.9,0,0,.04-.09.07-.14.16-.34.36-.65.58-.95.29-.4.61-.74.93-.99.23-.18.52-.37.83-.54.19-.11.38-.21.58-.28.26-.11.52-.19.76-.22h.06c1.61-.28,3.19.47,4.02,1.75.77,1.19.81,2.49.13,3.58-.15.25-.35.53-.61.76-.83.71-1.41.83-2.31.7"/>
    <path class="cls-1" d="M87.4,37.29c-.12-1.35-1.27-2.57-2.89-2.7-1.09-.09-1.98.18-2.78.73-.52.36-1.08,1.05-1.29,1.48-1.1,2.3-.27,5.25,1.3,7.97,1.57,2.72,3.71,4.92,6.25,5.11.48.04,1.36-.1,1.93-.37.87-.42,1.55-1.05,2.02-2.04.7-1.46.22-3.07-.89-3.85-1.1-.77-2.49-.87-3.35-.02-.37.37-.7.97-.55,1.76.07.4.4.8.75,1.03.34.22.78.32,1.01-.06.1-.18.04-.33-.06-.45-.09-.11-.23-.23-.34-.36-.05-.05-.09-.11-.13-.17-.11-.19-.15-.43.09-.82.42-.66,1.38-.54,2.03.1.15.14.27.3.36.47.28.52.32,1.2-.12,1.95-.64,1.09-1.33,1.46-2.3,1.54-.68.06-1.43-.2-1.98-.51-1.14-.66-2.54-2.1-3.6-3.94-1.06-1.84-1.61-3.77-1.61-5.09,0-.63.15-1.41.54-1.97.56-.8,1.22-1.21,2.48-1.22.87,0,1.44.37,1.75.87.11.16.19.34.23.54.23.88-.15,1.77-.93,1.81-.45.02-.64-.14-.75-.33-.04-.06-.07-.13-.08-.19-.05-.17-.08-.35-.14-.48-.06-.15-.16-.28-.36-.28-.44,0-.58.43-.56.84.02.42.21.9.52,1.16.61.52,1.3.54,1.8.4,1.16-.32,1.77-1.58,1.65-2.91"/>
    <path class="cls-1" d="M83.47,56.76c1.23.57,2.86.18,3.78-1.15.62-.9.83-1.8.76-2.77-.05-.63-.37-1.46-.64-1.86-1.44-2.1-4.41-2.86-7.55-2.86s-6.11.76-7.55,2.86c-.27.4-.59,1.23-.64,1.86-.07.97.13,1.87.76,2.77.92,1.33,2.55,1.73,3.78,1.15,1.22-.56,2-1.72,1.69-2.89-.14-.51-.49-1.09-1.25-1.36-.38-.14-.89-.06-1.27.13-.36.18-.67.52-.45.9.1.18.26.2.42.18.14-.02.31-.08.48-.12.07-.02.14-.02.21-.03.22,0,.45.09.66.49.36.69-.22,1.46-1.1,1.71-.2.06-.4.08-.59.07-.59-.02-1.2-.32-1.63-1.08-.62-1.1-.6-1.88-.19-2.76.29-.62.89-1.14,1.43-1.45,1.14-.66,3.09-1.15,5.21-1.15s4.07.49,5.21,1.15c.54.31,1.14.83,1.43,1.45.41.88.43,1.66-.19,2.76-.43.75-1.04,1.06-1.63,1.08-.19.01-.39-.01-.59-.07-.88-.24-1.46-1.01-1.1-1.71.21-.4.44-.49.66-.49.07,0,.14,0,.21.03.17.04.34.1.48.12.16.02.32,0,.42-.18.22-.39-.09-.72-.45-.9-.37-.19-.89-.27-1.27-.13-.76.27-1.11.86-1.25,1.36-.31,1.17.48,2.32,1.69,2.89"/>
  </g>
  <g>
    <path class="cls-1" d="M9.58,87.92h.4v2.63h1.5v.36h-1.9v-2.98Z"/>
    <path class="cls-1" d="M13.8,87.92h.46l1.08,2.98h-.44l-.3-.89h-1.18l-.32.89h-.41l1.12-2.98ZM14.46,89.68l-.45-1.32-.48,1.32h.93Z"/>
    <path class="cls-1" d="M27.29,88.14c.21.2.32.42.34.68h-.39c-.04-.19-.13-.34-.26-.46s-.31-.17-.55-.17c-.29,0-.52.1-.7.31-.18.21-.27.52-.27.95,0,.35.08.63.24.85.16.22.4.33.72.33.29,0,.51-.11.67-.34.08-.12.14-.28.18-.47h.39c-.03.31-.15.58-.34.79-.23.26-.55.38-.95.38-.34,0-.63-.1-.86-.31-.31-.28-.46-.71-.46-1.29,0-.44.11-.8.34-1.08.25-.31.59-.46,1.03-.46.37,0,.66.1.87.3Z"/>
    <path class="cls-1" d="M29.26,87.92h2.16v.37h-1.77v.9h1.64v.34h-1.64v1.01h1.8v.36h-2.19v-2.98Z"/>
    <path class="cls-1" d="M33.08,87.92h1.35c.22,0,.41.03.55.1.27.13.41.36.41.7,0,.18-.04.32-.11.44s-.18.2-.31.27c.12.05.2.11.26.19s.09.2.1.38v.4c.02.11.03.2.04.25.02.09.07.16.13.18v.07h-.49s-.02-.06-.03-.1-.01-.12-.02-.24l-.02-.5c0-.19-.08-.33-.21-.39-.07-.04-.19-.05-.35-.05h-.89v1.28h-.4v-2.98ZM34.39,89.29c.18,0,.33-.04.44-.11s.16-.21.16-.41c0-.21-.07-.36-.22-.43-.08-.04-.19-.06-.32-.06h-.96v1.02h.91Z"/>
    <path class="cls-1" d="M37.93,87.92h.46l1.08,2.98h-.44l-.3-.89h-1.18l-.32.89h-.41l1.12-2.98ZM38.6,89.68l-.45-1.32-.48,1.32h.93Z"/>
    <path class="cls-1" d="M40.87,87.92h.58l.86,2.52.85-2.52h.57v2.98h-.39v-1.76c0-.06,0-.16,0-.3s0-.29,0-.45l-.85,2.51h-.4l-.86-2.51v.09c0,.07,0,.18,0,.33,0,.15,0,.26,0,.33v1.76h-.39v-2.98Z"/>
    <path class="cls-1" d="M45.47,87.92h.41v2.98h-.41v-2.98Z"/>
    <path class="cls-1" d="M49.68,88.14c.21.2.32.42.34.68h-.39c-.04-.19-.13-.34-.26-.46s-.31-.17-.55-.17c-.29,0-.52.1-.7.31-.18.21-.27.52-.27.95,0,.35.08.63.24.85.16.22.4.33.72.33.29,0,.51-.11.67-.34.08-.12.14-.28.18-.47h.39c-.03.31-.15.58-.34.79-.23.26-.55.38-.95.38-.34,0-.63-.1-.86-.31-.31-.28-.46-.71-.46-1.29,0-.44.11-.8.34-1.08.25-.31.59-.46,1.03-.46.37,0,.66.1.87.3Z"/>
    <path class="cls-1" d="M52.48,87.92h.46l1.08,2.98h-.44l-.3-.89h-1.18l-.32.89h-.41l1.12-2.98ZM53.14,89.68l-.45-1.32-.48,1.32h.93Z"/>
    <path class="cls-1" d="M63.87,87.92h1.19c.4,0,.72.15.94.44.2.26.3.6.3,1.01,0,.32-.06.6-.18.86-.21.45-.56.68-1.07.68h-1.19v-2.98ZM64.99,90.56c.13,0,.24-.01.33-.04.15-.05.28-.15.38-.3.08-.12.13-.27.17-.46.02-.11.03-.22.03-.31,0-.37-.07-.66-.22-.86s-.37-.31-.69-.31h-.7v2.29h.7Z"/>
    <path class="cls-1" d="M67.93,87.92h2.16v.37h-1.77v.9h1.64v.34h-1.64v1.01h1.8v.36h-2.19v-2.98Z"/>
    <path class="cls-1" d="M71.71,87.92h.4v2.63h1.5v.36h-1.9v-2.98Z"/>
    <path class="cls-1" d="M75.05,87.92h.4v2.63h1.5v.36h-1.9v-2.98Z"/>
    <path class="cls-1" d="M79.27,87.92h.46l1.08,2.98h-.44l-.3-.89h-1.18l-.32.89h-.41l1.12-2.98ZM79.93,89.68l-.45-1.32-.48,1.32h.93Z"/>
    <path class="cls-1" d="M92.76,88.14c.21.2.32.42.34.68h-.39c-.04-.19-.13-.34-.26-.46-.13-.11-.31-.17-.55-.17-.29,0-.52.1-.7.31-.18.21-.27.52-.27.95,0,.35.08.63.24.85.16.22.4.33.72.33.29,0,.51-.11.67-.34.08-.12.14-.28.18-.47h.39c-.03.31-.15.58-.34.79-.23.26-.55.38-.95.38-.34,0-.63-.1-.86-.31-.31-.28-.46-.71-.46-1.29,0-.44.11-.8.34-1.08.25-.31.59-.46,1.03-.46.37,0,.66.1.87.3Z"/>
    <path class="cls-1" d="M97.14,88.35c.2.26.3.6.3,1.01,0,.44-.11.81-.34,1.11-.27.35-.64.52-1.13.52-.46,0-.82-.15-1.08-.45-.23-.29-.35-.66-.35-1.11,0-.4.1-.75.3-1.03.26-.37.64-.55,1.14-.55s.92.17,1.17.51ZM96.79,90.25c.16-.26.24-.55.24-.88,0-.35-.09-.63-.27-.85s-.43-.32-.75-.32-.56.11-.75.32-.29.52-.29.94c0,.33.08.61.25.84.17.23.44.34.81.34s.61-.13.77-.38Z"/>
    <path class="cls-1" d="M99.22,89.94c0,.17.05.31.12.41.13.2.36.3.68.3.15,0,.28-.02.4-.06.23-.08.35-.23.35-.45,0-.16-.05-.28-.15-.35-.1-.07-.26-.13-.47-.18l-.39-.09c-.26-.06-.44-.13-.54-.2-.18-.12-.28-.31-.28-.56,0-.27.09-.49.27-.66s.44-.26.77-.26c.3,0,.56.08.77.23.21.15.32.39.32.72h-.38c-.02-.16-.06-.28-.12-.37-.12-.16-.32-.23-.6-.23-.23,0-.39.05-.49.15s-.15.22-.15.35c0,.15.06.25.18.32.08.04.25.1.52.16l.4.1c.2.05.35.11.45.19.18.14.28.34.28.61,0,.33-.12.57-.35.71s-.51.21-.82.21c-.36,0-.64-.09-.85-.28-.2-.19-.3-.44-.3-.76h.38Z"/>
    <path class="cls-1" d="M104.94,87.92v.36h-1v2.63h-.41v-2.63h-1v-.36h2.42Z"/>
    <path class="cls-1" d="M106.91,87.92h.46l1.08,2.98h-.44l-.3-.89h-1.18l-.32.89h-.41l1.12-2.98ZM107.57,89.68l-.45-1.32-.48,1.32h.93Z"/>
    <path class="cls-1" d="M118.55,89.94c0,.17.05.31.12.41.13.2.36.3.68.3.15,0,.28-.02.4-.06.23-.08.35-.23.35-.45,0-.16-.05-.28-.15-.35-.1-.07-.26-.13-.47-.18l-.39-.09c-.26-.06-.44-.13-.54-.2-.18-.12-.28-.31-.28-.56,0-.27.09-.49.27-.66s.44-.26.77-.26c.3,0,.56.08.77.23.21.15.32.39.32.72h-.38c-.02-.16-.06-.28-.12-.37-.12-.16-.32-.23-.6-.23-.23,0-.39.05-.49.15s-.15.22-.15.35c0,.15.06.25.18.32.08.04.25.1.52.16l.4.1c.2.05.35.11.45.19.18.14.28.34.28.61,0,.33-.12.57-.35.71s-.51.21-.82.21c-.36,0-.64-.09-.85-.28-.2-.19-.3-.44-.3-.76h.38Z"/>
    <path class="cls-1" d="M122.09,87.92h.58l.86,2.52.85-2.52h.57v2.98h-.39v-1.76c0-.06,0-.16,0-.3s0-.29,0-.45l-.85,2.51h-.4l-.86-2.51v.09c0,.07,0,.18,0,.33,0,.15,0,.26,0,.33v1.76h-.39v-2.98Z"/>
    <path class="cls-1" d="M126.63,87.92h2.16v.37h-1.77v.9h1.64v.34h-1.64v1.01h1.8v.36h-2.19v-2.98Z"/>
    <path class="cls-1" d="M130.45,87.92h1.35c.22,0,.41.03.55.1.27.13.41.36.41.7,0,.18-.04.32-.11.44s-.18.2-.31.27c.12.05.2.11.26.19.06.08.09.2.1.38v.4c.02.11.03.2.04.25.02.09.07.16.13.18v.07h-.49s-.02-.06-.03-.1-.01-.12-.02-.24l-.02-.5c0-.19-.08-.33-.21-.39-.07-.04-.19-.05-.35-.05h-.89v1.28h-.4v-2.98ZM131.77,89.29c.18,0,.33-.04.44-.11.11-.08.16-.21.16-.41,0-.21-.08-.36-.22-.43-.08-.04-.19-.06-.32-.06h-.96v1.02h.91Z"/>
    <path class="cls-1" d="M135.31,87.92h.46l1.08,2.98h-.44l-.3-.89h-1.18l-.32.89h-.41l1.12-2.98ZM135.97,89.68l-.45-1.32-.48,1.32h.93Z"/>
    <path class="cls-1" d="M138.25,87.92h.4v2.63h1.5v.36h-1.9v-2.98Z"/>
    <path class="cls-1" d="M141.62,87.92h1.19c.4,0,.72.15.94.44.2.26.3.6.3,1.01,0,.32-.06.6-.18.86-.21.45-.56.68-1.07.68h-1.19v-2.98ZM142.73,90.56c.13,0,.24-.01.33-.04.15-.05.28-.15.38-.3.08-.12.13-.27.17-.46.02-.11.03-.22.03-.31,0-.37-.07-.66-.22-.86-.14-.2-.37-.31-.69-.31h-.7v2.29h.7Z"/>
    <path class="cls-1" d="M146.51,87.92h.46l1.08,2.98h-.44l-.3-.89h-1.18l-.32.89h-.41l1.12-2.98ZM147.17,89.68l-.45-1.32-.48,1.32h.93Z"/>
  </g>
</svg>